<?xml version="1.0" encoding="utf-8"?>
<!-- Generator: Adobe Illustrator 22.0.1, SVG Export Plug-In . SVG Version: 6.00 Build 0)  -->
<svg  version="1.1" id="Layer_1" xmlns="http://www.w3.org/2000/svg" xmlns:xlink="http://www.w3.org/1999/xlink" x="0px" y="0px"
	 viewBox="0 0 62 67" style="enable-background:new 0 0 62 67;" xml:space="preserve">
<style type="text/css">
	.st0{fill:#16E024;}
</style>
<path class="st0" d="M59.9,9.1c-2.4-8.8-9.9-7.5-16.8-7.4c-9.5,0-22.9-3.6-31.4,2.6C5.9,8.6,3.6,17.9,2.2,24.9
	C0.4,34,0.3,43.8,2.6,52.8c1.5,6.1,6.6,14.2,13,12.9c4.1,0.9,8.3,1,12.6,0.8c5.4-0.3,11.8-0.4,16.9-2.4c0.1-0.1,0.3-0.2,0.4-0.3
	c1.6-0.2,3.1-0.5,4.7-0.8c7.6-1.7,9.1-9.6,10-16.9C61.6,33.8,63.3,21.2,59.9,9.1z M7.1,20c0,0.1,0,0.3,0,0.4c-0.2,1-0.4,2-0.5,3
	c0,0.1-0.1,0.1-0.1,0.2c-0.5,1.9-0.9,3.8-1.2,5.7c0,0,0,0,0,0c0.4-2.6,0.8-4.8,1.2-6.6c0.2-0.9,0.5-1.8,0.7-2.8
	C7.1,19.9,7.1,19.9,7.1,20z M13.4,53.5c-0.1-0.3-0.2-0.5-0.4-0.8c0.2,0.1,0.4,0.2,0.7,0.3c0.5,0.6,0.9,1.3,1.4,2
	C14.5,54.5,13.9,54,13.4,53.5z M20.5,13.7c-0.1-0.3-0.2-0.5-0.2-0.8c0.5-0.2,1-0.5,1.5-0.7C21.4,12.7,21,13.2,20.5,13.7z M22.1,19
	c0.5-0.7,1-1.4,1.5-2.1c0.1-0.1,0.3-0.2,0.4-0.3c-0.5,0.8-0.9,1.6-1.4,2.4C22.5,19,22.3,19,22.1,19z M28.1,41.1
	c0-0.8,0.1-1.7,0.1-2.5c0-0.3-0.1-0.5-0.2-0.7c0.2,0,0.4,0,0.7,0C28.4,39,28.2,40,28.1,41.1z M44,33.8c-1.2,0.1-1.5,1.6-0.7,2.3
	c-0.7,2.6-0.6,5.3-0.8,8c-0.2,4.3-0.1,8.5,0.1,12.8c-3.7,0.3-7.5,0.7-11.2,1.1c0.3-2.1-0.2-4.7-0.2-6.6c-0.1-4.2-0.3-8.6,0.3-12.8
	c0.1-0.6,0-1.1-0.3-1.5c0.9-0.7,0.8-2.1-0.4-2.6c-2-0.9-4.7-0.5-7-0.4c-0.5-2.5-0.4-5.3,0-7.8c1.7-0.1,3.3-0.3,5-0.4
	c0.9-0.1,1.3-0.9,1.1-1.7c0-0.1,0.1-0.1,0.1-0.2c0.5-1.6,0.6-3.2,1.1-4.8c0.8-2.9,3-5.3,5.2-7c4-3.3,9.2-4.4,14-3.5
	c0.2,2.5,0.6,5.1,0.9,7.6c-0.6,0-1.2,0-1.8,0c-1.8,0-3.6,0.4-5.4,0.4c-0.8,0-1.6,0.7-1.5,1.7c0,1.4,0.3,2.9,0.5,4.4
	c-0.5,0.9-0.2,2.3,1.1,2.4c1.4,0,2.9,0.1,4.3,0c0.7,0,1.7,0,2.5-0.2c-0.3,1.3-0.2,2.7-0.3,4c0,1.4,0,2.9,0,4.3c-0.5,0-1,0.1-1.5,0.1
	C47.3,33.6,45.6,33.7,44,33.8z M50.7,39.3c0-0.5-0.1-1.1-0.1-1.6c0-0.4-0.3-0.8-0.6-1c0.3,0,0.5,0,0.8,0c0,0.1,0,0.3,0,0.4
	c0,0.3,0.2,0.5,0.4,0.7C51,38.4,50.9,38.8,50.7,39.3z M56.2,47.1c-0.4,3.1-1,5.4-2,7.2c0.7-2.5,1.4-5,2-7.5
	C56.2,46.9,56.2,47,56.2,47.1z"/>
</svg>
