<svg width="62" height="67" viewBox="0 0 62 67" fill="none" xmlns="http://www.w3.org/2000/svg">
<path d="M59.9398 9.10868C57.5003 0.298787 50.0789 1.63746 43.1622 1.66709C33.6133 1.70774 20.2903 -1.92074 11.7644 4.30378C5.91154 8.57679 3.59727 17.8686 2.22047 24.9044C0.440185 34.0006 0.336406 43.8401 2.57048 52.8419C4.0954 58.9869 9.15699 67.052 15.5991 65.7836C19.7405 66.6841 23.8993 66.7767 28.1639 66.5432C33.5746 66.2479 39.9193 66.1384 45.0478 64.16C45.1975 64.1021 45.3221 63.9981 45.4334 63.8786C47.0011 63.6553 48.5713 63.3884 50.1465 63.0304C57.746 61.3046 59.1986 53.4148 60.0986 46.1082C61.6172 33.7729 63.294 21.217 59.9398 9.10868ZM7.10279 19.9659C7.08078 20.0916 7.08015 20.218 7.09336 20.3427C6.91536 21.3373 6.73831 22.3318 6.58327 23.3267C6.55654 23.3876 6.52289 23.4386 6.50496 23.512C6.04834 25.4005 5.63762 27.2927 5.25993 29.1878C5.24861 29.1971 5.23571 29.2043 5.22471 29.2139C5.58196 26.6634 6.00777 24.3873 6.41691 22.6132C6.62258 21.7221 6.86725 20.7661 7.14179 19.7898C7.13078 19.8505 7.11317 19.9049 7.10279 19.9659ZM13.421 53.4889C13.294 53.2233 13.1742 52.9528 13.0393 52.6938C13.2647 52.7851 13.4836 52.8867 13.6987 52.9966C14.1758 53.6442 14.6309 54.3098 15.0686 54.9894C14.4881 54.5265 13.9428 54.0214 13.421 53.4889ZM20.5145 13.6841C20.4321 13.4227 20.3528 13.1602 20.2783 12.896C20.79 12.6689 21.3004 12.4388 21.8127 12.2139C21.4023 12.7203 20.9721 13.2125 20.5145 13.6841ZM22.1479 19.0471C22.6863 18.3506 23.191 17.6351 23.67 16.902C23.7952 16.8031 23.9232 16.7077 24.0458 16.6054C23.5659 17.3953 23.1165 18.2117 22.6791 19.0382C22.502 19.0409 22.325 19.045 22.1479 19.0471ZM28.0988 41.1235C28.13 40.2792 28.1806 39.439 28.1756 38.5864C28.1737 38.2943 28.0812 38.081 27.951 37.9208C28.1683 37.9108 28.3919 37.915 28.6045 37.8947C28.3743 38.9608 28.2202 40.0398 28.0988 41.1235ZM43.9578 33.777C42.7159 33.8394 42.482 35.4209 43.2226 36.104C42.4823 38.6684 42.5763 41.3912 42.4603 44.1512C42.282 48.4053 42.3854 52.6624 42.6015 56.912C38.8714 57.2241 35.1266 57.6279 31.3808 58.0485C31.6427 55.9144 31.1977 53.3083 31.1657 51.484C31.0911 47.2402 30.9075 42.8794 31.4883 38.6684C31.5673 38.0958 31.4827 37.5622 31.1584 37.1571C32.0352 36.4609 31.9154 35.0454 30.7873 34.5566C28.8159 33.7029 26.1044 34.0106 23.7945 34.1332C23.3357 31.6429 23.3486 28.844 23.8298 26.3671C25.5012 26.2613 27.1717 26.1008 28.8398 25.9637C29.759 25.8883 30.1206 25.0257 29.9533 24.3036C29.9829 24.2464 30.0203 24.1927 30.0417 24.1321C30.5873 22.5788 30.6628 20.9642 31.1012 19.3689C31.8949 16.4793 34.1447 14.0975 36.2672 12.3379C40.2863 9.00465 45.4199 7.96705 50.2984 8.83895C50.5123 11.3826 50.8711 13.8988 51.1733 16.4276C50.5623 16.3808 49.9412 16.407 49.3902 16.418C47.5741 16.4549 45.7724 16.7838 43.9578 16.8489C43.1276 16.8789 42.4008 17.5951 42.4147 18.5393C42.4354 19.9807 42.7486 21.4513 42.8974 22.8974C42.3625 23.7587 42.7046 25.2182 43.9578 25.2613C45.3837 25.3102 46.808 25.3447 48.2345 25.3006C48.9685 25.2778 49.8868 25.2565 50.7431 25.0915C50.4887 26.3978 50.5085 27.8136 50.4635 29.1271C50.4151 30.5461 50.4157 31.9922 50.472 33.4339C49.9572 33.4628 49.4421 33.5031 48.9317 33.5286C47.2737 33.6117 45.6158 33.6943 43.9578 33.777ZM50.7145 39.3277C50.6648 38.7893 50.639 38.2567 50.5789 37.7148C50.5321 37.2859 50.2666 36.9459 49.9418 36.7516C50.2034 36.7702 50.4651 36.7916 50.7267 36.8013C50.7415 36.9304 50.7491 37.0617 50.7648 37.1902C50.8028 37.4968 50.9528 37.7259 51.156 37.8819C51.0035 38.3638 50.8519 38.8461 50.7145 39.3277ZM56.2025 47.1124C55.8248 50.169 55.1946 52.5143 54.2209 54.3204C54.9477 51.8284 55.6254 49.3333 56.239 46.8292C56.227 46.9219 56.2135 47.0187 56.2025 47.1124Z" fill="white"/>
</svg>
