<?xml version="1.0" encoding="utf-8"?>
<!-- Generator: Adobe Illustrator 21.0.2, SVG Export Plug-In . SVG Version: 6.00 Build 0)  -->
<svg version="1.1" id="Layer_1" xmlns="http://www.w3.org/2000/svg" xmlns:xlink="http://www.w3.org/1999/xlink" x="0px" y="0px"
	 viewBox="0 0 2092 114" style="enable-background:new 0 0 2092 114;" xml:space="preserve">
<style type="text/css">
	.st0{fill:#FFFFFF;}
</style>
<g>
	<path class="st0" d="M61.2,67.1h4.9c-4.3,1.3-9.2,2-14.8,2h-9.8l-4.2,19.5H13l4.6-21.5h-4.9l5.5-25.7h4.9l4.5-21.1h34.2
		c18.2,0,26.4,7,24.7,21.1h-4.9c-0.1,1.1-0.3,2.2-0.6,3.3C78.4,56.3,71.9,63.7,61.2,67.1z M42.6,41.3l-1.8,8.2h9.8
		c3.3,0,5.2-1.6,5.9-4.9c0.3-1.4,0.3-2.5-0.2-3.3h4.9c-0.6-1-1.8-1.6-3.6-1.6h-9.8l-0.3,1.6H42.6z"/>
	<path class="st0" d="M135.3,67.1h4.9l4.6,21.5h-24.4l-4.2-19.5h-6.3l-4.2,19.5H81.4l4.6-21.5h-4.9l5.4-25.4h4.9l4.5-21.4h34.2
		c18.3,0,26.5,7.1,24.6,21.4h-4.9c-0.1,1-0.3,2-0.5,3c-2,9.6-6.8,16.3-14.5,20.3L135.3,67.1z M110.9,41.6l-1.7,7.9h9.8
		c3.3,0,5.2-1.6,5.9-4.9c0.3-1.2,0.2-2.2,0-3h4.9c-0.5-1.2-1.7-1.9-3.8-1.9h-9.8l-0.4,1.9H110.9z"/>
	<path class="st0" d="M159.1,46.7c6.2-17.6,19.3-26.5,39.3-26.5c20.1,0,29.4,8.8,28.1,26.5h-4.9c-0.2,2.4-0.6,5-1.2,7.7
		c-0.9,4.3-2.1,8.1-3.7,11.6h4.9C215,81,202.4,88.6,183.9,88.6c-18.5,0-27.9-7.5-28.2-22.6h-4.9c-0.1-3.5,0.4-7.3,1.3-11.6
		c0.6-2.7,1.3-5.3,2.1-7.7H159.1z M201.6,46.7c-0.4-4.6-2.8-6.9-7.3-6.9s-7.9,2.3-10.3,6.9h-4.9c-1.1,2.1-1.9,4.7-2.6,7.7
		c-1.1,5.3-1,9.2,0.4,11.6h4.9c1.2,2.1,3.3,3.1,6.2,3.1c3,0,5.5-1,7.6-3.1h-4.9c2.4-2.4,4.2-6.3,5.3-11.6c0.7-3.1,0.9-5.6,0.7-7.7
		H201.6z"/>
	<path class="st0" d="M243.9,41.9l-9.5-21.6h29.7l4.6,14.6l11.7-14.6h29.7l-19.7,21.6H285l-11.4,12.5l5.9,13.5h5.4l9.1,20.8h-29.7
		l-4.7-14.6l-11.8,14.6h-29.5l18.9-20.8h-5.4L244,54.4l-5.5-12.5H243.9z"/>
	<path class="st0" d="M318.3,42.4l-7.6-22.2h26.9l4.2,14.6l10.5-14.6h26.8l-17,22.2h-4.9l-13.4,17.4l-1.5,7h4.9l-4.6,21.8h-24.4
		l4.6-21.8h-4.9l1.5-7l-6-17.4H318.3z"/>
	<path class="st0" d="M404.1,42.4l4.7-22.2h24.4l9.5,22.2h-4.9l3.5,8.2l1.8-8.2h4.9l4.7-22.2h24.4l-4.7,22.2h-4.9l-5.3,24.9h4.9
		l-4.5,21.3h-24.4L429,67.3h-4.9l-3.9-9.1l-1.9,9.1h4.9l-4.5,21.3h-24.4l4.5-21.3h-4.9l5.3-24.9H404.1z"/>
	<path class="st0" d="M476.9,46.7c6.2-17.6,19.3-26.5,39.3-26.5c20.1,0,29.4,8.8,28.1,26.5h-4.9c-0.2,2.4-0.6,5-1.2,7.7
		c-0.9,4.3-2.1,8.1-3.7,11.6h4.9c-6.7,15.1-19.3,22.6-37.8,22.6c-18.5,0-27.9-7.5-28.2-22.6h-4.9c-0.1-3.5,0.4-7.3,1.3-11.6
		c0.6-2.7,1.3-5.3,2.1-7.7H476.9z M519.4,46.7c-0.4-4.6-2.8-6.9-7.3-6.9s-7.9,2.3-10.3,6.9h-4.9c-1.1,2.1-1.9,4.7-2.6,7.7
		c-1.1,5.3-1,9.2,0.4,11.6h4.9c1.2,2.1,3.3,3.1,6.2,3.1c3,0,5.5-1,7.6-3.1h-4.9c2.4-2.4,4.2-6.3,5.3-11.6c0.7-3.1,0.9-5.6,0.7-7.7
		H519.4z"/>
	<path class="st0" d="M558.5,42.7l-3.2-22.5h24.4l1.7,22.5h-4.9l0.8,11.7l5.9-11.7h4.9l11.2-22.5h24.4l-12.8,22.5H606l-13.6,23.8
		h4.9l-12.6,22.1h-19.5L562,66.5h-4.9l-3.5-23.8H558.5z"/>
	<path class="st0" d="M637.9,67.8h4.9l-4.4,20.8H614l4.4-20.8h-4.9l5.3-24.9h4.9l4.8-22.7h24.4l-4.8,22.7h-4.9L637.9,67.8z"/>
	<path class="st0" d="M667.2,67.6h4.9l-0.3,1.5H706l-4.2,19.5h-58.6l4.5-21h-4.9l5.2-24.7h4.9l4.8-22.7h58.6l-4.2,19.5h-34.2
		l-0.7,3.2h-4.9l-0.4,1.7h34.2l-4.2,19.5H668L667.2,67.6z"/>
	<path class="st0" d="M716.6,42.4l4.7-22.2h24.4l9.5,22.2h-4.9l3.5,8.2l1.8-8.2h4.9l4.7-22.2h24.4l-4.7,22.2H780l-5.3,24.9h4.9
		l-4.5,21.3h-24.4l-9.2-21.3h-4.9l-3.9-9.1l-1.9,9.1h4.9l-4.5,21.3h-24.4l4.5-21.3h-4.9l5.3-24.9H716.6z"/>
	<path class="st0" d="M790.1,41.1l4.4-20.8h34.2c19.5,0,27.9,6.5,25.1,19.5c-0.1,0.5-0.2,0.9-0.3,1.3h-4.9
		c-2.2,8.9-6.4,13.3-12.6,13.3c5.7,0,8.1,3.8,7.2,11.3h4.9c-0.1,1-0.3,2.2-0.6,3.4c-2.8,13-13.9,19.5-33.4,19.5H780l4.9-22.9H780
		l5.2-24.6H790.1z M823.7,65.7h-4.9c-0.3-1-1.8-1.5-4.3-1.5h-9.8l-0.3,1.5h4.9l-0.7,3.4h9.8c3.3,0,5.1-0.8,5.4-2.4
		C823.8,66.3,823.8,65.9,823.7,65.7z M828.8,41.1c-0.5-0.9-1.9-1.3-4.2-1.3h-9.8l-0.3,1.3h-4.9l-0.8,3.6h9.8c3.3,0,5.1-0.8,5.4-2.4
		c0.1-0.4,0.1-0.8-0.1-1.1H828.8z"/>
	<path class="st0" d="M902.3,67.1h4.9l4.6,21.5h-24.4l-4.2-19.5h-6.3l-4.2,19.5h-24.4l4.6-21.5h-4.9l5.4-25.4h4.9l4.5-21.4h34.2
		c18.3,0,26.5,7.1,24.6,21.4h-4.9c-0.1,1-0.3,2-0.5,3c-2,9.6-6.8,16.3-14.5,20.3L902.3,67.1z M877.9,41.6l-1.7,7.9h9.8
		c3.3,0,5.2-1.6,5.9-4.9c0.3-1.2,0.2-2.2,0-3h4.9c-0.5-1.2-1.7-1.9-3.8-1.9h-9.8l-0.4,1.9H877.9z"/>
	<path class="st0" d="M940.7,67.6h4.9l-0.3,1.5h34.2l-4.2,19.5h-58.6l4.5-21h-4.9l5.2-24.7h4.9l4.8-22.7h58.6l-4.2,19.5h-34.2
		l-0.7,3.2H946l-0.4,1.7h34.2l-4.2,19.5h-34.2L940.7,67.6z"/>
	<path class="st0" d="M1029.5,65.7h4.9c-0.1,0.2-0.2,0.3-0.2,0.5l-0.6,2.9h39.1l-4.2,19.5H1005l4.8-22.4l0.1-0.5h-4.9
		c3.2-14,14.4-21,33.7-21h4.9c3.3,0,5-0.7,5.3-2c0.1-0.4,0.1-0.7,0-1h4.9c-0.3-1.2-1.7-1.9-4.3-1.9h-34.2l4.2-19.5h34.2
		c19.1,0,27.3,7.1,24.7,21.4h-4.9c-0.1,0.3-0.1,0.7-0.2,1c-3.1,14.4-14.4,21.5-33.9,21.5h-4.9C1031.8,64.2,1030.1,64.7,1029.5,65.7z
		"/>
	<path class="st0" d="M1084.8,41.6c6.8-14.3,19.2-21.4,37.3-21.4c18,0,27.4,7.1,28.1,21.4h-3.4c0.2,3.8-0.2,8-1.2,12.8
		c-0.7,3.3-1.6,6.3-2.6,9.1h3.4c-6.4,16.7-19.3,25-38.8,25c-19.5,0-28.9-8.3-28.1-25h-3.4c0.1-2.8,0.5-5.8,1.2-9.1
		c1-4.8,2.4-9,4.2-12.8H1084.8z M1123.3,41.6c-1.2-1.2-3-1.9-5.3-1.9c-2.3,0-4.3,0.6-6.1,1.9h-3.4c-3.2,2.2-5.5,6.5-6.8,12.8
		c-0.8,3.8-1,6.8-0.5,9.1h3.4c0.7,3.7,3.1,5.5,7.1,5.5s7.2-1.8,9.5-5.5h-3.4c1.5-2.3,2.6-5.4,3.4-9.1c1.3-6.3,0.9-10.5-1.3-12.8
		H1123.3z"/>
	<path class="st0" d="M1180.5,67.1h4.9l-4.6,21.5h-24.4l4.6-21.5h-4.9l4.7-22.4h-9.8l0.6-3h4.9L1159,30c6.5,0,10.5-3.3,11.9-9.8
		h24.4l-4.5,21.4h-4.9L1180.5,67.1z"/>
	<path class="st0" d="M1248.8,67.1h4.9c-3.5,14.4-14.7,21.5-33.9,21.5h-34.2l4.2-19.5h34.2c2.1,0,3.6-0.7,4.7-2h-4.9
		c0.6-0.7,1-1.7,1.2-2.9h-9.8c-19.5,0-27.8-7.2-24.7-21.5c0-0.1,0-0.2,0-0.2h4.9c3.3-14.8,14.6-22.2,34-22.2h4.9
		c19.4,0,27.6,7.4,24.6,22.2h-4.9c0,0.1,0,0.1,0,0.2l-5,23.5L1248.8,67.1z M1215,42.4c0,0.1,0,0.1,0,0.2c-0.3,1.3,1.2,2,4.4,2h9.8
		c0.2-0.8,0.2-1.6,0.1-2.2h4.9c-0.2-1.8-1.5-2.6-4-2.6h-4.9c-3.1,0-4.9,0.9-5.5,2.6H1215z"/>
	<path class="st0" d="M1300.9,42.4l-7.6-22.2h26.9l4.2,14.6l10.5-14.6h26.8l-17,22.2h-4.9l-13.4,17.4l-1.5,7h4.9l-4.6,21.8h-24.4
		l4.6-21.8h-4.9l1.5-7l-6-17.4H1300.9z"/>
	<path class="st0" d="M1469.6,65.7h4.9l-4.9,22.9h-24.4l4.9-22.9h-3.2l-11.4,22.9H1411l-1.7-22.9h-3.2l-4.9,22.9h-24.4l4.9-22.9
		h-4.9l5.1-23.8h4.9l4.6-21.6h34.2l3.1,21.6h-4.9l1.8,12.5l7.1-12.5h4.9l12.4-21.6h34.2l-4.6,21.6h-4.9L1469.6,65.7z M1401.3,65.7
		h3.2l-0.8-11.3L1401.3,65.7z M1442,65.7h3.2l2.4-11.3L1442,65.7z"/>
	<path class="st0" d="M1497.5,42.7l13.8-22.5h21l3.5,22.5h-4.9l4.1,26.5h4.9l3,19.4h-26.3l-0.4-4.9h-18l-2.6,4.9h-26.3l11.9-19.4
		h-4.9l16.3-26.5H1497.5z M1509.8,64.2l-0.7-9.8l-5.2,9.8H1509.8z"/>
	<path class="st0" d="M1601.7,67.1h4.9l4.6,21.5h-24.4l-4.2-19.5h-6.3l-4.2,19.5h-24.4l4.6-21.5h-4.9l5.4-25.4h4.9l4.5-21.4h34.2
		c18.3,0,26.5,7.1,24.6,21.4h-4.9c-0.1,1-0.3,2-0.5,3c-2,9.6-6.8,16.3-14.5,20.3L1601.7,67.1z M1577.3,41.6l-1.7,7.9h9.8
		c3.3,0,5.2-1.6,5.9-4.9c0.3-1.2,0.2-2.2,0-3h4.9c-0.5-1.2-1.7-1.9-3.8-1.9h-9.8l-0.4,1.9H1577.3z"/>
	<path class="st0" d="M1649.1,65.4h4.9l-4.4,3.6h29.3l-4.2,19.5h-58.6l4.2-19.5l4.4-3.6h-4.9l29.5-24.4h4.9l1.6-1.3h-29.3l4.2-19.5
		h58.6l-4.2,19.5l-1.6,1.3h-4.9L1649.1,65.4z"/>
	<path class="st0" d="M1689,46.7c6.2-17.6,19.3-26.5,39.3-26.5c20.1,0,29.4,8.8,28.1,26.5h-4.9c-0.2,2.4-0.6,5-1.2,7.7
		c-0.9,4.3-2.1,8.1-3.7,11.6h4.9c-6.7,15.1-19.3,22.6-37.8,22.6c-18.5,0-27.9-7.5-28.2-22.6h-4.9c-0.1-3.5,0.4-7.3,1.3-11.6
		c0.6-2.7,1.3-5.3,2.1-7.7H1689z M1731.5,46.7c-0.4-4.6-2.8-6.9-7.3-6.9s-7.9,2.3-10.3,6.9h-4.9c-1.1,2.1-1.9,4.7-2.6,7.7
		c-1.1,5.3-1,9.2,0.4,11.6h4.9c1.2,2.1,3.3,3.1,6.2,3.1c3,0,5.5-1,7.6-3.1h-4.9c2.4-2.4,4.2-6.3,5.3-11.6c0.7-3.1,0.9-5.6,0.7-7.7
		H1731.5z"/>
	<path class="st0" d="M1802.2,65.7h4.9c-0.1,0.2-0.2,0.3-0.2,0.5l-0.6,2.9h39.1l-4.2,19.5h-63.5l4.8-22.4l0.1-0.5h-4.9
		c3.2-14,14.4-21,33.7-21h4.9c3.3,0,5-0.7,5.3-2c0.1-0.4,0.1-0.7,0-1h4.9c-0.3-1.2-1.7-1.9-4.3-1.9H1788l4.2-19.5h34.2
		c19.1,0,27.3,7.1,24.7,21.4h-4.9c-0.1,0.3-0.1,0.7-0.2,1c-3.1,14.4-14.4,21.5-33.9,21.5h-4.9C1804.4,64.2,1802.7,64.7,1802.2,65.7z
		"/>
	<path class="st0" d="M1857.5,41.6c6.8-14.3,19.2-21.4,37.3-21.4c18,0,27.4,7.1,28.1,21.4h-3.4c0.2,3.8-0.2,8-1.2,12.8
		c-0.7,3.3-1.6,6.3-2.6,9.1h3.4c-6.4,16.7-19.3,25-38.8,25c-19.5,0-28.9-8.3-28.1-25h-3.4c0.1-2.8,0.5-5.8,1.2-9.1
		c1-4.8,2.4-9,4.2-12.8H1857.5z M1895.9,41.6c-1.2-1.2-3-1.9-5.3-1.9c-2.3,0-4.3,0.6-6.1,1.9h-3.4c-3.2,2.2-5.5,6.5-6.8,12.8
		c-0.8,3.8-1,6.8-0.5,9.1h3.4c0.7,3.7,3.1,5.5,7.1,5.5s7.2-1.8,9.5-5.5h-3.4c1.5-2.3,2.6-5.4,3.4-9.1c1.3-6.3,0.9-10.5-1.3-12.8
		H1895.9z"/>
	<path class="st0" d="M1943.8,65.7h4.9c-0.1,0.2-0.2,0.3-0.2,0.5l-0.6,2.9h39.1l-4.2,19.5h-63.5l4.8-22.4l0.1-0.5h-4.9
		c3.2-14,14.4-21,33.7-21h4.9c3.3,0,5-0.7,5.3-2c0.1-0.4,0.1-0.7,0-1h4.9c-0.3-1.2-1.7-1.9-4.3-1.9h-34.2l4.2-19.5h34.2
		c19.1,0,27.3,7.1,24.7,21.4h-4.9c-0.1,0.3-0.1,0.7-0.2,1c-3.1,14.4-14.4,21.5-33.9,21.5h-4.9C1946,64.2,1944.3,64.7,1943.8,65.7z"
		/>
	<path class="st0" d="M1999.1,41.6c6.8-14.3,19.2-21.4,37.3-21.4c18,0,27.4,7.1,28.1,21.4h-3.4c0.2,3.8-0.2,8-1.2,12.8
		c-0.7,3.3-1.6,6.3-2.6,9.1h3.4c-6.4,16.7-19.3,25-38.8,25c-19.5,0-28.9-8.3-28.1-25h-3.4c0.1-2.8,0.5-5.8,1.2-9.1
		c1-4.8,2.4-9,4.2-12.8H1999.1z M2037.5,41.6c-1.2-1.2-3-1.9-5.3-1.9c-2.3,0-4.3,0.6-6.1,1.9h-3.4c-3.2,2.2-5.5,6.5-6.8,12.8
		c-0.8,3.8-1,6.8-0.5,9.1h3.4c0.7,3.7,3.1,5.5,7.1,5.5s7.2-1.8,9.5-5.5h-3.4c1.5-2.3,2.6-5.4,3.4-9.1c1.3-6.3,0.9-10.5-1.3-12.8
		H2037.5z"/>
</g>
</svg>
