<svg width="63" height="67" viewBox="0 0 63 67" fill="none" xmlns="http://www.w3.org/2000/svg">
<path d="M36.2528 30.9759C35.3592 29.0674 32.485 26.8445 30.6385 28.4148C27.9714 28.4281 26.4071 31.5974 26.5564 34.2457C26.7861 38.3178 31.1264 39.9379 34.4822 38.5299C37.4966 37.2649 37.466 33.5642 36.2528 30.9759ZM32.1739 37.6242C32.6023 37.5581 33.0303 37.4272 33.4448 37.2316C33.4914 37.2717 33.5409 37.3053 33.5906 37.3403C33.1354 37.5205 32.6555 37.6128 32.1739 37.6242Z" fill="white"/>
<path d="M44.9984 22.3022C45.0196 21.6325 44.982 20.9614 44.9368 20.3328C44.9079 19.9306 44.6319 19.5956 44.2185 19.5945C43.4205 19.592 40.8501 19.2724 39.9732 20.0293C39.7282 19.7529 39.202 19.8505 39.171 20.3332C39.0496 22.2161 38.9671 24.0975 38.9539 25.9846C38.9518 26.2796 39.1613 26.5978 39.4536 26.6593C39.8242 26.7369 40.2098 26.798 40.5968 26.8302C40.6229 26.8745 40.6546 26.9164 40.6935 26.9539C41.5921 27.8313 43.3568 27.1617 44.405 26.994C44.6336 26.9571 44.8421 26.7111 44.8947 26.4902C45.2179 25.1462 45.2931 23.6616 44.9984 22.3022Z" fill="white"/>
<path d="M45.8558 32.2673C45.8067 31.8504 45.4939 31.618 45.1709 31.5718C45.5833 31.1278 45.2036 30.1881 44.4648 30.3687C43.4292 30.6215 42.3681 30.6265 41.3245 30.4137C40.9403 30.3354 40.6695 30.5929 40.5943 30.8918C40.4677 31.0495 40.4047 31.2636 40.4705 31.5221C42.1259 38.0288 38.7391 43.3202 32.0422 43.4478C25.7538 43.5679 21.7291 38.6366 23.008 32.3642C23.0526 32.1461 23.0254 31.8547 22.8382 31.7041C22.8382 31.7041 22.8142 31.6812 22.7836 31.6526C22.9172 31.4134 22.9259 31.0992 22.6952 30.8353C22.6743 30.8117 22.6496 30.7938 22.627 30.7727C22.6757 30.6544 22.7136 30.5278 22.7265 30.3837C22.7519 30.1002 22.4759 29.861 22.2181 29.8613C21.9435 29.8617 21.719 29.9464 21.4987 30.0562C21.4382 30.0297 21.3738 30.0079 21.3011 29.9983C19.9383 29.8156 18.6858 30.2185 17.3286 30.3236C16.9663 30.3515 16.6566 30.6154 16.6587 31.0119C16.6712 33.105 16.6803 35.1981 16.6977 37.2912C16.6942 37.4292 16.7346 37.5365 16.7902 37.6283C16.8508 40.6285 17.7358 43.7814 18.9541 45.7647C21.4834 49.8822 27.4986 49.5529 31.6395 49.7936C35.1773 49.9988 42.7527 50.9899 44.8971 47.0909C47.0776 43.1267 46.3597 36.5943 45.8558 32.2673ZM41.9648 43.9891C41.954 43.9788 41.9442 43.9655 41.9324 43.9552C42.1182 43.2633 42.2783 42.5672 42.4078 41.8624C42.4422 41.7688 42.4774 41.6751 42.5129 41.5814C42.4976 41.7094 42.4784 41.8363 42.4614 41.9636C42.287 42.6365 42.1214 43.3119 41.9648 43.9891ZM40.5651 48.0166C40.8926 47.8414 41.2061 47.6275 41.4992 47.3662L41.5903 47.3973C41.6638 47.4223 41.7323 47.4309 41.7995 47.4316C41.8433 47.4952 41.899 47.5489 41.9613 47.5943C41.5065 47.8353 41.0043 48.0194 40.4694 48.1578C40.5077 48.1142 40.5411 48.0695 40.5651 48.0166ZM21.734 32.0038C21.6369 32.3559 21.5617 32.7028 21.498 33.046C21.4775 32.824 21.4517 32.6016 21.4197 32.3788C21.5481 32.2287 21.607 32.0166 21.5781 31.8203C21.6494 31.8393 21.7201 31.8607 21.7862 31.8893C21.7681 31.9265 21.7458 31.9605 21.734 32.0038ZM31.7098 48.3273C32.1894 48.2951 32.6696 48.2643 33.1495 48.2286C33.1502 48.2833 33.1527 48.3358 33.1627 48.3902C32.8694 48.3727 32.5885 48.358 32.3258 48.3476C32.1264 48.3391 31.9186 48.3333 31.7098 48.3273Z" fill="white"/>
<path d="M54.289 11.1921C50.8309 6.72134 46.1367 3.29639 40.8188 1.61949C35.367 -0.0999611 29.1353 0.692723 23.7503 2.28632C13.0388 5.45705 4.8322 14.2316 1.94899 25.2352C0.857657 29.3992 0.63772 33.5443 1.15624 37.5574C1.15624 37.5738 1.14998 37.5867 1.15102 37.6042C1.22341 38.5002 1.38314 39.3458 1.59751 40.1607C2.68189 45.2479 4.96653 50.0737 8.24576 54.3857C13.9106 61.8349 23.6626 68.127 33.1067 65.8477C33.1012 66.3225 33.4655 66.8009 34.0289 66.6089C45.3133 62.7677 55.6987 56.1456 60.2315 44.3544C64.5599 33.0987 61.4345 20.4294 54.289 11.1921ZM2.4355 37.0379C2.33945 36.1915 2.27925 35.3431 2.25872 34.4943C2.2702 34.579 2.28238 34.6637 2.29491 34.7485C2.34189 35.5415 2.42437 36.3256 2.52285 37.1036C2.49466 37.0804 2.46404 37.06 2.4355 37.0379ZM5.642 33.0608C5.60685 33.1878 5.57101 33.314 5.53447 33.4402C5.52438 33.1913 5.51359 32.9425 5.5115 32.6929C5.55744 32.5281 5.60233 32.3633 5.64722 32.1981C5.642 32.4855 5.63922 32.773 5.642 33.0608ZM30.4341 60.8759C29.9678 60.7805 29.5014 60.6857 29.0351 60.5924C29.5046 60.6339 29.9737 60.6865 30.4431 60.7344C30.4337 60.7819 30.4348 60.8291 30.4341 60.8759ZM48.9586 56.9097C49.2231 56.8013 49.4862 56.6841 49.7472 56.5586C49.5304 56.7388 49.3174 56.9236 49.0961 57.0992C49.0599 57.0291 49.0126 56.9654 48.9586 56.9097ZM33.0034 12.9134C33.2769 12.9255 33.5491 12.9445 33.8212 12.9659C33.8205 12.9681 33.8195 12.9699 33.8188 12.9716C33.2216 13.002 32.6255 13.0453 32.0311 13.1047C32.3558 13.0442 32.6794 12.9788 33.0034 12.9134ZM9.85075 47.9012C9.7119 47.4164 9.57478 46.9305 9.4321 46.4471C9.67014 47.0242 9.92035 47.5966 10.1775 48.1662C10.07 48.0775 9.96002 47.9896 9.85075 47.9012ZM11.3364 19.312C11.232 19.3893 11.1244 19.4622 11.0173 19.5359C10.972 19.499 10.9261 19.4636 10.8732 19.439C11.1133 19.2173 11.3454 18.9888 11.5789 18.7607C11.4926 18.9409 11.4133 19.1258 11.3364 19.312ZM12.7573 43.3911C12.7625 43.1458 12.7628 42.9009 12.7691 42.6553C12.7889 42.6907 12.8032 42.7282 12.8234 42.7629C12.8324 42.7783 12.8443 42.7862 12.8547 42.799C12.9118 43.2027 12.9835 43.6028 13.0663 43.9993C12.9619 43.7977 12.8606 43.5939 12.7573 43.3911ZM16.5394 48.3628C13.3708 44.9679 13.9509 38.964 14.2158 34.6891C14.482 30.3971 15.1463 25.9313 14.4868 21.6422C14.5631 21.4323 14.6622 21.2428 14.7579 21.0501C15.2298 20.5012 15.669 19.9277 16.0609 19.321C18.9232 16.7309 24.2494 16.6447 27.6528 16.5271C32.5023 16.3598 37.7087 15.8728 42.4799 16.885C48.2685 18.1132 49.3627 23.4693 49.2962 28.8125C49.2276 34.3419 49.4897 40.1253 48.0176 45.4935C46.1405 52.3366 39.1289 52.125 33.3698 52.0441C30.3593 52.002 27.3522 51.7477 24.3573 51.4478C21.433 51.1553 18.6507 50.6258 16.5394 48.3628ZM25.53 64.293C26.8361 64.484 28.1463 64.6449 29.46 64.7861C28.1258 64.74 26.8131 64.5751 25.53 64.293Z" fill="white"/>
</svg>
