<?xml version="1.0" encoding="utf-8"?>
<!-- Generator: Adobe Illustrator 22.0.1, SVG Export Plug-In . SVG Version: 6.00 Build 0)  -->
<svg version="1.1" id="Layer_1" xmlns="http://www.w3.org/2000/svg" xmlns:xlink="http://www.w3.org/1999/xlink" x="0px" y="0px"
	 viewBox="0 0 63 67" style="enable-background:new 0 0 63 67;" xml:space="preserve">
<style type="text/css">
	.st0{fill:#16E024;}
</style>
<path class="st0" d="M36.3,31c-0.9-1.9-3.8-4.1-5.6-2.6c-2.7,0-4.2,3.2-4.1,5.8c0.2,4.1,4.6,5.7,7.9,4.3
	C37.5,37.3,37.5,33.6,36.3,31z M32.2,37.6c0.4-0.1,0.9-0.2,1.3-0.4c0,0,0.1,0.1,0.1,0.1C33.1,37.5,32.7,37.6,32.2,37.6z"/>
<path class="st0" d="M45,22.3c0-0.7,0-1.3-0.1-2c0-0.4-0.3-0.7-0.7-0.7c-0.8,0-3.4-0.3-4.2,0.4c-0.2-0.3-0.8-0.2-0.8,0.3
	C39,22.2,39,24.1,39,26c0,0.3,0.2,0.6,0.5,0.7c0.4,0.1,0.8,0.1,1.1,0.2c0,0,0.1,0.1,0.1,0.1c0.9,0.9,2.7,0.2,3.7,0
	c0.2,0,0.4-0.3,0.5-0.5C45.2,25.1,45.3,23.7,45,22.3z"/>
<path class="st0" d="M45.9,32.3c0-0.4-0.4-0.6-0.7-0.7c0.4-0.4,0-1.4-0.7-1.2c-1,0.3-2.1,0.3-3.1,0c-0.4-0.1-0.7,0.2-0.7,0.5
	c-0.1,0.2-0.2,0.4-0.1,0.6c1.7,6.5-1.7,11.8-8.4,11.9c-6.3,0.1-10.3-4.8-9-11.1c0-0.2,0-0.5-0.2-0.7c0,0,0,0-0.1-0.1
	c0.1-0.2,0.1-0.6-0.1-0.8c0,0,0,0-0.1-0.1c0-0.1,0.1-0.2,0.1-0.4c0-0.3-0.3-0.5-0.5-0.5c-0.3,0-0.5,0.1-0.7,0.2
	c-0.1,0-0.1,0-0.2-0.1c-1.4-0.2-2.6,0.2-4,0.3c-0.4,0-0.7,0.3-0.7,0.7c0,2.1,0,4.2,0,6.3c0,0.1,0,0.2,0.1,0.3c0.1,3,0.9,6.2,2.2,8.1
	c2.5,4.1,8.5,3.8,12.7,4c3.5,0.2,11.1,1.2,13.3-2.7C47.1,43.1,46.4,36.6,45.9,32.3z M42,44C42,44,41.9,44,42,44
	c0.2-0.7,0.3-1.4,0.4-2.1c0-0.1,0.1-0.2,0.1-0.3c0,0.1,0,0.3-0.1,0.4C42.3,42.6,42.1,43.3,42,44z M40.6,48c0.3-0.2,0.6-0.4,0.9-0.7
	l0.1,0c0.1,0,0.1,0,0.2,0c0,0.1,0.1,0.1,0.2,0.2c-0.5,0.2-1,0.4-1.5,0.6C40.5,48.1,40.5,48.1,40.6,48z M21.7,32
	c-0.1,0.4-0.2,0.7-0.2,1c0-0.2,0-0.4-0.1-0.7c0.1-0.2,0.2-0.4,0.2-0.6c0.1,0,0.1,0,0.2,0.1C21.8,31.9,21.7,32,21.7,32z M31.7,48.3
	c0.5,0,1-0.1,1.4-0.1c0,0.1,0,0.1,0,0.2c-0.3,0-0.6,0-0.8,0C32.1,48.3,31.9,48.3,31.7,48.3z"/>
<path class="st0" d="M54.3,11.2c-3.5-4.5-8.2-7.9-13.5-9.6c-5.5-1.7-11.7-0.9-17.1,0.7C13,5.5,4.8,14.2,1.9,25.2
	c-1.1,4.2-1.3,8.3-0.8,12.3c0,0,0,0,0,0c0.1,0.9,0.2,1.7,0.4,2.6c1.1,5.1,3.4,9.9,6.6,14.2c5.7,7.4,15.4,13.7,24.9,11.5
	c0,0.5,0.4,1,0.9,0.8c11.3-3.8,21.7-10.5,26.2-22.3C64.6,33.1,61.4,20.4,54.3,11.2z M2.4,37c-0.1-0.8-0.2-1.7-0.2-2.5
	c0,0.1,0,0.2,0,0.3C2.3,35.5,2.4,36.3,2.4,37C2.5,37.1,2.5,37.1,2.4,37z M5.6,33.1c0,0.1-0.1,0.3-0.1,0.4c0-0.2,0-0.5,0-0.7
	c0-0.2,0.1-0.3,0.1-0.5C5.6,32.5,5.6,32.8,5.6,33.1z M30.4,60.9c-0.5-0.1-0.9-0.2-1.4-0.3c0.5,0,0.9,0.1,1.4,0.1
	C30.4,60.8,30.4,60.8,30.4,60.9z M49,56.9c0.3-0.1,0.5-0.2,0.8-0.4c-0.2,0.2-0.4,0.4-0.7,0.5C49.1,57,49,57,49,56.9z M33,12.9
	c0.3,0,0.5,0,0.8,0.1c0,0,0,0,0,0c-0.6,0-1.2,0.1-1.8,0.1C32.4,13,32.7,13,33,12.9z M9.9,47.9c-0.1-0.5-0.3-1-0.4-1.5
	c0.2,0.6,0.5,1.1,0.7,1.7C10.1,48.1,10,48,9.9,47.9z M11.3,19.3c-0.1,0.1-0.2,0.2-0.3,0.2c0,0-0.1-0.1-0.1-0.1
	c0.2-0.2,0.5-0.5,0.7-0.7C11.5,18.9,11.4,19.1,11.3,19.3z M12.8,43.4c0-0.2,0-0.5,0-0.7c0,0,0,0.1,0.1,0.1c0,0,0,0,0,0
	c0.1,0.4,0.1,0.8,0.2,1.2C13,43.8,12.9,43.6,12.8,43.4z M16.5,48.4C13.4,45,14,39,14.2,34.7c0.3-4.3,0.9-8.8,0.3-13
	c0.1-0.2,0.2-0.4,0.3-0.6c0.5-0.5,0.9-1.1,1.3-1.7c2.9-2.6,8.2-2.7,11.6-2.8c4.8-0.2,10.1-0.7,14.8,0.4c5.8,1.2,6.9,6.6,6.8,11.9
	c-0.1,5.5,0.2,11.3-1.3,16.7c-1.9,6.8-8.9,6.6-14.6,6.6c-3,0-6-0.3-9-0.6C21.4,51.2,18.7,50.6,16.5,48.4z M25.5,64.3
	c1.3,0.2,2.6,0.4,3.9,0.5C28.1,64.7,26.8,64.6,25.5,64.3z"/>
</svg>
