<?xml version="1.0" encoding="utf-8"?>
<!-- Generator: Adobe Illustrator 21.0.2, SVG Export Plug-In . SVG Version: 6.00 Build 0)  -->
<svg version="1.1" id="Layer_1" xmlns="http://www.w3.org/2000/svg" xmlns:xlink="http://www.w3.org/1999/xlink" x="0px" y="0px"
	 viewBox="0 0 386 95" style="enable-background:new 0 0 386 95;" xml:space="preserve">
<style type="text/css">
	.st0{display:none;}
	.st1{display:inline;fill:#722D15;}
	.st2{fill:#FFFFFF;}
	.st3{display:inline;fill:#6DBE45;stroke:#FFFFFF;stroke-width:0.25;stroke-miterlimit:10;}
	.st4{display:inline;stroke:#FFFFFF;stroke-width:0.25;stroke-miterlimit:10;}
	.st5{display:inline;fill:#FFFFFF;stroke:#FFFFFF;stroke-width:0.25;stroke-miterlimit:10;}
	.st6{display:inline;fill:#FFFFFF;stroke:#FFFFFF;stroke-miterlimit:10;}
</style>
<g id="Layer_7" class="st0">
	<rect x="-65.5" y="60.1" class="st1" width="1258.4" height="618"/>
</g>
<g id="Layer_1_1_">
	<g>
		<path class="st2" d="M60.8,60.2h4.9c-4.3,1.3-9.2,2-14.8,2h-9.8l-4.2,19.5H12.6l4.6-21.5h-4.9l5.5-25.7h4.9l4.5-21.1h34.2
			c18.2,0,26.4,7,24.7,21.1h-4.9c-0.1,1.1-0.3,2.2-0.6,3.3C78.1,49.3,71.5,56.8,60.8,60.2z M42.2,34.3l-1.8,8.3h9.8
			c3.3,0,5.2-1.6,5.9-4.9c0.3-1.4,0.3-2.5-0.2-3.3h4.9c-0.6-1-1.8-1.6-3.6-1.6h-9.8l-0.3,1.6h-4.9V34.3z"/>
		<path class="st2" d="M134.9,60.2h4.9l4.6,21.5H120l-4.2-19.5h-6.3l-4.1,19.5H81l4.6-21.5h-4.9l5.4-25.4H91l4.5-21.4h34.2
			c18.3,0,26.5,7.1,24.6,21.4h-4.9c-0.1,1-0.3,2-0.5,3c-2,9.6-6.8,16.3-14.5,20.3L134.9,60.2z M110.5,34.7l-1.7,7.9h9.8
			c3.3,0,5.2-1.6,5.9-4.9c0.3-1.2,0.2-2.2,0-3h4.9c-0.5-1.2-1.7-1.9-3.8-1.9h-9.8l-0.4,1.9H110.5z"/>
		<path class="st2" d="M158.8,39.8c6.2-17.6,19.3-26.5,39.3-26.5c20.1,0,29.4,8.8,28.1,26.5h-4.9c-0.2,2.4-0.6,5-1.2,7.7
			c-0.9,4.3-2.1,8.1-3.7,11.6h4.9c-6.7,15.1-19.3,22.6-37.8,22.6s-27.9-7.5-28.2-22.6h-4.9c-0.1-3.5,0.4-7.3,1.3-11.6
			c0.6-2.7,1.3-5.3,2.1-7.7C153.8,39.8,158.8,39.8,158.8,39.8z M201.2,39.8c-0.4-4.6-2.8-6.9-7.3-6.9s-7.9,2.3-10.3,6.9h-4.9
			c-1.1,2.1-1.9,4.7-2.6,7.7c-1.1,5.3-1,9.2,0.4,11.6h4.9c1.2,2.1,3.3,3.1,6.2,3.1c3,0,5.5-1,7.6-3.1h-4.9c2.4-2.4,4.2-6.3,5.3-11.6
			c0.7-3.1,0.9-5.6,0.7-7.7C196.3,39.8,201.2,39.8,201.2,39.8z"/>
		<path class="st2" d="M243.5,35L234,13.4h29.7l4.6,14.6L280,13.4h29.7L290,35h-5.4l-11.4,12.5l5.9,13.5h5.4l9.1,20.8h-29.7
			l-4.7-14.6l-11.8,14.5h-29.5l18.9-20.8h-5.4l12.2-13.4L238.1,35C238.1,35,243.5,35,243.5,35z"/>
		<path class="st2" d="M317.9,35.5l-7.5-22.1h26.9l4.2,14.6L352,13.4h26.8l-17,22.2h-4.9l-13.5,17.3l-1.5,7h4.9l-4.6,21.8h-24.4
			l4.6-21.8h-4.9l1.5-7l-6-17.4C313,35.4,317.9,35.4,317.9,35.5z"/>
	</g>
</g>
<g id="P" class="st0">
	<path class="st3" d="M102.1,185.5h36.4c14.8,0.6,24.2,6,22.4,21.1H156c-0.5,3.7-1.4,7.2-2.9,10.7c-3.5,7.7-9.3,12.6-17.3,15.1h4.9
		c-6.8,2-15.3,2.1-24.6,2l-4.1,19.5H87.5l4.6-21.6h-5l5.5-25.8l4.9,0.1L102.1,185.5z"/>
	<path class="st4" d="M130.9,206.6h4.9c-0.5-1-1.7-1.5-3.3-1.6h-10.1l-0.3,1.6h-4.9l-1.8,8.2h10.1c2.4-0.1,3.9-1.1,4.8-2.8
		C131.6,209.4,131.5,207.7,130.9,206.6z"/>
</g>
<g id="R" class="st0">
	<path class="st5" d="M195,253.9l-4.2-19.5h-6.3l-4.1,19.5h-24.5l4.6-21.5h-4.9L161,207h4.9l4.5-21.4h35.7
		c13.9,0.6,25.1,4.8,23.1,21.4h-4.9c-1.7,12.2-7.3,19-15,23.3l0.5,2.2h4.9l4.6,21.5"/>
	<path class="st4" d="M190.3,206.9l0.4-1.9h9.9c1.7,0.1,3.1,0.6,3.6,1.9h-4.9c0.6,2.2,0.1,4.2-1.6,6.4c-1.4,1.3-2.8,1.4-3.9,1.5
		h-10.2l1.8-7.9H190.3z"/>
</g>
<g id="O" class="st0">
	<path class="st5" d="M296.2,212h4.9c0.9-9.6-1.7-16.8-8-21.5c-10.3-7.2-31.5-6.3-42.2,0c-8.3,4.5-13.7,11.9-17,21.5H229
		c-2.1,6.1-3.5,12.5-3.4,19.3h4.9c0.4,9.3,3.3,15.1,9.8,18.7c8.5,4.8,24.4,5.7,37.2,0.5c8.8-3.5,14.9-10.1,19-19.2h-4.9
		C294,224.9,295.7,218.5,296.2,212z"/>
	<path class="st4" d="M271.3,211.9h4.8c0.1,0-0.4-2.2-0.5-2.4c-0.2-0.7-0.5-1.3-0.9-1.9c-2.7-3.7-8.6-3.1-11.9-0.8
		c-1.8,1.2-3.1,3-4.2,5.1h-5c-3.3,8.3-4.3,15.1-2.1,19.3h4.9c2.4,4.6,10.7,3.7,13.8,0l-5,0.1C269.4,227,271.2,220.3,271.3,211.9z"/>
</g>
<g id="X" class="st0">
	<polygon class="st5" points="338.7,185.5 308.9,185.5 318.4,207.1 313,207.1 318.5,219.7 306.3,233.1 311.7,233.1 292.9,253.9 
		322.3,253.9 334.1,239.2 338.9,253.9 368.6,253.9 359.5,233.1 354.1,233.1 348.1,219.6 359.5,207.2 364.9,207.2 384.7,185.5 
		355,185.5 343.3,200.2 	"/>
</g>
<g id="Y" class="st0">
	<polygon class="st6" points="385.3,185.5 392.9,207.7 388,207.7 394,225.1 392.5,232 397.4,232 392.7,253.9 417.1,253.9 421.8,232 
		416.9,232.1 418.4,225.1 431.7,207.7 436.6,207.7 453.6,185.5 426.9,185.5 416.2,200.1 412.1,185.5 	"/>
</g>
</svg>
