<?xml version="1.0" encoding="utf-8"?>
<!-- Generator: Adobe Illustrator 21.0.2, SVG Export Plug-In . SVG Version: 6.00 Build 0)  -->
<svg version="1.1" id="Layer_1" xmlns="http://www.w3.org/2000/svg" xmlns:xlink="http://www.w3.org/1999/xlink" x="0px" y="0px"
	 viewBox="0 0 209.6 41.5" style="enable-background:new 0 0 209.6 41.5;" xml:space="preserve">
<style type="text/css">
	.st0{fill:#FFFFFF;}
</style>
<g>
	<path class="st0" d="M3.9,4.8h18.2v2.9h-7.5v23h-3.1v-23H3.9V4.8z"/>
	<path class="st0" d="M30.4,30.7h-2.9V4.8h2.9v10.9h0.4c0.6-1.2,1.4-2.1,2.4-2.8c1-0.7,2.3-1,3.8-1c2,0,3.6,0.7,4.9,2
		c1.2,1.3,1.9,3.3,1.9,5.9v11h-2.9V20.3c0-1.9-0.4-3.4-1.3-4.3c-0.9-1-2-1.4-3.5-1.4c-1.8,0-3.1,0.6-4.1,1.8c-1,1.2-1.5,2.8-1.5,4.8
		V30.7z"/>
	<path class="st0" d="M52.3,22.4c0.1,1.8,0.6,3.3,1.7,4.4c1.1,1.1,2.5,1.7,4.4,1.7c0.9,0,1.6-0.1,2.3-0.3c0.6-0.2,1.2-0.5,1.6-0.8
		c0.5-0.3,0.8-0.7,1.1-1.2c0.3-0.5,0.5-0.9,0.7-1.5l2.7,0.7c-0.5,1.7-1.5,3.1-2.9,4.2c-1.4,1.1-3.3,1.6-5.6,1.6
		c-1.3,0-2.5-0.2-3.6-0.7c-1.1-0.5-2-1.1-2.8-1.9c-0.8-0.8-1.4-1.8-1.9-3c-0.4-1.2-0.7-2.4-0.7-3.8v-0.9c0-1.3,0.2-2.5,0.7-3.6
		c0.5-1.1,1.1-2.1,1.9-2.9c0.8-0.8,1.8-1.4,2.9-1.9c1.1-0.5,2.3-0.7,3.6-0.7c1.5,0,2.8,0.3,3.9,0.8c1.1,0.6,2,1.2,2.7,2.1
		c0.7,0.8,1.2,1.7,1.6,2.7c0.3,1,0.5,1.8,0.5,2.7v2.4H52.3z M58.5,14.6c-0.8,0-1.6,0.1-2.3,0.4c-0.7,0.3-1.3,0.6-1.8,1.1
		c-0.5,0.5-1,1-1.3,1.6s-0.5,1.3-0.6,2.1h11.8c0-0.8-0.2-1.5-0.6-2.1c-0.3-0.6-0.8-1.2-1.3-1.6c-0.5-0.4-1.1-0.8-1.8-1
		C59.9,14.7,59.2,14.6,58.5,14.6z"/>
	<path class="st0" d="M111.9,30.7h-5.7l-2.4-24.6h-0.4L101,30.7h-5.7L92.7,4.8h2.8L98,29.4h0.4l2.3-24.6h5.7l2.3,24.6h0.4l2.5-24.6
		h2.8L111.9,30.7z"/>
	<path class="st0" d="M117.1,12.3h6.7v2.4h0.4c0.5-1,1.1-1.8,2-2.2c0.9-0.5,1.8-0.7,3-0.7c1.9,0,3.3,0.6,4.5,1.8
		c1.1,1.2,1.7,3,1.8,5.3l-3,0.4c0-1.7-0.4-2.9-1.2-3.7c-0.8-0.8-1.8-1.1-3-1.1c-0.8,0-1.4,0.1-2,0.4c-0.6,0.3-1,0.7-1.4,1.2
		c-0.4,0.5-0.6,1.1-0.8,1.8c-0.2,0.7-0.3,1.4-0.3,2.2V28h4.7v2.7h-11.8V28h4.2V15h-3.8V12.3z"/>
	<path class="st0" d="M158.1,21.7c0,1.5-0.3,2.9-0.8,4.1c-0.5,1.2-1.2,2.2-2,3c-0.8,0.8-1.8,1.4-2.9,1.8c-1.1,0.4-2.3,0.6-3.5,0.6
		c-1.2,0-2.4-0.2-3.5-0.6c-1.1-0.4-2.1-1-2.9-1.8c-0.8-0.8-1.5-1.8-2-3c-0.5-1.2-0.8-2.5-0.8-4.1v-0.4c0-1.5,0.3-2.8,0.8-4
		c0.5-1.2,1.2-2.2,2-3s1.8-1.4,2.9-1.9c1.1-0.4,2.3-0.6,3.5-0.6s2.4,0.2,3.5,0.6c1.1,0.4,2.1,1,2.9,1.9c0.9,0.8,1.5,1.8,2,3
		c0.5,1.2,0.8,2.5,0.8,4V21.7z M148.9,28.5c0.9,0,1.7-0.2,2.5-0.5c0.8-0.3,1.4-0.8,2-1.4c0.6-0.6,1-1.3,1.3-2.1
		c0.3-0.8,0.5-1.8,0.5-2.8v-0.4c0-1-0.2-1.9-0.5-2.7c-0.3-0.8-0.8-1.5-1.3-2.1c-0.6-0.6-1.2-1.1-2-1.4c-0.8-0.3-1.6-0.5-2.4-0.5
		s-1.7,0.2-2.4,0.5c-0.8,0.3-1.4,0.8-2,1.4c-0.6,0.6-1,1.3-1.3,2.1c-0.3,0.8-0.5,1.7-0.5,2.7v0.4c0,1,0.2,2,0.5,2.8
		c0.3,0.8,0.8,1.5,1.3,2.1c0.6,0.6,1.2,1,2,1.4C147.2,28.3,148,28.5,148.9,28.5z"/>
	<path class="st0" d="M166.3,30.7h-2.9V12.3h2.9v3.1h0.4c1.1-2.4,3.1-3.6,5.9-3.6c2.1,0,3.8,0.7,5.1,2c1.3,1.3,1.9,3.3,1.9,5.9v11
		h-2.9V20.3c0-1.9-0.4-3.4-1.3-4.3c-0.9-1-2-1.4-3.5-1.4c-1.8,0-3.1,0.6-4.1,1.8c-1,1.2-1.5,2.8-1.5,4.8V30.7z"/>
	<path class="st0" d="M200,27.9h-0.4c-0.6,1.1-1.4,1.9-2.4,2.5s-2.1,0.8-3.3,0.8c-1.2,0-2.4-0.2-3.5-0.6c-1.1-0.4-2-1-2.9-1.8
		c-0.8-0.8-1.5-1.8-2-2.9c-0.5-1.2-0.7-2.5-0.7-4v-0.6c0-1.5,0.2-2.8,0.7-4c0.5-1.2,1.1-2.2,2-3c0.8-0.8,1.8-1.4,2.8-1.8
		c1.1-0.4,2.2-0.6,3.4-0.6c1.3,0,2.5,0.3,3.5,0.9c1,0.6,1.8,1.4,2.3,2.5h0.4v-2.9h2.9v22.9c0,0.8-0.3,1.5-0.8,2.1
		c-0.5,0.5-1.2,0.8-2.1,0.8h-12v-2.7H199c0.7,0,1-0.4,1-1.1V27.9z M193.9,28.5c0.9,0,1.7-0.2,2.4-0.5c0.7-0.3,1.4-0.8,1.9-1.4
		c0.6-0.6,1-1.3,1.3-2.1c0.3-0.8,0.5-1.7,0.5-2.8v-0.4c0-1-0.2-1.9-0.5-2.7c-0.3-0.8-0.8-1.5-1.3-2.1c-0.6-0.6-1.2-1.1-2-1.4
		c-0.8-0.3-1.5-0.5-2.4-0.5c-0.9,0-1.7,0.2-2.4,0.5c-0.8,0.3-1.4,0.8-2,1.4c-0.6,0.6-1,1.3-1.3,2.1c-0.3,0.8-0.5,1.7-0.5,2.7v0.6
		c0,1,0.2,2,0.5,2.8c0.3,0.8,0.7,1.5,1.3,2.1c0.6,0.6,1.2,1,1.9,1.3C192.2,28.3,193,28.5,193.9,28.5z"/>
</g>
</svg>
