<?xml version="1.0" encoding="utf-8"?>
<!-- Generator: Adobe Illustrator 21.0.2, SVG Export Plug-In . SVG Version: 6.00 Build 0)  -->
<svg version="1.1" id="Capa_1" xmlns="http://www.w3.org/2000/svg" xmlns:xlink="http://www.w3.org/1999/xlink" x="0px" y="0px"
	 viewBox="0 0 1035.4 288" style="enable-background:new 0 0 1035.4 288;" xml:space="preserve">
<style type="text/css">
	.st0{fill:#FFFFFF;}
	.st1{fill:none;}
	.st2{font-family:'MyriadPro-Regular';}
	.st3{font-size:23.0576px;}
	.st4{font-family:'MyriadPro-Bold';}
	.st5{font-size:26.9915px;}
</style>
<path class="st0" d="M706,156.2c-24.1,0-43.6-19.6-43.6-43.6C662.4,88.5,682,69,706,69c16.4,0,31.3,9.1,38.8,23.7
	c1.4,2.6,0.3,5.9-2.3,7.2c-2.6,1.4-5.9,0.3-7.2-2.3c-5.7-11-16.9-17.8-29.2-17.8c-18.1,0-32.9,14.7-32.9,32.9
	c0,18.1,14.8,32.9,32.9,32.9c12.6,0,24.2-7.3,29.7-18.7c1.3-2.7,4.5-3.8,7.2-2.5s3.8,4.5,2.5,7.2C738.1,146.5,722.7,156.2,706,156.2
	"/>
<path class="st0" d="M751.4,146.1c0,3,2.4,5.5,5.4,5.5h67.7c3,0,5.4-2.6,5.4-5.6s-2.4-5.6-5.4-5.6H765c-1.6,0-2.9-1.2-2.9-2.9H762
	v-16.8c0-1.7,1.5-3.2,3.2-3.2h24.7c3,0,5.4-2.3,5.4-5.3s-2.4-5.3-5.4-5.3h-25c-1.6-0.6-2.8-1.8-2.8-3.5H762V86.7
	c0-1.8,1.6-3.4,3.4-3.4h59.1c3,0,5.4-2.3,5.4-5.3s-2.4-5.3-5.4-5.3h-67.7c-3,0-5.4,2.5-5.4,5.4L751.4,146.1L751.4,146.1z"/>
<path class="st0" d="M942.7,143.7L908.9,76c-0.9-1.8-2.8-3-4.8-3s-3.9,1.2-4.8,3L886,102.7c-1.7,3.6-4.3,4.1-5.8,4.1h-73.4
	c-3,0-5.4,2.3-5.4,5.3s2.4,5.3,5.4,5.3h34c1.7,0,2.6,1.5,2.6,3.2v59.3c0,3,2.6,5.4,5.6,5.4s5.6-2.4,5.6-5.4v-59.3l0,0
	c0-1.7,1.3-3.2,3-3.2h17.2c1.3,0,2.4,1,2.4,2.3c0,0.3-0.2,0.9-0.4,1.4l-11.3,22.5c-1.3,2.7-0.3,5.9,2.4,7.2s5.7,0.3,7.1-2.4
	l13.2-26.7l0,0c0-0.1,0.2-0.1,0.2-0.2l0.2-0.4c1.2-2.3,3.1-3.8,6.3-3.8h8.7c3,0,5.4-2.3,5.4-5.3s-2.4-5.3-5.4-5.3h-2.4
	c-3.1,0-4.4-1.3-3.3-3.9v-0.1c0,0,5.8-11.6,5.9-11.7c0.2-0.4,0.5-0.4,0.7,0c0,0.1,28.7,57.4,28.7,57.4c0.9,1.9,2.8,3,4.8,3
	c0.8,0,1.6-0.2,2.4-0.6C943,149.6,944.1,146.4,942.7,143.7"/>
<path class="st0" d="M992.2,72.6c-2.7-1.3-5.9-0.3-7.2,2.4c0,0-28.5,57-28.7,57.4s-0.5,0.4-0.7,0C955.4,132,926.9,75,926.9,75
	c-1.3-2.7-4.6-3.7-7.2-2.4c-2.7,1.3-3.7,4.6-2.4,7.2l33.8,67.7c0.9,1.8,2.8,3,4.8,3s3.9-1.2,4.8-3l33.8-67.7
	C995.9,77.1,994.8,73.9,992.2,72.6"/>
<path class="st0" d="M870.9,160.4c-1.3,0-2.3,0.5-3.1,1.4s-1.1,2.2-1.1,3.8c0,1.7,0.4,3,1.1,3.9c0.7,0.9,1.8,1.3,3.1,1.3
	c0.6,0,1-0.1,1.5-0.2c0.5-0.1,0.9-0.3,1.5-0.5v1.9c-0.6,0.4-2.1,0.6-3.5,0.6c-2,0-3.5-0.6-4.6-1.8s-1.6-3-1.6-5.3
	c0-1.4,0.3-2.7,0.8-3.8s1.3-1.9,2.3-2.5s2.2-0.9,3.5-0.9c1.4,0,2.7,0.3,3.9,0.9l-0.8,1.9c-0.5-0.2-1-0.4-1.5-0.6
	C872,160.5,871.5,160.4,870.9,160.4"/>
<path class="st0" d="M881.3,172.7c-1.6,0-2.9-0.5-3.8-1.4c-0.9-1-1.4-2.3-1.4-3.9c0-1.7,0.4-3.1,1.3-4c0.9-1,2-1.5,3.5-1.5
	c1.4,0,2.4,0.4,3.2,1.3c0.8,0.8,1.1,2,1.1,3.5v0.9h-6.8c0,1.2,0.3,1.9,0.8,2.5c0.5,0.5,1.2,0.9,2.2,0.9c0.6,0,1.1,0,1.6-0.1
	s1-0.3,1.6-0.6v1.8c-0.6,0.3-1,0.4-1.5,0.6C882.5,172.7,882,172.7,881.3,172.7 M880.9,163.6c-0.7,0-1.3,0.3-1.7,0.8
	s-0.7,0.9-0.8,2.1h4.8c0-1.2-0.2-1.6-0.6-2.1C882.1,163.9,881.6,163.6,880.9,163.6"/>
<path class="st0" d="M896.9,172.3h-2.4v-6.2c0-0.8,0-1.4-0.3-1.8c-0.3-0.4-0.8-0.6-1.5-0.6c-0.9,0-1.7,0.3-2.2,0.8
	c-0.4,0.6-0.7,1.5-0.7,2.8v4.9h-2.4v-10h2.1l0.3,1.2h0.1c0.3-0.6,0.8-0.9,1.3-1.2c0.6-0.3,1.1-0.4,1.8-0.4c2.5,0,3.7,1.3,3.7,3.8
	v6.7H896.9z"/>
<path class="st0" d="M904.1,170.9c0.5,0,1.1-0.1,1.6-0.3v1.7c-0.6,0.1-0.6,0.2-1,0.3s-0.8,0.1-1.2,0.1c-2.1,0-3.1-1.1-3.1-3.3V164
	h-1.8v-1.2l1.7-0.7l0.9-2.1h1v2.4h3.5v1.8h-3.5v5.4c0,0.5,0.3,0.9,0.6,1.2C903.1,170.8,903.7,170.9,904.1,170.9"/>
<path class="st0" d="M913.8,161.9c0.4,0,0.8,0,1.1,0.1l-0.2,2.1c-0.3-0.1-0.6-0.1-1-0.1c-0.9,0-1.7,0.3-2.3,0.9
	c-0.6,0.6-0.9,1.3-0.9,2.3v5.2h-2.4v-10h2l0.3,1.8h0.1c0.3-0.6,0.8-1.2,1.4-1.5C912.5,162.1,913.1,161.9,913.8,161.9"/>
<path class="st0" d="M925.5,167.3c0,1.7-0.4,3.1-1.3,4c-0.9,1-2.1,1.4-3.7,1.4c-1,0-1.8-0.2-2.6-0.7c-0.8-0.4-1.3-1.1-1.7-1.9
	c-0.4-0.8-0.6-1.8-0.6-2.9c0-1.7,0.4-3,1.3-4c0.9-1,2.1-1.4,3.7-1.4c1.5,0,2.7,0.5,3.6,1.5C925.1,164.3,925.5,165.6,925.5,167.3
	 M917.9,167.3c0,2.4,0.9,3.6,2.7,3.6s2.7-1.2,2.7-3.6c0-2.4-0.9-3.6-2.7-3.6c-0.9,0-1.6,0.3-2,0.9
	C918.1,165.2,917.9,166.1,917.9,167.3"/>
<path class="st0" d="M935.8,172.7c-1.3,0-2.3-0.5-3.1-1.4c-0.7-0.9-1.1-2.3-1.1-4s0.4-3.1,1.1-4c0.7-1,1.8-1.4,3.1-1.4
	c1.4,0,2.4,0.4,3.1,1.5h0.1c-0.1-0.6,0.3-1.4,0.3-1.8v-4.1h1.8v14.7h-1.7L939,171h-0.1C938.2,172.3,937.2,172.7,935.8,172.7
	 M936.4,170.9c0.9,0,1.7-0.3,2.2-0.8c0.4-0.5,0.8-1.3,0.8-2.5v-0.3c0-1.3-0.4-2.3-0.8-2.8c-0.4-0.6-1.2-0.8-2.1-0.8
	c-0.8,0-1.4,0.3-1.8,1c-0.4,0.6-0.7,1.5-0.7,2.7s0.2,2.1,0.6,2.7C935,170.6,935.6,170.9,936.4,170.9"/>
<path class="st0" d="M948.4,172.7c-1.6,0-2.9-0.5-3.8-1.4c-0.9-1-1.4-2.3-1.4-3.9c0-1.7,0.4-3.1,1.3-4c0.9-1,2-1.5,3.5-1.5
	c1.4,0,2.4,0.4,3.2,1.3c0.8,0.8,1.2,2,1.2,3.5v0.9h-6.9c0,1.2,0.3,1.9,0.8,2.5c0.5,0.5,1.2,0.9,2.2,0.9c0.6,0,1.4,0,1.9-0.1
	s0.8-0.3,1.9-0.6v1.8c-0.6,0.3-1.3,0.4-1.9,0.6C949.9,172.7,949.1,172.7,948.4,172.7 M948,163.6c-0.7,0-1.3,0.3-1.7,0.8
	s-0.7,0.9-0.8,2.1h4.8c0-1.2-0.2-1.6-0.6-2.1C949.2,163.9,948.7,163.6,948,163.6"/>
<polygon class="st0" points="871,192.9 868.7,192.9 868.7,180.5 864.5,180.5 864.5,178.7 875.1,178.7 875.1,180.5 871,180.5 "/>
<path class="st0" d="M879.8,192.9c-1.6,0-2.9-0.5-3.8-1.4c-0.9-1-1.4-2.3-1.4-3.9c0-1.7,0.4-3.1,1.3-4c0.9-1,2-1.5,3.5-1.5
	c1.4,0,2.3,0.4,3.1,1.3c0.8,0.8,1,2,1,3.5v1.5H877c0,0.6,0.3,1.7,0.8,2.2s1.3,0.8,2.2,0.8c0.6,0,1.2-0.1,1.8-0.2
	c0.5-0.1,1.2-0.3,1.8-0.6v1.8c-0.6,0.3-1.1,0.4-1.7,0.6C881.1,192.8,880.5,192.9,879.8,192.9 M879.3,183.7c-0.7,0-1.3,0.3-1.7,0.7
	s-0.7,0.8-0.8,2h4.8c0-1.2-0.2-1.6-0.6-2C880.6,183.9,880.1,183.7,879.3,183.7"/>
<path class="st0" d="M890.6,192.9c-1.6,0-2.8-0.5-3.6-1.4s-1.2-2.3-1.2-4c0-1.8,0.4-3.1,1.3-4.1c0.9-0.9,2.1-1.4,3.7-1.4
	c1.1,0,2.1,0.2,3,0.6l-0.7,1.8c-0.9-0.4-1.7-0.5-2.3-0.5c-1.8,0-2.7,1.2-2.7,3.6c0,1.2,0.2,2.1,0.7,2.7c0.5,0.6,1.1,0.9,1.9,0.9
	c1,0,1.6-0.2,2.8-0.7v1.9c-0.6,0.2-0.8,0.4-1.2,0.5C891.7,192.8,891.2,192.9,890.6,192.9"/>
<path class="st0" d="M905.8,192.9h-2.4v-6.7c0-0.8-0.1-1.4-0.4-1.8c-0.3-0.4-0.8-0.6-1.5-0.6c-0.9,0-1.7,0.3-2.1,0.8
	c-0.4,0.6-0.7,1.5-0.7,2.8v5.4h-2.4v-10.6h2l0.3,1.2h0.1c0.3-0.6,0.8-0.8,1.3-1.1c0.6-0.3,1.2-0.4,1.9-0.4c2.5,0,3.8,1.3,3.8,3.9
	v7.1H905.8z"/>
<path class="st0" d="M918.2,187.4c0,1.7-0.4,3.1-1.3,4c-0.9,1-2.1,1.4-3.7,1.4c-1,0-1.8-0.2-2.6-0.7c-0.8-0.4-1.3-1.1-1.7-1.9
	c-0.4-0.8-0.6-1.8-0.6-2.9c0-1.7,0.4-3,1.3-4c0.9-1,2.1-1.4,3.7-1.4c1.5,0,2.7,0.5,3.6,1.5C917.8,184.4,918.2,185.7,918.2,187.4
	 M910.6,187.4c0,2.4,0.9,3.6,2.7,3.6s2.7-1.2,2.7-3.6c0-2.4-0.9-3.6-2.7-3.6c-0.9,0-1.6,0.3-2,0.9
	C910.8,185.4,910.6,186.2,910.6,187.4"/>
<rect x="920.5" y="178.2" class="st0" width="2.4" height="14.7"/>
<path class="st0" d="M935.5,187.4c0,1.7-0.4,3.1-1.3,4c-0.9,1-2.1,1.4-3.7,1.4c-1,0-1.8-0.2-2.6-0.7c-0.8-0.4-1.3-1.1-1.7-1.9
	c-0.4-0.8-0.6-1.8-0.6-2.9c0-1.7,0.4-3,1.3-4c0.9-1,2.1-1.4,3.7-1.4c1.5,0,2.7,0.5,3.6,1.5C935,184.4,935.5,185.7,935.5,187.4
	 M927.9,187.4c0,2.4,0.9,3.6,2.7,3.6s2.7-1.2,2.7-3.6c0-2.4-0.9-3.6-2.7-3.6c-0.9,0-1.6,0.3-2,0.9
	C928.1,185.4,927.9,186.2,927.9,187.4"/>
<path class="st0" d="M947.6,182.3v1.1l-1.9,0.3c0.2,0.2,0.3,0.5,0.4,0.8c0.1,0.3,0.1,0.7,0.1,1c0,1.1-0.4,1.9-1.1,2.6
	c-0.7,0.6-1.8,0.9-3.1,0.9c-0.3,0-0.6,0-0.9-0.1c-0.5,0.3-0.7,0.6-0.7,1c0,0.2,0.1,0.3,0.3,0.4c0.2,0.1,0.6,0.1,1.2,0.1h1.8
	c1.2,0,2,0.4,2.6,0.8c0.6,0.5,0.9,1.3,0.9,2.2c0,1.2-0.5,2.1-1.5,2.8c-1,0.6-2.4,1-4.2,1c-1.4,0-2.5-0.2-3.3-0.8
	c-0.8-0.5-1.1-1.2-1.1-2.2c0-0.6,0.2-1.2,0.6-1.6c0.4-0.4,1-0.7,1.7-0.9c-0.3-0.1-0.5-0.3-0.7-0.6s-0.3-0.6-0.3-0.9
	c0-0.4,0.1-0.7,0.3-1s0.5-0.5,1-0.8c-0.5-0.2-1-0.6-1.3-1.1s-0.5-1.1-0.5-1.9c0-1.1,0.4-2,1.1-2.6c0.7-0.6,1.7-0.9,3.1-0.9
	c0.3,0,0.6,0.1,0.9,0.1c0.3,0,0.6,0.2,0.7,0.2L947.6,182.3L947.6,182.3z M939.3,194.3c0,0.5,0.2,0.9,0.7,1.1c0.4,0.3,1,0.4,1.8,0.4
	c1.2,0,2.1-0.2,2.7-0.5c0.6-0.3,0.9-0.8,0.9-1.4c0-0.5-0.2-0.7-0.5-0.8c-0.3-0.2-0.9-0.2-1.8-0.2h-1.7c-0.6,0-1.1,0-1.5,0.3
	C939.4,193.5,939.3,193.8,939.3,194.3 M940.2,185.6c0,0.7,0.2,1.2,0.5,1.5c0.3,0.4,0.8,0.5,1.5,0.5c1.3,0,1.9-0.7,1.9-2.1
	c0-0.7-0.2-1.2-0.5-1.6c-0.3-0.4-0.8-0.6-1.5-0.6c-0.6,0-1.1,0.2-1.5,0.5C940.4,184.3,940.2,184.9,940.2,185.6"/>
<path class="st0" d="M950,181.1v-0.4c0-0.4,0.7-1,1.1-1.6c0.4-0.5,0.7-0.9,0.9-1.5h2.2v0.4c0,0.4-0.6,1-1.3,1.6s-1,0.9-1.4,1.5H950z
	 M952.3,192.9H950v-10.6h2.4v10.6H952.3z"/>
<path class="st0" d="M962.6,192.9l-0.4-1.8h-0.1c-0.5,0.6-1,1.1-1.5,1.4c-0.5,0.2-1.2,0.4-2,0.4c-1,0-1.8-0.3-2.4-0.8
	c-0.6-0.6-0.9-1.3-0.9-2.4c0-1.1,0.4-1.9,1.2-2.4s1.9-0.8,3.6-0.9l1.7-0.1v-0.6c0-0.7,0-1.2-0.4-1.5c-0.3-0.3-0.7-0.5-1.4-0.5
	c-0.5,0-1,0.1-1.5,0.2c-0.5,0.2-1,0.3-1.4,0.6l-0.7-1.6c0.6-0.3,1.2-0.5,1.9-0.7s1.3-0.2,1.9-0.2c1.3,0,2.3,0.3,3,0.9
	c0.7,0.6,1,1.5,1,2.7v7.3L962.6,192.9L962.6,192.9z M959.3,191.1c0.8,0,1.4-0.2,1.8-0.7c0.5-0.5,0.6-1.1,0.6-1.9v-0.9l-1.2,0.1
	c-1,0-1.8,0.2-2.2,0.5c-0.5,0.3-0.7,0.8-0.7,1.4c0,0.5,0.2,0.8,0.4,1.1C958.3,191,958.7,191.1,959.3,191.1"/>
<path class="st0" d="M971.9,182.3h2.4l2.1,5.9c0.3,0.8,0.5,1.8,0.6,2.3h0.1c0.1-0.6,0.2-0.7,0.3-1.2c0.2-0.5,1-2.9,2.4-7h2.4
	l-4.5,11.8c-0.8,2.2-2.1,3.2-4,3.2c-0.5,0-0.8-0.1-1.4-0.2v-1.8c0,0.1,0.7,0.1,1.1,0.1c1.1,0,1.8-0.6,2.2-1.9l0.4-0.9L971.9,182.3z"
	/>
<path class="st0" d="M874.7,214.1l-1.4-4.1H868l-1.4,4.1h-2.4l5.2-14.1h2.5l5.2,14.1H874.7z M872.7,208.2l-1.3-3.7
	c-0.1-0.3-0.2-0.6-0.4-1.2c-0.2-0.5-0.3-0.9-0.3-1.2c-0.2,0.8-0.4,1.6-0.8,2.5l-1.2,3.6L872.7,208.2L872.7,208.2z"/>
<path class="st0" d="M884.1,203.4c0.4,0,0.8,0,1.1,0.1l-0.2,2.1c-0.3-0.1-0.6-0.1-1-0.1c-0.9,0-1.6,0.3-2.2,0.9
	c-0.6,0.6-0.8,1.3-0.8,2.3v5.5h-2.4v-10.6h1.9l0.3,1.8h0.1c0.3-0.6,0.8-1,1.4-1.4C882.9,203.5,883.5,203.4,884.1,203.4"/>
<path class="st0" d="M892.3,212.5c0.5,0,1.1-0.1,1.7-0.3v1.7c-0.6,0.1-0.6,0.2-1,0.3s-1,0.1-1.5,0.1c-2.1,0-3.4-1.1-3.4-3.3v-5.7
	h-1.2v-1l1.6-0.9l0.9-2.3h1v2.4h2.9v1.8h-2.9v5.6c0,0.5,0.3,0.9,0.6,1.2C891.3,212.3,891.9,212.5,892.3,212.5"/>
<path class="st0" d="M900.6,214.3c-1.6,0-2.9-0.5-3.8-1.4c-0.9-1-1.4-2.3-1.4-3.9c0-1.7,0.4-3.1,1.3-4c0.9-1,2-1.5,3.5-1.5
	c1.4,0,2.5,0.4,3.3,1.3c0.8,0.8,1.2,2,1.2,3.5v1.3h-7c0,1.2,0.3,1.8,0.8,2.3s1.2,0.8,2.2,0.8c0.6,0,1.1-0.1,1.7-0.2
	c0.5-0.1,1.1-0.3,1.7-0.6v1.8c-0.6,0.3-1,0.4-1.6,0.5C901.9,214.2,901.3,214.3,900.6,214.3 M900.1,205.1c-0.7,0-1.3,0.2-1.7,0.6
	c-0.4,0.4-0.7,1.3-0.8,1.9h4.8c0-0.6-0.2-1.5-0.6-1.9C901.4,205.3,900.9,205.1,900.1,205.1"/>
<path class="st0" d="M914.2,211.1c0,1-0.4,1.8-1.1,2.4c-0.7,0.5-1.9,0.8-3.3,0.8c-1.4,0-2.9-0.2-3.4-0.6v-1.9
	c1.2,0.6,2.5,0.9,3.5,0.9c1.4,0,2.1-0.4,2.1-1.2c0-0.3-0.1-0.5-0.2-0.7c-0.2-0.2-0.4-0.4-0.7-0.6c-0.3-0.2-0.8-0.4-1.4-0.6
	c-1.2-0.5-2-0.9-2.5-1.4c-0.4-0.5-0.6-1.1-0.6-1.8c0-0.9,0.4-1.6,1.1-2.1c0.7-0.5,1.7-0.7,3-0.7c1.2,0,2.4,0.2,3.5,0.7l-0.7,1.7
	c-1.1-0.5-2.1-0.7-2.9-0.7c-1.2,0-1.8,0.3-1.8,1c0,0.3,0.1,0.6,0.5,0.8c0.3,0.2,1,0.5,2,0.9c0.9,0.3,1.5,0.6,1.9,0.9
	c0.4,0.3,0.7,0.6,0.9,1C914.1,210.1,914.2,210.6,914.2,211.1"/>
<path class="st0" d="M930.4,200h2.4l-4.9,14.1h-2.4l-4.8-14.1h2.3l2.9,8.7c0.2,0.4,0.3,1,0.5,1.7c0.2,0.6,0.3,1.2,0.3,1.5
	c0.1-0.5,0.2-1,0.4-1.7c0.2-0.6,0.3-1.2,0.4-1.5L930.4,200z"/>
<path class="st0" d="M934.8,200.8c0-0.4,0.1-0.7,0.3-0.9s0.5-0.3,0.9-0.3s0.7,0.1,0.9,0.3s0.3,0.5,0.3,0.9s-0.1,0.7-0.3,0.9
	s-0.5,0.3-0.9,0.3s-0.7-0.1-0.9-0.3C934.9,201.5,934.8,201.2,934.8,200.8 M937,214.1h-2.4v-10.6h2.4V214.1z"/>
<path class="st0" d="M947.4,211.1c0,1-0.4,1.8-1.1,2.4c-0.7,0.5-2,0.8-3.4,0.8s-2.4-0.2-3.5-0.6v-1.9c1.2,0.6,2.6,0.9,3.6,0.9
	c1.4,0,2.1-0.4,2.1-1.2c0-0.3,0-0.5-0.2-0.7c-0.1-0.2-0.4-0.4-0.7-0.6c-0.3-0.2-0.8-0.4-1.4-0.6c-1.2-0.5-2-0.9-2.4-1.4
	s-0.6-1.1-0.6-1.8c0-0.9,0.4-1.6,1.1-2.1c0.7-0.5,1.7-0.7,3-0.7c1.2,0,2.4,0.2,3.5,0.7l-0.7,1.7c-1.1-0.5-2.1-0.7-2.9-0.7
	c-1.2,0-1.8,0.3-1.8,1c0,0.3,0.2,0.6,0.5,0.8s1,0.5,2,0.9c0.9,0.3,1.5,0.6,1.9,0.9c0.4,0.3,0.7,0.6,0.9,1
	C947.3,210.1,947.4,210.6,947.4,211.1"/>
<path class="st0" d="M957.2,214.1l-0.3-1.2h-0.1c-0.3,0-0.8,0.8-1.3,1c-0.6,0.3-1.2,0.4-2,0.4c-1.3,0-2.4-0.3-3-1
	c-0.6-0.6-1.1-1.6-1.1-2.9v-6.9h2.4v6.6c0,0.8,0.3,1.4,0.6,1.8c0.3,0.4,0.9,0.6,1.6,0.6c0.9,0,1.5-0.3,2-0.8
	c0.4-0.6,0.6-1.5,0.6-2.8v-5.3h2.4v10.6h-1.8V214.1z"/>
<path class="st0" d="M968.7,214.1l-0.4-1.8h-0.1c-0.5,1.2-1,1.2-1.5,1.4s-1.2,0.4-2,0.4c-1,0-1.8-0.2-2.4-0.8
	c-0.6-0.6-0.9-1.3-0.9-2.3c0-1.1,0.4-1.9,1.2-2.4c0.8-0.6,1.8-0.9,3.5-0.9l1.6-0.1V207c0-0.7,0.1-1.2-0.3-1.5
	c-0.3-0.3-0.7-0.5-1.3-0.5c-0.5,0-1,0.1-1.5,0.2c-0.5,0.2-0.9,0.3-1.4,0.6l-0.7-1.6c0.6-0.3,1.2-0.5,1.9-0.7s1.3-0.2,1.9-0.2
	c1.3,0,2.2,0.3,2.9,0.9c0.7,0.6,0.9,1.5,0.9,2.7v7.1h-1.4V214.1z M965.4,212.5c0.8,0,1.3-0.2,1.7-0.7c0.5-0.5,0.5-1.1,0.5-1.9V209
	l-1.1,0.1c-1.1,0-1.7,0.2-2.2,0.5s-0.7,0.8-0.7,1.4c0,0.5,0.2,0.8,0.4,1.1C964.4,212.4,964.8,212.5,965.4,212.5"/>
<rect x="972.4" y="199.4" class="st0" width="1.8" height="14.7"/>
<path class="st0" d="M981.6,214.3c-1.6,0-2.9-0.5-3.8-1.4c-0.9-1-1.4-2.3-1.4-3.9c0-1.7,0.4-3.1,1.3-4c0.9-1,2-1.5,3.5-1.5
	c1.4,0,2.3,0.4,3.1,1.3c0.8,0.8,1,2,1,3.5v1.3h-6.6c0,1.2,0.3,1.8,0.8,2.3s1.2,0.8,2.2,0.8c0.6,0,1.3-0.1,1.8-0.2
	c0.5-0.1,0.6-0.3,1.8-0.6v1.8c-0.6,0.3-1.2,0.4-1.7,0.5C983.1,214.2,982.4,214.3,981.6,214.3 M981.2,205.1c-0.7,0-1.3,0.2-1.7,0.6
	c-0.4,0.4-0.7,1.3-0.8,1.9h4.8c0-0.6-0.2-1.5-0.6-1.9C982.5,205.3,981.9,205.1,981.2,205.1"/>
<path class="st0" d="M995.3,211.1c0,1-0.4,1.8-1.1,2.4c-0.8,0.5-1.8,0.8-3.2,0.8s-2.7-0.2-3.3-0.6v-1.9c1.2,0.6,2.3,0.9,3.4,0.9
	c1.4,0,2-0.4,2-1.2c0-0.3-0.1-0.5-0.2-0.7c-0.2-0.2-0.4-0.4-0.8-0.6c-0.3-0.2-0.8-0.4-1.5-0.6c-1.2-0.5-2-0.9-2.5-1.4
	c-0.4-0.5-0.6-1.1-0.6-1.8c0-0.9,0.4-1.6,1.1-2.1c0.7-0.5,1.7-0.7,3-0.7c1.2,0,2.4,0.2,3.5,0.7l-0.7,1.7c-1.1-0.5-2.1-0.7-2.9-0.7
	c-1.2,0-1.8,0.3-1.8,1c0,0.3,0.2,0.6,0.5,0.8s1,0.5,2,0.9c0.9,0.3,1.5,0.6,1.9,0.9c0.4,0.3,0.7,0.6,0.9,1
	C995.2,210.1,995.3,210.6,995.3,211.1"/>
<rect x="643.9" y="3.2" class="st1" width="367.8" height="284.2"/>
<g>
	<text transform="matrix(1 0 0 1 455.0508 219.6416)" class="st0 st2 st3">P</text>
	<text transform="matrix(1 0 0 1 466.2508 219.6416)" class="st0 st2 st3">a</text>
	<text transform="matrix(1 0 0 1 476.9508 219.6416)" class="st0 st2 st3">r</text>
	<text transform="matrix(1 0 0 1 483.7508 219.6416)" class="st0 st2 st3">q</text>
	<text transform="matrix(1 0 0 1 496.3508 219.6416)" class="st0 st2 st3">u</text>
	<text transform="matrix(1 0 0 1 508.5508 219.6416)" class="st0 st2 st3">e</text>
	<path class="st0" d="M576.7,145.5c0.2,0.2,0.1,0.8,0.3,1c-0.1,0-0.2,0-0.3,0.1c0.1,0.1,0.2,0,0.3,0.1c-0.3,0.5,0.1,0.7-0.2,1.1
		c0.2,0.5-0.1,1.4,0,2c-0.3,0.2,0,0.5-0.2,0.7c0.2,0.4-0.3,0.9-0.3,1.4c-0.1,1-1,2.6-1.4,3.6c0,0.1,0.1,0.1,0.1,0.1
		c-0.1,0.2-0.3,0.4-0.4,0.6c0,0.1,0,0.2,0,0.2c-0.2,0.4-0.6,0.6-0.6,0.9c-0.1,0-0.1,0-0.2,0c-0.5,0.9-1.1,1.8-1.8,2.6
		c0.1,0.1-0.1,0.1,0,0.3c-0.6,0.5-1.1,1.2-1.6,1.9c1.2,2.3,2.3,3.8,3.7,5.9c0.1,0.8,1,1.2,1.2,1.9c0.7,1,1.7,2.1,2,3.1
		c0.6,0.4,0.6,1.5,1.2,1.8c0,0.5,0.3,0.8,0.3,1.3c-0.2,0.3,0.2,1,0.1,1.3c0,0.1-0.3,0-0.1,0.2c-0.3,0.1-0.7,0.3-0.8,0.6
		c-0.6,0.1-1.5,0.1-1.9,0.2c0.3,0.6-0.1,0.6-0.2,1.1c-0.5-0.1-0.6,0.2-1.1,0.1c0,0.2,0.2,0.3,0.3,0.4c-0.1,0.1-0.3,0.1-0.6,0.1
		c-0.1-0.1-0.1-0.1,0-0.2c-0.3,0-0.3,0.2-0.5-0.1c-0.2,0.3,0,0.6-0.3,0.8c0.1,0,0.1,0.1,0.1,0.3c-0.3,0.3-0.2,0.8-0.4,1.1
		c0.1,0.2,0,0.3,0.1,0.5c-0.2,0-0.2,0-0.3,0c0,0.2,0.2,0.1,0.2,0.3c-0.1,0-0.2-0.1-0.4,0c-0.1-0.2-0.2-0.2-0.3-0.1
		c-0.1-0.2-0.2-0.3-0.4-0.4c-0.3,0.2-0.5,0.3-0.5,0.7c-0.1,0.1-0.1,0.1-0.3,0c0.1,0.2,0.3,0.3,0.5,0.4c-0.2,0.2-0.6-0.1-0.8,0.1
		c-0.1,0,0-0.1-0.1-0.2c-0.2,0,0.1,0.2-0.2,0.2c-0.1-0.1-0.2-0.1-0.1-0.2c-0.2,0.1-0.4-0.5-0.6-0.7c-0.2-0.1-0.4,0-0.6-0.2
		c-0.2,0.1-0.3,0.2-0.5,0.3c-0.1-0.1-0.3-0.1-0.3-0.3l-0.1,0.1c-0.2,0.3,0.3,0.6,0.5,0.5c0.1,0.2-0.1,0.2-0.1,0.4
		c0.1-0.1,0.1-0.2,0.2-0.3c0.1,0.2,0.4,0.1,0.4,0.4c-0.7,0.2-1-0.5-1.7-0.9c-0.2,0.4-0.3,0.8-0.8,0.8c-0.4-0.4-0.9-0.3-1.3-0.6
		c-0.3-0.5-0.8-0.7-1.2-1.2c0-0.1,0-0.2,0-0.2c-0.5-0.2-0.5-0.9-0.9-1.2c-0.1-0.7-0.8-1.2-1-2.1c-0.7-1-1.1-1.8-1.7-2.9
		c-0.5-0.5-0.6-1.3-1.1-1.7c0-0.1,0-0.1,0-0.2c-0.5-0.6-0.7-1.2-1.2-1.7c-3.2,1.7-6.2,3.2-9.7,4.3c-0.1,0,0,0.1,0,0.2
		c-0.8,0.1-1.4,0.4-2,0.6c0.5,2.5,1.7,6.2,2.5,8.8c0.1,0,0.2,0,0.3,0c0.6,1.6,0.7,2.9,1.3,4.4c0.2,1.6,0.9,3.3,1.3,4.6
		c0,0.1,0.1,0.1,0.2,0.1c-0.3,0.4,0.3,0.9,0.2,1.3c0.3,0.2,0.1,0.8,0.4,1.2c-0.1,0.8,0.5,1.9,0.6,3c-0.1,0-0.2,0-0.3,0.1
		c-0.1-0.1-0.4-0.2-0.3-0.4c-0.3,0-0.2,0.2-0.4,0.2c0.4,0.5,0,1,0.2,1.7c-0.3,0.4-0.2,0.5-0.4,0.9c-0.3,0.1-0.4-0.1-0.7-0.1
		c-0.3,0.1-0.5,0.4-0.7,0.4c-0.4,0.1-0.7-0.3-1.2-0.2c-0.4,0.3-0.3,0.5-0.3,0.9c-0.3,0.1-0.2,0.3-0.6,0.4c0,0.1,0.2,0.1,0.1,0.2
		c-0.1,0.1-0.1-0.1-0.2-0.1c-0.1,0,0,0.2,0,0.3c-0.2,0-0.3-0.1-0.4-0.1c-0.2,0.2-0.3,0.6-0.6,0.7c-0.2-0.1-0.4,0.1-0.4-0.1
		c-0.6,0.3-1.5,0.3-1.8,0.9c-0.3,0-0.5,0.2-0.8,0.2c0-0.1-0.2-0.2,0-0.2c-0.6,0-0.6-0.9-1-1.3c-0.2,0-0.3,0-0.5,0.1
		c-0.1-0.2-0.2-0.3-0.3-0.5c-0.4,0.1,0,0.5-0.4,0.7c0,0.1,0.1,0.1,0.1,0c0.2,0.2-0.2,0.4-0.2,0.6c-0.8,0.2-0.8-1.1-1.4-1.2
		c0.1-0.1,0.1-0.3-0.1-0.3c-0.1,0.5,0.1,1.3-0.6,1.7c0.1-0.2-0.5-0.5-0.5-1c-0.3-0.1-0.4,0.1-0.4,0.4c-0.1,0-0.2,0.1-0.3,0.2
		c-0.8-0.1-1.1-0.9-1.3-1.5c-0.5-0.8-0.4-2-1-2.9c0.1-0.4-0.1-0.6-0.2-0.8c0.1,0,0.1,0,0.1-0.1c-0.6-1.6-0.5-3.3-1.2-4.8
		c-0.5-3.1-1.2-5.9-2.1-8.6c0.1-0.2,0.1-0.1,0.2-0.2c-0.1-0.1-0.2-0.1-0.3-0.2c-0.1-0.8-0.5-1.6-0.5-2.6c-0.4-1-0.6-2.3-0.8-3.3
		c-0.9,0.1-2.4,0.3-3.5,0.4c-0.3,0-0.6,0-0.9,0c-2.2,0-4.2,0.2-6.7,0.2c-0.1,0.3-0.2,0.6-0.2,0.8c0,1.6-0.4,3.3-0.3,4.7
		c0,0-0.1,0.1-0.2,0.1c0,0.4,0.2,0.7-0.1,0.9c0.2,0.8-0.1,1.9,0,2.9c0.4,0.2,0.4,0.5,0.3,0.9c-0.2,0,0-0.1-0.2-0.2
		c-0.2,1-0.4,1.9-0.4,3c0,0.1,0.1,0.6,0.1,0.8c0,0.6-0.2,1.2-0.4,1.9c0,0.2,0.1,0.2,0.1,0.3c0,0-0.1-0.1-0.2,0c0,0.8-0.6,2-0.9,3.1
		c0,0.1,0,0.3,0,0.4c0,0.1-0.2,0.3-0.2,0.5l0.1,0.1c-0.1,0.2-0.4,0.4-0.4,0.6c-0.1,0,0,0,0-0.1c0,0.5-0.5,0.7-0.8,0.7
		c-0.1-0.1-0.3-0.1-0.1-0.2c0-0.1-0.2,0.1-0.2-0.2c-0.1,0.4-0.2,0-0.4,0.2c-0.2-0.3-0.6-0.1-0.9-0.5c-0.1,0.2-0.6,0-0.8,0.2
		c0-0.3-0.1-0.1-0.3,0c-0.1,0.2,0.2,0,0.2,0.1c-0.2,0.2-0.3,0.5-0.6,0.4c0.1,0.1,0.1,0.1-0.1,0.1c-0.1,0-0.1,0.1,0,0.1
		c-0.2,0-0.3,0.2-0.5,0.1c-0.1,0.1,0,0.2,0.1,0.2c-0.6,0.1-0.7-0.9-1.3-0.8c-0.6,0-0.9,1.1-1.6,0.7c-0.1,0.3-1.5,0.7-1.4-0.3
		c-0.3-0.2-0.1-0.7-0.1-1c0-0.1-0.3-0.1-0.1-0.3c-0.2-0.3-0.4,0.1-0.8,0c-0.6,0.6-0.9,1.3-1.3,2c-0.4-0.1-0.3-0.6,0-0.8
		c0-0.6-0.3-1.4,0-1.8c0-0.2-0.2-0.1-0.1-0.4c-0.7,0.1-0.5,0.8-1.1,1c-0.1-0.1,0.1-0.2,0.1-0.4c0-0.1-0.1,0-0.1,0.1
		c-0.4-0.8,0.2-1.8-0.7-1.8c-0.1-0.3-0.2-1-0.7-1c0-0.2,0.2-0.1,0.1-0.3c-0.2,0,0,0.1-0.2,0.2c-0.1-0.1,0-0.6-0.1-0.6
		c0.2-0.2-0.1-0.8,0.1-1.1c-0.1-0.6-0.1-2.1,0.1-2.9c0,0,0.1,0.1,0.1,0c-0.2-0.2,0.1-0.3-0.1-0.4c0.3-1.4,0.3-3,0.4-4.1
		c0.1,0,0.1,0,0.2,0c-0.3-0.1,0.1-0.4-0.2-0.3c0-0.1,0.1-0.1,0.2-0.1c-0.1-0.3-0.2-0.7,0.1-0.8c-0.3-0.4,0.1-1,0.1-1.5
		c0-0.1-0.1,0-0.1,0c-0.1-0.4,0-1.1,0.2-1.5c0,0,0.1,0.1,0.1,0c0.1-0.5,0-1.1,0-1.5h0.1c0-0.1-0.2-0.1,0-0.1
		c-0.1-0.7,0.1-1.7,0.2-2.4c-0.8-0.3-2-0.6-3-0.9c-0.7-0.2-1.3-0.4-1.7-0.8c0.3-0.2,0-0.4,0-0.7c0-0.2,0.4-0.5,0.2-0.9
		c0.4-0.1,0-0.7,0.2-1c0-0.3-0.3-0.8-0.2-1.2c0.1-0.3,0.4-0.7,0.3-1c-0.5,0-0.8-0.1-1.2-0.3c-0.1-0.4-0.2-0.6-0.2-1
		c0.3-0.2,0.5-0.5,0.5-0.8c-0.1-0.1-0.3-0.2-0.5-0.3c-0.5-0.5,0.2-1,0.5-1.4c0.4,0.1,0.3-0.3,0.6-0.2c0-0.2,0-0.5,0.1-0.8
		c-0.3-0.1,0.3-0.7-0.2-1.1c-0.1-0.1,0.2-0.3,0-0.4c0-0.1,0.1-0.1,0.2-0.1c0-0.4-0.1-0.5,0.1-0.6c0-0.2-0.1-0.5-0.1-0.7
		c0.1-0.5,0.4-0.7,0.9-0.9c0.1-0.1,0.2-0.3,0.4-0.3c0.3-0.1,0.8,0,1.1-0.2c0.7-0.3,1.7-0.4,2.7-0.2c0.2,0,0.4,0.2,0.7,0.2
		c0.4,0.1,0.9,0,1.2,0.1c0,0,0,0.2,0.1,0.2c0.4,0.1,1.1,0,1.4,0.3c0.6-0.1,1.1,0.1,1.6,0.1c1.1,0.1,2.4-0.2,3.6-0.3
		c0.5,0,0.9,0,1.4,0c0.6,0,1.4-0.2,1.7,0c1.3-0.4,2.5,0,3.6-0.1s2.1-0.4,3.2-0.5c0.3,0,0.6,0,0.8,0c2.8-0.3,5.6-1.2,8.3-1.6
		c0.8-0.1,1.7-0.3,2.5-0.4c1.9-0.5,4.3-1.1,5.8-2.2c1-0.3,2-0.7,2.7-1.3c1.3-0.4,2.5-1,3.7-1.6c0.3-0.1,0.5-0.4,0.8-0.6
		c0.3-0.2,0.7-0.2,1-0.4c0.6-0.4,1.2-1,1.9-1.3c0.1,0-0.1-0.1,0-0.2c0.2,0.1,0.2-0.1,0.3-0.1c0.2-0.5,0.9-0.5,1.1-1.1
		c1.5-1.1,2.6-2.7,4.1-3.8c0.6-1,1.6-1.8,2.2-2.9c0.6-0.5,0.8-1.4,1.4-2c0-0.3,0.2-0.6,0.4-0.8c0.2-0.6,0.8-1.2,1.1-1.9
		c0,0,0.1-0.1,0.2-0.1c0-0.2,0.2-0.6,0.4-0.6c0-0.1,0.2-0.6,0.5-0.6c-0.2,0,0.1-0.4,0.2-0.2c-0.1-0.3,0-0.1,0-0.4
		c0.4,0,0.4-0.9,0.9-0.5c0.2-0.1-0.2-0.1-0.2-0.3c0.6-0.5,1.3-1.3,1.6-2c0.9-0.1,1.5,0,1.7-0.6c0.1,0.1,0.2,0.1,0.2,0.4
		c0.3,0.2,1.1,0.7,0.8,1.3c0,0.1,0.1,0.1,0.3,0.1c-0.2,0,0,0.5-0.2,0.4c0.4,0.2-0.1,0.8,0.5,0.8c0.2,0,0.6-0.5,0.6-0.8
		c0-0.2,0.1,0,0.2-0.2c0,0-0.1-0.1-0.1,0c0.1-0.2,0.5-0.5,0.6-0.6c0.5-0.2,1.1,0.5,1.7,0.7c0.1,0,0.2-0.1,0.3-0.1
		c0.2,0.2,0.3,0.4,0.5,0.5c-0.1,0.4,0.2,0.9,0.2,1.4c0.5,0.2,0.9,1.4,1.8,1.3c0.2,0.2,0.6,0.2,0.7,0.4c0.2,0.6,0.3,1.9,0.1,2.7
		C576.8,145.1,576.9,145.5,576.7,145.5 M574.3,141.7c0,0.1,0.2,0,0.2,0.1c-0.2,0.1,0.1,0.1,0,0.4c0.2-0.1,0.4-0.1,0.3-0.1
		c-0.1-0.1,0-0.1,0-0.3c-0.1-0.1-0.2-0.1-0.3-0.1C574.6,141.6,574.3,141.6,574.3,141.7z"/>
	<path class="st0" d="M561.9,109.8L561.9,109.8C561.7,109.8,561.7,109.8,561.9,109.8 M562.1,109.8c-0.1,0-0.2,0-0.2,0
		C561.9,109.9,562,109.9,562.1,109.8z M567.1,126.1c0.1,0,0.1,0,0.2-0.1c-0.3,0-0.5,0-0.8,0C566.6,126.1,566.8,126.1,567.1,126.1z
		 M567.3,126L567.3,126c0.1,0.1,0.3,0.1,0.5,0.1c-0.1,0-0.1,0-0.2-0.1C567.6,126,567.5,126,567.3,126z M573.7,118.6
		c0.1,0,0.1-0.1,0.1-0.2c-0.2-0.3-0.5-0.6-0.7-0.8c0.4-0.1,0.1-0.6,0.1-0.9c0.2,0,0.2-0.2,0.4-0.2c0.1-0.2-0.2,0-0.2-0.2
		c-0.1-0.6-0.5-0.9-0.8-1.2c-0.3,0.1-0.5,0-0.8-0.2c-0.6-0.1-0.9,0.3-1.2,0c0.1,0,0.1-0.1,0-0.2c0.5,0,0.9-0.2,1.2-0.1
		c0.2-0.2,0.3-0.4,0.5-0.5c-0.3-0.5,0.3-0.6,0.2-1c-0.2-0.1-0.3-0.2-0.3-0.4c0.1-0.2,0.3-0.3,0.3-0.6c-0.3-0.3-0.6-0.5-0.9-0.7
		c-0.1,0-0.3,0-0.4,0c-0.3-0.3-1.2,0-1.4-0.5c0.3-0.1,0.8-0.1,0.9-0.4c-0.7-0.3-1.6-0.4-2.6-0.6l0,0c-0.2,0-0.5,0-0.7,0
		c-1.3,0-2.7,0-3.8-0.1c-0.7,0.1-1.6,0.3-2.7,0.1c-0.2-0.6-0.1-1.2-0.2-1.8c0-0.1-0.2-0.1-0.2-0.2c0-0.2-0.1-0.5-0.1-0.8
		c-0.2-1.2-0.4-2.6-0.7-4c-0.1-0.3-0.4-0.8-0.3-1c-0.2-0.1-0.2-0.4-0.2-0.6c-0.5-1-0.6-1.9-1.3-3.1c0.2-0.1-0.1-0.2,0-0.3
		c-0.1-0.1-0.2,0.1-0.2,0c0.2-0.1-0.1-0.6-0.3-0.7c0.1-0.3-0.1-0.6-0.3-0.7c0.1-0.1-0.1-0.2,0-0.3c-0.3,0-0.2-0.3-0.2-0.5
		c-0.1,0-0.1,0-0.2,0c0-0.3-0.1-0.7-0.4-0.8c-0.4-1-1.2-1.9-1.9-2.6c0-0.3-0.3-0.3-0.3-0.4c-0.1-0.2-0.2-0.4-0.4-0.6
		c-0.3-0.4-1-0.9-1.3-1.1c-0.4-0.3-0.7-0.8-1.2-1c-0.3-0.2-0.5-0.1-0.6-0.4c-0.1,0-0.2,0-0.3,0c0-0.3-0.3-0.1-0.4-0.4
		c-0.7-0.2-1.3-0.7-1.9-0.9c-0.5-0.2-1.3-0.4-1.7-0.6c-0.5-0.2-1.1-0.4-1.6-0.7c-1.1,0-2.6-0.8-3.8-0.9c-0.5-0.3-1.3-0.5-1.8-0.5
		c-1.2-0.4-2.4-0.8-3.7-1c-0.5-0.3-1.2-0.4-1.8-0.5c-2.3-0.8-4.8-1-7.1-1.5c-0.4,0.2-0.8-0.1-1.3,0c0-1-0.2-2.4,0-3.2
		c0.1-0.5,0-1.5,0-2.2c0-0.5,0-0.8,0-1.1c0-0.1,0.1-0.3,0.1-0.4c0-0.3-0.1-0.5-0.1-0.8c-0.1-1.1-0.3-2.1-0.2-3.1
		c-0.3-0.1,0-0.6-0.2-0.8c0-0.2,0.1-0.3,0.1-0.5c-0.3-0.7-0.1-1.6-0.2-2.6c0-0.5-0.1-0.9-0.1-1.3l0,0c0-0.9,0-1.9-0.1-2.9
		c0-0.2,0.1-0.5,0.1-0.6l-0.2-0.1c-0.1-0.5,0.2-1.2,0.1-1.7c0,0-0.1,0-0.1-0.1c0-0.9-0.1-1.8-0.1-2.7c-0.1-0.1-0.2-0.2-0.2-0.3
		c0-0.8-0.2-1.8-0.4-2.5c0-0.5-0.2-1-0.4-1.3c0.1-0.8-0.3-1.8-0.2-2.5c-0.5-0.5-0.2-1.5-0.6-2.1c0-0.4-0.2-0.7,0-1
		c-0.1,0-0.1,0-0.2-0.1c-0.1-1-0.7-1.9-0.5-2.7c-0.1,0-0.2,0-0.2-0.1c0.2-0.9-0.3-1.4-0.4-2.2c-0.3,0-0.2-0.3-0.2-0.4
		c-0.4-0.1-0.7-0.5-1-0.6c0.1-0.1,0-0.1,0-0.3c-0.8-0.6-1.6-0.2-2.4-0.8c0,0.1,0,0.2-0.1,0.2c-0.6-0.1-1.3,0-1.8,0.2
		c-0.2-0.2-0.3-0.4-0.4-0.7c-0.5,0.1-1.1-0.1-1.4,0.1c-0.3,0.8-0.9-0.1-1.8,0c-0.2,0.1-0.3,0.3-0.6,0.2c-0.2,0.3-0.5,0.4-0.8,0.6
		c0.1,0.2,0.4,0.2,0.6,0.4c-0.3,0-0.9,0-1.2-0.2c-0.9,0.2-1.4-0.2-2.1-0.3c-0.5,0.2-1.1,0.2-1.7,0.3c-0.2,0.3-0.4,0.7-0.5,1
		c-0.2,0.7-0.2,1.7-0.1,2.1c-0.2,1.3,0,2.9,0.1,4.2c0,0.6-0.1,1.3,0.1,1.8c-0.3,0.3,0.1,0.7-0.1,1c0.2,0.6,0.1,1.2,0.1,1.8
		c0.1,0.1,0.1-0.1,0.2,0c-0.3,0.2,0.1,1-0.1,1.2c0.1,0.6,0.1,1.1,0.1,1.7c-0.1,0-0.1,0-0.2-0.1c0,0,0,0,0,0.1c0.1,0,0.2,0,0.2,0.1
		c-0.2-0.1-0.1,0.1-0.2,0.2c0.2,1.5-0.1,3.1-0.1,4.5c0,0.4,0.1,0.8,0.1,1.2c0,0.1,0,0.2,0,0.3c0.1,3.8,0.2,7,0.6,10.5
		c-0.2,0.6-0.1,1.3-0.1,2c0.1,2.1,0,4.1,0.2,6.2c-0.5,0-1.1,0-1.7,0c-0.4,0-0.8,0.2-1.2,0.2v-0.1c-0.6-0.1-1.8,0.2-2.4,0.2
		c-3.1,0.2-6.7,0.7-10.1,1c0-0.1,0-0.1-0.1-0.2c0.1,0,0.1,0,0.2,0c-0.1-1,0.1-1.8-0.1-2.4c0.1,0,0.1,0.1,0.1,0.1
		c-0.2-0.4-0.2-0.8,0-1c-0.1-0.1-0.2-0.2-0.2-0.4c0-0.2,0.2-0.3,0.2-0.5c-0.2-0.4-0.2-0.7-0.2-1.2c-0.3,0.1-0.2-0.9,0-1
		c0-0.4-0.1,0.1-0.2-0.2c0-0.2,0.1-0.2,0.2-0.4c-0.1,0-0.2-0.1-0.2-0.3c0.3-0.6-0.1-1.3-0.1-2c0-0.3,0.1-1.4-0.2-1.5
		c0.1-0.4,0.1-0.8,0-1.1c-0.1-0.8-0.3-2.2-0.4-3.1c-0.5-3.1-0.6-6.6-1.6-9.4c-0.2,0.2-0.2-0.3-0.2-0.5c-0.7-0.4-1.2-0.3-2,0
		c0-0.2-0.2-0.1-0.1-0.4c-0.3,0.2-0.5-0.2-0.8,0.1c-0.9-0.9-2-0.6-2.7,0.6c-0.2,0-0.3-0.1-0.4-0.2c-0.1,0.1,0.1,0.2,0,0.3
		c-1.2-0.4-2.3,1.6-2.4,3.4c0,0.3,0.1,0.5-0.1,0.7c-0.3-0.4-0.7-0.9-0.7-1.6c-0.4-0.2-0.5-0.8-0.8-1c-0.5,0.8-0.9-0.5-1.3-0.5
		c-0.1,0.2,0,0.6-0.1,0.7c-0.2-0.1-0.3-0.3-0.6-0.2c-0.1,0.2-0.1,0.3,0,0.5c-0.2,0.4-0.6,0.1-0.7,0.5c0.1,0,0.1,0.1,0.1,0.3
		c-0.1,0-0.1-0.3-0.2-0.1c0.1,0.7-0.2,0.9-0.2,1.9c-0.1-0.1-0.1,0.2-0.2,0.2c-0.3,2.3-0.4,4.4-0.3,7c0,0.1-0.2,0.1-0.1,0.4
		c0.3,2.2-0.2,4.7,0,6.7c-0.1,0-0.1,0.1-0.2,0c0.1,1.4,0,2.2,0.2,3.5c0.2,0.2,0,0.8,0.1,1.3c0,0.4,0.2,1.2,0.3,1.5
		c0.1,0.6,0,1.1,0.1,1.5c0.1,0.5,0.3,1.1,0.2,1.5c-1.5,0.6-2.7,1.4-4.1,2c-2.2,1.7-5.2,3.1-7.2,4.8c-0.5,0.1-1,0.9-1.6,1.2
		c-0.2,0.4-1,1-1,1.5c0-0.1-0.1-0.1-0.2-0.1c-0.5,1.2-1.7,2.8-2,4.5c-0.8,1.3-1.3,3.2-1.7,5.3c-0.3,0.7-0.4,1.5-0.5,2.1
		c-0.1,0.7-0.1,1.4-0.3,2c-0.1,1.1-0.1,2.3-0.1,3.5c0,0.2,0,0.5,0,0.7c-0.1,1-0.3,1.8-0.1,2.8c0.2,1.2,0.8,2.5,0.9,3.9
		c0.1,0,0.1,0.1,0.2,0.2c0.2,1.5,0.8,2.6,1.1,4.2c0.9,2,1.3,3.9,1.6,6c0.1,1,0.1,2.2,0.2,3.2c0.1,0.7,0.3,1.5,0.5,2.2
		c0,0.2,0.2,0.2,0.2,0.4c0,0.8,0.4,1.6,0.5,2.4c0.5,1,0.9,2.1,1.3,3c0.3,0.2,0.3,0.8,0.6,0.9c0.1,0.5,0.7,1.2,0.7,1.6
		c2.3,4.7,7.5,6.6,11.9,9c-0.1,2.9,0.3,6,0.1,8.8c0.1,1.1,0,2.6-0.2,3.9c0.2,0.2,0.1,0.8-0.1,0.9c0.1,3.4-0.5,5.7-0.2,9.2
		c0.1,0.1,0.2,0.2,0.3,0.3c-0.1,0.5-0.2,1.4,0.4,1.5c-0.1-0.2-0.3-1,0.2-1c0.3,0.2,0.2,0.6,0.5,0.8c1.5-0.5,1,1.3,1.1,2
		c0.1,0,0.2,0,0.3,0c0-0.4,0-0.6,0.3-0.9c0,0.1,0,0.1,0.1,0.2c0-0.3-0.1-0.5,0-0.7c0.3-0.1,0.4,0.1,0.5,0.2c-0.2-0.1,0,0.2-0.2,0.2
		c0-0.1-0.2-0.2-0.2,0c0.2,0.1,0.2,0.3,0.2,0.5c0.2-0.1,0.6,0.1,0.7,0.3c0.5-0.1,0.4,0.4,0.7,0.7c0,0.5-0.3,1.1,0.1,1.2
		c0-0.3,0.2-1,0.2-1.4c0.2,0.1,0.1-0.2,0.4-0.2s0.7,0.1,0.8,0.5c0.2-0.2,0-0.1,0-0.3c0.2-0.1,0.9-0.1,1-0.3c0.4,0.1,0.5,0,0.8-0.1
		c0.1,0.1,0.1,0.2,0.3,0.1c0.1-0.2,0-0.2-0.1-0.4c0.4,0,0.5-0.1,0.9,0.2c-0.1-0.3,0.3,0,0.3-0.2c0.2,0.1,0.1,0.5,0.4,0.6
		c0.1,0,0-0.2,0.1-0.2c0,0.1,0,0.2,0.1,0.2c0.1-0.1,0.2-0.1,0.3-0.2c-0.1,0.1,0,0.2,0.1,0.3c0.1-0.1,0.1-0.2,0.3-0.3
		c-0.6-0.4,0.6-0.9,0.7-1c0.4,0.1,0.2,0,0.8,0.1c0.1-0.3,0.3-0.1,0.5-0.2c0.1,0.1,0.2,0.2,0.3,0.2c0-0.1,0.1,0,0.1,0
		c0-0.2,0.2-0.1,0.1-0.3c0.1,0,0.2,0.2,0.3,0.1c0.1-0.2,0.2-0.5,0.5-0.5c0-0.2-0.1-0.3-0.2-0.4c0.3,0,0-0.3,0.4-0.3
		c-0.1-0.4,0.4-0.4,0.7-0.6c-0.1-0.3,0.1-0.3,0.2-0.4c0.1-0.5,0-1.1,0.3-1.5c-0.1-0.4,0-0.9,0.2-1.4c-0.1-1.1,0.3-2.6,0.2-3.6
		c0.4-1.6,0.2-3.9,0.3-5.8c0.1-0.8,0-2.1,0-2.4c-0.1-0.7,0.3-1.8,0-2.1c0.1,0,0.2,0,0.2-0.1c-0.1,0-0.1-0.1,0-0.1
		c-0.1-1.1,0-1.9-0.2-2.9c0.2-0.7,0-1.3,0.1-2c-0.9-0.7-0.7-2.6,0.2-3.1c0-1,0-1.9,0.1-2.8c0.2-0.1,0.1,0,0.3,0.2
		c0-0.1,0-0.2,0.1-0.2c-0.1-0.2-0.1-0.1-0.1-0.3c0.2,0,0.3-0.1,0.4-0.2c-0.1-0.3,0.2-0.4,0-0.6c0.1-0.1,0.2-0.2,0.2-0.4
		c-0.2-0.1-0.3-0.3-0.4-0.4c0.1-0.2,0.1-0.3,0.2-0.5c-0.2-0.1-0.3-0.3-0.5-0.4c0.2,0,0-0.1,0-0.2c0.1,0,0.1,0.1,0.2,0
		c-0.2-0.1,0-0.6-0.3-0.6c0.1-0.3-0.1-0.3,0.1-0.5c-0.3-0.3,0-0.8-0.1-1.1c0-0.1-0.1-0.2-0.1-0.3c0-0.6,0.1-1.2,0.1-1.8
		c0-0.4-0.1-0.7-0.1-1.1c0-0.4,0.1-0.9,0.1-1.3c0-0.2-0.2-0.5,0.1-0.6c-0.2,0-0.1-0.1-0.2-0.2c0.1-1.4-0.1-3.4,0.1-5.3
		c-0.3-0.3,0-0.9,0.1-1.1c-0.1,0-0.2,0-0.2,0c-0.1-1.1-0.1-2.6-0.3-3.7c0.1-2.1-0.2-4-0.2-6.1c-0.4-1.6-0.4-3.6-0.7-5.4
		c0-0.2,0-0.1,0.1-0.3c-0.2-0.7-0.3-1.7-0.4-2.5c0-0.3,0.1-0.5,0-0.8s-0.2-0.6,0-0.9c-0.1,0-0.2,0-0.2,0c0-1.5-0.2-3.1,0-4.2
		c-0.1,0-0.1-0.2-0.1-0.3c0.1,0,0-0.2,0.2-0.2c-0.3-1.5,0.2-3,0.2-4.6c0-1.3-0.1-2.7-0.2-4c1.7-0.2,3.1-0.5,4.6-0.5
		c3.6-0.7,6.8-1.1,10.4-1.2c0,0.3-0.1,0.7,0,1c-0.2,0.7-0.2,1.8-0.1,2.3c-0.2,1-0.2,2.1,0,2.8c-0.2,1-0.1,2.3-0.1,3.5
		c0,0.1,0,0.2,0,0.3c0,2.8-0.2,5.6-0.3,8.2c0,0.7-0.3,1.6-0.2,1.9c0,0.2,0.2,0.3,0,0.4c0.2,0.2,0.1,0.3,0.3,0.5
		c-0.2,0.6,0.1,1.2,0.3,1.8c0,0.1-0.1,0-0.1,0.2c0.5,1.4,1.1,2.9,1.8,4c0.1,0,0.3,0,0.4,0c0-0.1,0.1-0.3,0.2-0.3
		c0.4-0.1,0.4,0.2,0.6,0.4c0,0.1-0.2,0.2-0.3,0.3c0.2,0.2,0.3,0.5,0.7,0.4c0,0.2,0.5,0.4,0.5,0.7c0.3,0,0.7,0.1,1,0.2
		c0-0.2,0.1,0,0.3-0.1c0.1-0.2-0.1-0.3,0.1-0.4c0.4,0,0.5,0.4,0.9,0.2c1.5,0.6,3.2,0.6,4.8,0.4c0,0.1,0,0.3,0.1,0.4
		c0.3,0,0.2-0.4,0.5-0.5c1.2-0.1,3-0.2,4.1-0.1c0.5-0.2,0.9-0.1,1.6-0.1c0.3-0.4,0.8-0.2,1.2-0.2c1.9,0,3.9,0,5.6-0.1
		c0.1,0.2,0.3,0.1,0.3,0.1c0.1,0,0.1-0.1,0.2-0.1c0.6,0.1,1.6,0,2,0c0.2,0,0.5,0.1,0.7,0.1c1.4,0,2.6-0.1,4-0.1c1.2,0,2.6-0.1,4-0.1
		s3.5-0.1,4.9,0c0,0.5,0,0.8-0.2,1.1c0,1.4-0.9,2.7-1.7,3.9c-0.3,0.9-1.2,1.8-1.4,2.9c-0.2,0.1-0.5,0.5-0.5,0.8
		c-0.1,0-0.1-0.1-0.2,0c-0.3,0.6-0.8,1.1-1,1.9c-0.1,0-0.1,0.1-0.2,0.1c0,0.3-0.1,0.3-0.1,0.6c-0.1,0-0.1-0.1-0.2,0
		c-0.5,0.7-1.3,1.1-2.1,1.6c-0.1,0.1,0.1,0.1,0,0.2c-0.3,0.1-0.6,0.2-0.7,0.4c-0.8,0.3-1.5,0.4-2.3,0.6c0.1-0.2-0.1,0-0.3,0
		c0-0.1,0-0.2-0.1-0.2c-0.3,0-0.5,0.2-0.7,0c-0.1,0.1-0.2,0.2-0.3,0.2c-1.4,0.2-3.3,0.6-4.3,0.7c-1.3,0.1-2.5,0.4-3.6,0.4
		c0,0.3-0.1,0-0.2,0.1c-0.3,0.1-0.4,0.2-0.8,0.2c-0.3,0-0.9,0.1-1-0.1c-0.5,0.4-1.6,0.4-2.4,0.5c-1.8,0.3-3.4,0.4-5.3,0.8
		c-0.3,0.1-0.7,0-1,0.1c-0.1,0-0.2,0.2-0.3,0.2c-0.4,0.1-1.3,0.1-1.4,0.1c0,0.1,0,0.1-0.1,0.2c-0.9-0.1-2.1,0-2.9,0
		c-0.5,0-1,0.2-1.5,0.2c0,0,0-0.1-0.1-0.1c-0.8-0.2-1.7,0.4-2.7,0.1c-0.7,0.1-1.2,0.3-2.2,0.4c-0.6,0.3-1.3,0-1.7,0.7
		c0.1,0.1,0.2,0.2,0.2,0.3c-0.6,0.1-0.9-0.1-1.3-0.3c-0.2,0.3-0.4,0.6-0.6,0.9c0.2,0.1,0.1,0.3,0.1,0.5c-0.9,0.3-0.8,1.8-1.8,1.8
		c0,0.3-0.5,0.3-0.6,0.5c0,0.5,0.1,0.7-0.2,1c-0.2,0.2-0.8,0.5-0.4,0.6c0,0.1-0.3,0-0.3,0.1c0,0.7,0.3,1.6,0.5,2.5
		c-0.2,0.2-0.4,0.7-0.8,0.7c0.1,0.3,0,0.4-0.1,0.7c0.1,0.1,0.3,0.2,0.3,0.4c-0.1,0.1-0.4,0-0.4,0.2c0.3,0.6,1.1,0.6,1.6,1.1
		c-0.2,0.2,0.1,0.1,0,0.3c0.1,0,0.2,0,0.3,0.1c0.1,0.4-0.3,0.7-0.4,0.3c0,0.2,0.1,0.4,0,0.5c0.7,0.4,1.3,1,1.7,1.6
		c0,0.4,0.3,0.4,0.6,0.6c-0.1,0-0.1,0-0.2,0.1c1,0.3,2.1,0.5,3.1,0.4c0.9,0.3,2.2,0.3,3.1,0.3c0.7,0,1.5,0.1,2.1,0.1
		c0.5,0,0.9-0.1,1.4-0.1c0.2,0,0.5,0.1,0.7,0.1c2.5,0.1,4.7-0.6,7.6-0.9c0-0.1,0.2-0.1,0.2-0.2c0,0.2,0.4,0,0.4,0.1
		c1.4-0.4,3-0.4,4.2-0.8c0,0.2,0.2,0.1,0.4,0.1c1.3-0.2,2.4-0.4,3.4-0.6c0.3-0.1,1.1-0.2,1.3-0.2c0.7,0,1.7-0.3,2.3-0.3
		c0.2,0,0.6,0.1,0.6-0.1c0.6,0.1,1.9-0.2,2.4-0.3c0.2,0.2,0.3,0,0.5,0c0.8-0.1,2-0.1,2.7-0.6c0.3-0.1,0.5,0,0.9-0.2
		c-0.1,0-0.1-0.1,0-0.1c0.2,0.2,0.6-0.1,0.8-0.2c2.2-0.3,3.2-2.1,5.4-2.4c0-0.1,0-0.2,0-0.2c0.1,0.1,0.3,0.2,0.3,0
		c0,0.1,0.2,0,0.1,0.2c0.4-0.2,0.8-0.1,1.2-0.3c0.4-0.4,1.1-0.7,1.7-1.1c-0.1,0-0.1-0.1-0.1-0.2c0.2,0,0.1,0.2,0.3,0.2
		c0.1-0.1,0.4-0.3,0.4-0.1c0-0.1,0.1-0.1,0.1-0.2c1-0.3,1.7-1.1,2.8-1.5c0.3-0.9,0.8-1.3,1.3-2c-0.1,0,0.1-0.2,0-0.3
		c0.2-0.1,0.3-0.3,0.3-0.6c0.5-0.5,0.8-1.2,1.2-1.8c0.2-0.3,0.7-0.7,0.6-1.1c0.1,0,0.1,0.1,0.2,0c0-0.3,0.3-0.3,0.3-0.7
		c0.4-0.6,0.9-1.1,1.3-1.7c0.3-0.4,0.8-1.1,0.9-1.4c0.6-0.4,0.9-1,1.1-1.6c0.2-0.7,1.1-1.6,1-2.3c0.2-0.3,0.1-0.8,0.2-1.2
		c0-0.2,0.2-0.3,0.3-0.4c0.1-0.3,0-0.6,0.1-0.9c0,0,0.1-0.1,0.2-0.1c0.1-0.3,0.1-0.7,0.1-1.1c0.5-1.6,0.3-4,0.8-5.9
		c1.7-0.1,3.3,0,4.9,0c-0.4-0.1,0.1-0.1,0.9,0l0.1-0.1c0.1,0,0.2,0,0.2,0.1c0.5,0,1,0,1.4,0.1c0.1,0,0.1,0,0.2,0c0,0-0.1-0.1,0-0.1
		c1.1,0.1,0.6,0.1-0.2,0.1c-0.4,0-0.8,0-1.2,0c1.1,0.3,2.4,0,3.3-0.2c0.1-0.1-0.1-0.1-0.1-0.4c0.4-0.1,0.7,0.1,1-0.3
		c0.2-0.4,0-0.7,0.3-0.9c0.2-0.1,0.9-0.2,1.1-0.1c0.1-0.1,0.2-0.2,0.1-0.4c-0.3-0.2-0.6-0.4-0.9-0.6c-0.1-0.3-0.1-0.5,0.1-0.7
		c0.3,0,0.6-0.1,0.6-0.4c-0.2-0.3-0.7-0.2-0.7-0.7c0.2,0,0.4,0.2,0.6,0c-0.6-0.8,0.2-1.4,0.9-1.2C574.8,119.5,574,119.2,573.7,118.6
		z M475.9,138.6c-1.2-2.8-1.3-6.5-2.4-9.8c0-0.1-0.1-0.1-0.2-0.1c0-0.8-0.9-1.9-0.8-2.6c0-0.1-0.3,0-0.3-0.1c0-0.6-0.5-0.5-0.5-1.3
		c-0.4-0.4-0.3-1.1-0.7-1.3c-0.3-1.6-1-2.4-1.4-3.8c-0.4-0.2-0.2-0.7-0.7-0.8c-0.2-1,0.3-2.6,0.1-3.5c0.4-0.6,0.2-1.4,0.6-1.9
		c-0.1-1.2,0.5-2.6,0.6-3.6c0.3-1.1,1.4-1.8,1.7-3c0.4-0.2,0.7-0.7,1.3-0.9c0.7-0.7,1.8-1.1,2.6-1.7c0.2,0.4,0,0.8,0,1.3
		c0,0.3,0,0.9,0,1.1c-0.1,2.2-0.2,4.7-0.2,7.1c0,0.8-0.1,1.6-0.1,2.4s0.2,1.7,0.1,2.5c-0.1,1,0.1,2.6-0.1,3.5c0.1,0.5,0.3,1.1,0,1.6
		c0.4,1,0,2.6,0.4,3.4c-0.2,0.9,0.3,2.1,0,3.2c0.2,0.7,0.2,1.8,0,2.5c0.1,1.1,0.1,2.4-0.1,3.5c0,0.1,0.1,0.2,0.2,0.4
		C475.7,137.3,476.1,138.1,475.9,138.6z M479.9,179.7c0-0.1,0.1-0.1,0.2-0.1c-0.1,0.2-0.1,0.2,0.1,0.2
		C480.3,179.9,480,179.8,479.9,179.7z M545,109.6c-1.3-0.1-3.8-0.5-5.2-0.2c-0.3-0.2-0.9-0.1-1.2,0c0-0.1,0.1-0.1,0.2-0.1
		c-2.6-0.1-5.1,0.2-7.7,0.2c-0.4,0.2-1.2,0-1.4,0.2c-1.7-0.1-2.7,0.1-4.4,0.2c-0.1-2.1,0-3.7,0.1-6c-0.1,0-0.2,0-0.2,0.1
		c-0.1,0,0-0.2,0.2-0.2c-0.1-0.8,0.1-1.7,0.1-2.6c0-0.1-0.1-0.1-0.1-0.1c0-0.5,0.3-0.9,0-1.3c0.1-0.1,0.2-0.1,0.2-0.2
		c0-0.9,0.1-1.1,0.1-2.2c3,0.5,7,1.4,10.5,2.3c0.8,0.2,1.7,0.4,2.5,0.5c0.3,0.1,0.5,0.3,0.7,0.3c0.3,0,0.9,0.1,1.3,0.3
		c0.2,0.1,0.4,0.3,0.5,0.2c0.1,0,0,0.1,0,0.1c0.5,0.1,0.8,0.6,1.2,0.8c0.4,0.3,0.6,0.6,0.9,1c0,0.1-0.1,0.1-0.1,0.2
		c1.2,1.7,1.5,4.1,1.9,6C545.2,109.4,544.9,109.5,545,109.6z M501.8,144.3c0.1-0.3,0.3-0.1,0.5-0.2
		C502.2,144.4,502.1,144.2,501.8,144.3z M570.2,110c-0.7,0-1.4,0-2.1,0l0,0C569.5,110,570.5,110,570.2,110z M567.7,109.6
		c-0.5,0.1-1.3,0.3-1.8,0c-1.1,0.4-2.6-0.1-3.7,0.2h-0.1c0.9,0.1,3.3,0.1,5.2,0.1c0.2,0,0.5,0,0.7,0
		C568,109.8,567.9,109.7,567.7,109.6z"/>
	<text transform="matrix(1 0 0 1 455.125 245.585)" class="st0 st4 st5">La</text>
	<text transform="matrix(1 0 0 1 481.025 245.585)" class="st0 st4 st5"> </text>
	<text transform="matrix(1 0 0 1 485.425 245.585)" class="st0 st4 st5">Libe</text>
	<text transform="matrix(1 0 0 1 532.825 245.585)" class="st0 st4 st5">r</text>
	<text transform="matrix(1 0 0 1 542.625 245.585)" class="st0 st4 st5">ta</text>
	<text transform="matrix(1 0 0 1 564.625 245.585)" class="st0 st4 st5">d</text>
</g>
<rect x="412.9" y="44.4" class="st0" width="3.8" height="195"/>
<rect x="618.2" y="44.4" class="st0" width="3.8" height="195"/>
<g>
	<g>
		<g>
			<g>
				<path class="st0" d="M274.8,58.7C281,66.6,285,76,286.4,85.9c2-0.7,4-1.3,6-1.8c-1.9-11.8-7-22.8-15-31.8
					c-12,0.7-23.5,4.9-33.1,12c1.1,1.8,2.1,3.6,3,5.5C255.3,63.7,264.9,59.9,274.8,58.7z"/>
				<path class="st0" d="M327.5,126.9c9.9,1.4,19.4,5.4,27.3,11.7c-1.2,10-5,19.4-11,27.5c1.9,0.9,3.7,1.9,5.5,3
					c7-9.6,11.2-21.1,11.9-33.1c-9-7.9-20.1-13.1-31.9-15c-0.3,1.4-0.7,2.7-1.1,4C328,125.6,327.8,126.2,327.5,126.9z"/>
				<path class="st0" d="M373.1,195c-5.3-10.8-13.6-19.8-23.8-26.1c-1.2,1.7-2.6,3.3-4,4.9c8.6,5.1,15.8,12.4,20.7,21.2
					c-4.9,8.8-12.1,16.1-20.7,21.2c1.4,1.6,2.7,3.2,3.9,4.8C359.5,214.8,367.8,205.7,373.1,195z"/>
				<path class="st0" d="M161.8,58.9c10,1.2,19.5,5,27.5,11c0.9-1.9,1.9-3.7,3-5.5c-9.6-7-21.1-11.2-33.1-11.9
					c-7.9,9-13.1,20.1-15,32c2,0.5,4,1.1,6,1.8C151.6,76.2,155.6,66.8,161.8,58.9z"/>
				<path class="st0" d="M327.7,85.7c-11.4-3.9-23.6-4.4-35.2-1.6c0.2,1.2,0.3,2.5,0.5,3.7c0,0.4,0.1,0.8,0.1,1.2
					c0,0.4,0.1,0.9,0.1,1.3l0,0l0,0l0,0l0,0h0.1c0.9-0.2,1.8-0.4,2.7-0.6c0.3-0.1,0.6-0.1,0.9-0.2c1-0.2,2-0.3,3-0.4
					c0.2,0,0.5-0.1,0.7-0.1c1-0.1,2.1-0.2,3.1-0.3c0.2,0,0.4,0,0.6-0.1c1-0.1,2.1-0.1,3.1-0.1c0.2,0,0.4,0,0.6,0
					c1,0,2.1,0.1,3.1,0.1c0.2,0,0.4,0,0.6,0c1,0.1,2,0.2,3,0.3c0.2,0,0.5,0,0.7,0.1c1,0.1,2,0.3,3,0.5c0.2,0,0.5,0.1,0.7,0.1
					c1.2,0.3,2.4,0.6,3.6,0.9c2.7,9.7,2.8,19.9,0.4,29.6l0,0c2.1,0.1,4.2,0.3,6.2,0.6C332.1,109.3,331.6,97.1,327.7,85.7z"/>
				<path class="st0" d="M218.3,40.6c-10.8,5.3-19.8,13.6-26.1,23.8l0,0c1.7,1.2,3.3,2.6,4.9,4l0,0c5.1-8.7,12.4-15.8,21.2-20.8
					c8.8,4.9,16.1,12,21.2,20.7c1.6-1.4,3.2-2.7,4.8-4C238.1,54.1,229.1,45.8,218.3,40.6z"/>
				<path class="st0" d="M215.2,96.2c-0.1-0.3-0.2-0.7-0.3-1s-0.2-0.7-0.3-1c-0.4-1.1-0.8-2.1-1.2-3.2c-3.7-9-9.3-16.6-16.2-22.7
					l0,0c-1.6-1.4-3.2-2.7-4.9-4c-1.1,1.8-2,3.6-3,5.5l0,0c-2.7,5.7-4.7,11.8-5.6,18.3c-0.4,2.9-0.6,5.8-0.6,8.8
					c0,1.1,0,2.3,0.1,3.4c0,0.4,0,0.8,0.1,1.2c0,0.4,0,0.7,0.1,1.1l0,0l0,0c0.1-0.1,0.3-0.1,0.4-0.2c0.6-0.2,1.2-0.4,1.8-0.7
					c0.8-0.3,1.6-0.5,2.4-0.8c0.5-0.1,0.9-0.3,1.4-0.4c0.2-0.1,0.4-0.1,0.6-0.2c0.8-0.2,1.6-0.5,2.4-0.7c0.7-0.2,1.3-0.4,2-0.5
					c0.9-0.2,1.8-0.4,2.7-0.6c0.6-0.1,1.1-0.3,1.7-0.4c1.4-0.3,2.8-0.5,4.3-0.8c0.6-0.1,1.2-0.2,1.8-0.2c0.9-0.1,1.9-0.3,2.8-0.4
					c0.4,0,0.8-0.1,1.2-0.1c0.3,0,0.5-0.1,0.8-0.1c0.9-0.1,1.8-0.2,2.7-0.2c0.7,0,1.3-0.1,2-0.1C214.6,96.3,214.9,96.3,215.2,96.2
					C215.2,96.3,215.2,96.3,215.2,96.2L215.2,96.2z"/>
				<path class="st0" d="M173.8,101c-6.9-6.9-15-11.8-23.6-14.8c-2-0.7-4-1.3-6-1.8l0,0c-0.1,0.5-0.1,1-0.2,1.5
					c-0.1,0.7-0.2,1.4-0.3,2.2c-0.1,0.7-0.1,1.4-0.2,2.1c0,0.7-0.1,1.4-0.1,2.1s0,1.5,0,2.2s0,1.4,0,2.1c0,0.8,0.1,1.5,0.2,2.3
					c0.1,0.7,0.1,1.3,0.2,2c0.1,0.8,0.2,1.6,0.3,2.4c0.1,0.6,0.2,1.3,0.3,1.9c0.2,0.9,0.4,1.7,0.6,2.6c0.1,0.6,0.2,1.1,0.4,1.7
					c0.3,1,0.6,2,0.9,3c0.1,0.4,0.2,0.9,0.4,1.3c0.5,1.4,1,2.8,1.6,4.3v0.1c0.7,1.6,1.4,3.1,2.1,4.6c0.1,0.1,0.1,0.3,0.2,0.4l0,0
					l0,0c0.2-0.2,0.3-0.3,0.5-0.5c0.5-0.5,1.1-1,1.6-1.5c0.6-0.5,1.1-1,1.7-1.5c0.3-0.3,0.6-0.5,0.9-0.8c0.2-0.2,0.5-0.4,0.7-0.6
					c0.6-0.5,1.2-1,1.9-1.4c0.5-0.4,1.1-0.8,1.6-1.2c0.7-0.5,1.5-1.1,2.3-1.6c0.4-0.3,0.9-0.6,1.3-0.9c1.2-0.8,2.4-1.6,3.6-2.3
					c0.5-0.3,0.9-0.5,1.4-0.8c0.8-0.5,1.7-1,2.5-1.4c0.5-0.3,1.1-0.6,1.6-0.9c0.8-0.4,1.6-0.8,2.4-1.2c0.6-0.3,1.1-0.5,1.7-0.8
					c0.4-0.2,0.7-0.4,1.1-0.5C176.4,103.6,175.1,102.3,173.8,101z"/>
				<path class="st0" d="M247.3,69.8c-0.9-1.9-1.9-3.7-3-5.5c-1.7,1.2-3.3,2.6-4.8,4c-6.8,6.1-12.4,13.7-16.1,22.7
					c-0.5,1.1-0.9,2.2-1.2,3.3c-0.1,0.3-0.2,0.6-0.3,0.9c-0.1,0.4-0.3,0.8-0.4,1.2l0,0l0,0c0.4,0,0.8,0,1.2,0c0.6,0,1.3,0.1,1.9,0.1
					c1,0.1,1.9,0.1,2.9,0.2c0.1,0,0.3,0,0.4,0c0.5,0,0.9,0.1,1.4,0.1c1.1,0.1,2.2,0.3,3.3,0.4c0.4,0.1,0.8,0.1,1.3,0.2
					c1.5,0.2,2.9,0.5,4.3,0.8c0.6,0.1,1.1,0.2,1.7,0.4c0.9,0.2,1.8,0.4,2.7,0.6c0.6,0.2,1.2,0.3,1.9,0.5c0.8,0.2,1.7,0.5,2.5,0.7
					c0.1,0,0.2,0.1,0.3,0.1c0.5,0.2,1,0.3,1.5,0.5c0.9,0.3,1.7,0.6,2.6,0.9c0.5,0.2,1.1,0.4,1.6,0.6c0.1,0,0.2,0.1,0.3,0.1l0,0l0,0
					c0-0.3,0-0.6,0.1-1c0-0.4,0.1-0.8,0.1-1.2c0.1-1.1,0.1-2.2,0.1-3.4l0,0l0,0C253.5,87.2,251.3,78,247.3,69.8z"/>
				<path class="st0" d="M293.2,91.6c0-0.4,0-0.8-0.1-1.2c-0.3,0.1-0.5,0.1,0,0l0,0l0,0c0-0.4-0.1-0.9-0.1-1.3c0,0,0,0,0-0.1
					c0-0.4-0.1-0.7-0.1-1.1l0,0c-0.1-1.2-0.3-2.5-0.5-3.7l0,0l0,0c-2,0.5-4,1.1-6,1.8c-0.3,0.1-0.5,0.2-0.8,0.3
					c-0.8,0.3-1.7,0.6-2.5,1c-0.5,0.2-0.9,0.4-1.4,0.6c-0.6,0.3-1.3,0.6-1.9,0.9c-0.1,0-0.2,0.1-0.3,0.1c-0.2,0.1-0.4,0.2-0.6,0.3
					c-1.1,0.5-2.1,1.1-3.2,1.7c-0.3,0.1-0.5,0.3-0.8,0.4c-2.6,1.6-5.2,3.4-7.6,5.4c0,0,0,0-0.1,0.1c-1.5,1.2-2.9,2.5-4.3,3.9
					l-0.1,0.1l0,0l0,0l0,0c-1.2,1.2-2.3,2.4-3.4,3.7l0,0c-0.1,0.1-0.3,0.3-0.4,0.4l0,0l0,0c0.4,0.2,0.9,0.4,1.3,0.6
					c0.5,0.3,1.1,0.5,1.6,0.8c0.8,0.4,1.7,0.8,2.5,1.3c0.1,0,0.2,0.1,0.3,0.1l0,0l0,0c0.4,0.2,0.8,0.4,1.3,0.7
					c1,0.5,1.9,1.1,2.8,1.6c0.5,0.3,1.1,0.7,1.6,1c1,0.6,2,1.3,3,1.9c0.6,0.4,1.1,0.8,1.7,1.2c0.7,0.5,1.3,0.9,1.9,1.4
					c0.6,0.4,1.2,0.9,1.8,1.3c0.6,0.5,1.2,0.9,1.7,1.4c0.2,0.2,0.4,0.3,0.6,0.5c0.4,0.3,0.8,0.6,1.1,0.9c0.5,0.5,1.1,0.9,1.6,1.4
					c0.6,0.5,1.1,1,1.7,1.5c0.1,0.1,0.2,0.2,0.4,0.3c0.1-0.2,0.2-0.3,0.3-0.5c0.7-1.5,1.5-3,2.1-4.5c0.5-1.3,1-2.5,1.4-3.8
					c0.2-0.5,0.3-0.9,0.4-1.3c0.3-0.8,0.5-1.7,0.7-2.5c0.1-0.5,0.3-1,0.4-1.5c0.2-0.8,0.4-1.6,0.5-2.4c0.1-0.5,0.2-1,0.3-1.5
					c0.2-0.9,0.3-1.8,0.4-2.8c0-0.4,0.1-0.8,0.2-1.1c0.1-1.3,0.2-2.5,0.3-3.8c0-0.4,0-0.9,0-1.3c0-0.9,0-1.8,0-2.6
					C293.2,92.6,293.2,92.1,293.2,91.6z M264.9,107.7L264.9,107.7C264.9,107.7,264.8,107.6,264.9,107.7L264.9,107.7z"/>
				<path class="st0" d="M323.1,120.2L323.1,120.2c-9.1-0.5-18.4,0.9-27.4,4.7c-1.6,0.6-3.1,1.4-4.5,2.1c-0.2,0.1-0.4,0.2-0.5,0.3
					l0,0l0,0c0.2,0.2,0.4,0.5,0.7,0.7c0.4,0.5,0.9,1,1.3,1.5c0.6,0.6,1.1,1.3,1.6,1.9c0.2,0.2,0.4,0.5,0.6,0.7
					c0.2,0.3,0.4,0.5,0.6,0.8c0.5,0.7,1.1,1.4,1.6,2c0.4,0.5,0.8,1,1.1,1.5c0.6,0.9,1.3,1.8,1.9,2.6c0.4,0.5,0.8,1.1,1.1,1.6
					c0.6,1,1.3,1.9,1.9,2.9c0.3,0.5,0.6,1.1,0.9,1.6c0.4,0.8,0.9,1.5,1.3,2.3c0.2,0.3,0.4,0.7,0.5,1s0.3,0.5,0.4,0.8
					c0.4,0.7,0.8,1.5,1.2,2.3c0.3,0.6,0.6,1.2,0.9,1.8c0.1,0.3,0.3,0.6,0.4,0.9l0,0l0,0c0.1-0.1,0.2-0.2,0.3-0.3
					c1.2-1.1,2.5-2.2,3.7-3.3c0.9-0.9,1.7-1.7,2.5-2.6c-0.8,0.9-1.6,1.8-2.5,2.6c1.8-1.8,3.5-3.8,5.1-5.8c4.3-5.5,7.5-11.5,9.7-17.8
					c0.2-0.7,0.5-1.3,0.7-2c0.4-1.3,0.8-2.7,1.1-4C327.3,120.5,325.2,120.3,323.1,120.2z"/>
				<path class="st0" d="M343.8,166c-8.2-3.9-17.4-6.2-27.1-6.2c-1.1,0-2.3,0-3.4,0.1c-0.4,0-0.8,0-1.1,0.1c-0.3,0-0.7,0-1,0.1l0,0
					l0,0c0.1,0.2,0.1,0.3,0.2,0.5c0.3,0.7,0.5,1.4,0.7,2.1c0.3,0.7,0.5,1.4,0.7,2.2c0.1,0.4,0.3,0.9,0.4,1.3
					c0.1,0.3,0.2,0.5,0.2,0.7c0.2,0.7,0.4,1.5,0.6,2.2s0.4,1.4,0.6,2.1c0.2,0.8,0.4,1.7,0.6,2.6c0.2,1,0.4,2.1,0.6,3.1
					c0.2,0.9,0.4,1.9,0.5,2.8c0.1,0.7,0.2,1.5,0.3,2.2c0.1,0.8,0.2,1.5,0.3,2.3c0,0.4,0.1,0.8,0.1,1.2s0.1,0.7,0.1,1.1
					c0.1,0.8,0.1,1.5,0.2,2.3c0,0.8,0.1,1.5,0.1,2.3c0,0.2,0,0.4,0,0.6l0,0l0,0c0.3-0.1,0.6-0.2,0.9-0.3s0.7-0.2,1-0.3
					c1.1-0.4,2.1-0.8,3.2-1.2c9-3.7,16.7-9.4,22.7-16.2c1.4-1.6,2.7-3.2,4-4.9C347.6,167.8,345.7,166.9,343.8,166z"/>
				<path class="st0" d="M349.4,221c-1.2-1.7-2.6-3.3-3.9-4.8c-6.1-6.8-13.7-12.4-22.7-16.1c-1.7-0.7-3.4-1.3-5.2-1.9l0,0
					c-0.2,8.6-1.6,17.2-4.2,25.7c-0.6,2-1.3,4-2,6.1l0,0h0.1c1.7,0.1,3.5,0.2,5.3,0.2c7.7,0,15.2-1.4,22-4l0,0
					c1.3-0.5,2.6-1,3.9-1.6c0.1-0.1,0.3-0.1,0.4-0.2c1.2-0.5,2.3-1.1,3.4-1.7c0.2-0.1,0.4-0.2,0.6-0.4
					C347.9,221.9,348.6,221.5,349.4,221L349.4,221z"/>
			</g>
			<g>
				<path class="st0" d="M43.5,244.5l3.1-3.3c1,0.9,2,1.8,3.8,1.8c2.2,0,3.6-1.3,3.6-5v-40.5h5.5v40.4c0,6.5-3.6,9.8-8.8,9.8
					C47.3,247.7,45,246.1,43.5,244.5 M52.8,184.2c0-2.3,1.9-3.9,3.9-3.9c2.1,0,3.9,1.7,3.9,3.9c0,2.3-1.9,3.9-3.9,3.9
					C54.7,188,52.8,186.4,52.8,184.2"/>
				<path class="st0" d="M64.7,217.5v-20h5.5V217c0,5.7,2.7,8.8,8.1,8.8c6.2,0,10.2-3.9,10.2-10.3v-18H94v32.7h-5.5l0.2-6.6
					c-2.1,4.6-6.4,7.3-11.7,7.3C69.7,230.9,64.7,225.9,64.7,217.5"/>
				<path class="st0" d="M95.5,197.5h6.1l8.7,18.9c1,2.2,1.8,5.6,1.8,5.6s0.7-3.4,1.7-5.6l8.5-18.9h5.7l-15.6,33.3h-1L95.5,197.5z"
					/>
				<path class="st0" d="M144,226.1c4.9,0,8.2-2,10.3-4.3l3.4,3.3c-3,3.4-7.3,5.7-13.7,5.7c-10.7,0-17.7-7.4-17.7-17
					c0-9.5,7.3-17.1,16.9-17.1c10.5,0,16.8,8.1,16.4,18.9h-27.8C132.5,221.9,136.8,226.1,144,226.1 M154.1,211.5
					c-0.5-5.6-4-10-10.9-10c-6.2,0-10.4,4-11.3,10H154.1z"/>
				<path class="st0" d="M162.8,197.5h5.5l-0.2,6.7c2.1-4.7,6.5-7.4,11.8-7.4c7.3,0,12.2,5,12.2,13.5v19.9h-5.5v-19.3
					c0-5.8-2.7-9.1-8.1-9.1c-6.1,0-10.2,3.9-10.2,10.3v18h-5.5V197.5z"/>
				<path class="st0" d="M198.7,220.3v-18.1h-5.1v-4.7h5.1v-6.4h5.4v6.4h9.2v4.7h-9.2v18.2c0,4.3,1.5,5.7,3.9,5.7
					c2.2,0,3.4-1,4.4-1.9l3,3.5c-1.4,1.5-4,3.2-8,3.2C202.5,230.9,198.7,228,198.7,220.3"/>
				<path class="st0" d="M216.7,217.5v-20h5.5V217c0,5.7,2.7,8.8,8.1,8.8c6.2,0,10.2-3.9,10.2-10.3v-18h5.5v32.7h-5.5l0.2-6.6
					c-2.1,4.6-6.4,7.3-11.7,7.3C221.6,230.9,216.7,225.9,216.7,217.5"/>
				<path class="st0" d="M249.3,213.8c0-9.7,6.9-17,15.8-17c6.2,0,10.2,3.1,12.5,7.4v-31h5.4v57h-5.4l0.2-7
					c-2.2,4.5-6.8,7.6-12.6,7.6C256.2,230.8,249.3,223.5,249.3,213.8 M277.8,213.8c0-7-4.7-12.1-11.6-12.1s-11.3,5-11.3,12.1
					s4.4,12.2,11.3,12.2C273.2,226,277.8,220.9,277.8,213.8"/>
				<path class="st0" d="M69.7,171.8c0-9.5,7.3-17,17-17c5.8,0,9.9,2.2,12.9,5.8l-3.9,3.2c-2-2.6-4.8-4.2-8.9-4.2
					c-6.9,0-11.3,5.2-11.3,12.1c0,6.9,4.3,12.2,11.3,12.2c4.5,0,7.3-1.8,9.4-4.3l3.8,3.2c-3.1,3.7-7.1,5.8-13.2,5.8
					C77,188.7,69.7,181.3,69.7,171.8"/>
				<path class="st0" d="M103.6,175.5v-20h5.5V175c0,5.7,2.7,8.8,8.1,8.8c6.2,0,10.2-3.9,10.2-10.3v-18h5.5v32.7h-5.5l0.2-6.6
					c-2.1,4.6-6.4,7.3-11.7,7.3C108.5,188.8,103.6,183.8,103.6,175.5"/>
				<rect x="140.2" y="138" class="st0" width="5.5" height="50.1"/>
				<path class="st0" d="M154.9,178.2v-18.1h-5.1v-4.7h5.1v-17h5.4v17h9.2v4.7h-9.2v18.2c0,4.3,1.5,5.7,3.9,5.7
					c2.2,0,3.4-0.9,4.4-1.9l3,3.5c-1.4,1.5-3.9,3.2-8,3.2C158.7,188.8,154.9,186,154.9,178.2"/>
				<path class="st0" d="M174.5,175.5v-20h5.5V175c0,5.7,2.7,8.8,8,8.8c6.2,0,10.2-3.9,10.2-10.3v-18h5.5v32.7h-5.5l0.2-6.6
					c-2.1,4.6-6.4,7.3-11.7,7.3C179.5,188.8,174.5,183.8,174.5,175.5"/>
				<path class="st0" d="M210.7,155.4h5.5l-0.2,6.4c2-5,5.7-7,9.5-7c2.4,0,4.2,0.5,5.7,1.6l-2.1,4.8c-1-0.7-2.4-1.3-4.5-1.3
					c-4.7,0-8.4,3.3-8.4,11v17.2h-5.5V155.4z"/>
				<path class="st0" d="M253.3,168.1c0-6.3-2.8-8.8-7.7-8.8c-4.6,0-7.5,2-9.5,4.7l-3.4-3.1c2.8-3.9,7.1-6.3,13.3-6.3
					c7.3,0,12.8,4.3,12.8,13.3v20h-5.5l0.2-4.9c-2.2,3.3-5.6,5.5-10.8,5.5c-6.9,0-12-3.2-12-9.9s5.5-9.9,12.4-9.9h10.2V168.1z
					 M243.5,173.1c-4.2,0-7.4,1.5-7.4,5.4c0,3.7,2.8,5.7,7.9,5.7c5.1,0,9.3-2.8,9.3-7v-4.1L243.5,173.1L243.5,173.1z"/>
				<path class="st0" d="M168.6,134.6h0.2l5.7,7.2l5.7-7.2h0.2v12.5h-1.3V139c0-0.6,0.1-1.4,0.1-1.4s-0.5,0.8-0.9,1.3l-3.7,4.7h-0.2
					l-3.7-4.7c-0.4-0.5-0.9-1.3-0.9-1.3s0.1,0.9,0.1,1.4v8.1h-1.3L168.6,134.6L168.6,134.6z"/>
				<rect x="183.1" y="134.7" class="st0" width="1.3" height="12.3"/>
				<path class="st0" d="M189.1,138.5c-0.3-0.4-0.9-1.1-0.9-1.1s0.1,0.9,0.1,1.4v8.3h-1.2v-12.4h0.2l7.4,8.7
					c0.3,0.4,0.8,1.1,0.8,1.1s-0.1-0.9-0.1-1.4v-8.3h1.2v12.4h-0.2L189.1,138.5z"/>
				<rect x="199.4" y="134.7" class="st0" width="1.3" height="12.3"/>
				<path class="st0" d="M202.2,144.7l1.1-0.6c0.6,1,1.4,1.9,3.2,1.9c1.4,0,2.6-0.8,2.6-2.1c0-1.2-0.8-1.9-2.3-2.6l-1-0.5
					c-1.8-0.8-2.7-1.6-2.7-3.4c0-1.8,1.4-3,3.2-3c1.6,0,2.7,0.8,3.3,1.8l-1.1,0.7c-0.5-0.8-1.1-1.3-2.3-1.3s-2,0.7-2,1.8
					s0.6,1.6,2,2.2l1,0.5c2,0.9,3.1,1.9,3.1,3.8c0,2-1.6,3.3-3.8,3.3C204.2,147.2,202.9,146,202.2,144.7"/>
				<polygon class="st0" points="214.7,135.9 210.9,135.9 210.9,134.7 219.8,134.7 219.8,135.9 216,135.9 216,147.1 214.7,147.1 
									"/>
				<polygon class="st0" points="221.4,134.7 228.9,134.7 228.9,135.9 222.7,135.9 222.7,141.7 228.2,141.7 228.2,142.8 
					222.7,142.8 222.7,145.9 229.1,145.9 229.1,147.1 221.4,147.1 				"/>
				<path class="st0" d="M239.1,147.1h-1.5l-2.4-3.4c-0.4,0.1-0.9,0.1-1.3,0.1h-1.5v3.3h-1.3v-12.3h2.8c3.4,0,5.1,1.9,5.1,4.5
					c0,1.8-0.9,3.3-2.6,4L239.1,147.1z M233.9,142.7c2.8,0,3.8-1.4,3.8-3.4c0-1.9-1-3.4-3.8-3.4h-1.4v6.8L233.9,142.7L233.9,142.7z"
					/>
				<rect x="241.3" y="134.7" class="st0" width="1.3" height="12.3"/>
				<path class="st0" d="M244.6,140.9c0-3.7,2.8-6.3,6.3-6.3s6.3,2.6,6.3,6.3s-2.8,6.3-6.3,6.3C247.4,147.2,244.6,144.6,244.6,140.9
					 M255.9,140.9c0-2.9-2.1-5.1-5-5.1s-5,2.2-5,5.1c0,2.9,2.1,5.1,5,5.1C253.8,146,255.9,143.8,255.9,140.9"/>
				<path class="st0" d="M262.8,134.7h3c4.1,0,6.7,2.4,6.7,6.2c0,3.7-2.5,6.2-6.7,6.2h-3V134.7z M265.7,145.9c3.6,0,5.4-2,5.4-5
					c0-2.9-1.7-5-5.4-5h-1.6v10H265.7z"/>
				<polygon class="st0" points="274.4,134.7 281.9,134.7 281.9,135.9 275.7,135.9 275.7,141.7 281.2,141.7 281.2,142.8 
					275.7,142.8 275.7,145.9 282.1,145.9 282.1,147.1 274.4,147.1 				"/>
				<path class="st0" d="M271.9,164.3l-4.7-8.5h1.5l3.4,6.1c0.3,0.5,0.5,1.2,0.5,1.2s0.3-0.8,0.5-1.2l3.3-6.1h1.4l-4.6,8.4v3.9h-1.3
					L271.9,164.3L271.9,164.3z"/>
			</g>
		</g>
	</g>
</g>
</svg>
