<?xml version="1.0" encoding="utf-8"?>
<!-- Generator: Adobe Illustrator 22.0.1, SVG Export Plug-In . SVG Version: 6.00 Build 0)  -->
<svg version="1.1" id="Capa_1" xmlns="http://www.w3.org/2000/svg" xmlns:xlink="http://www.w3.org/1999/xlink" x="0px" y="0px"
	 viewBox="0 0 965.5 219.2" style="enable-background:new 0 0 965.5 219.2;" xml:space="preserve">
<style type="text/css">
	.st0{fill:#FFFFFF;}
	.st1{font-family:'MyriadPro-Regular';}
	.st2{font-size:23.0576px;}
	.st3{font-family:'MyriadPro-Bold';}
	.st4{font-size:26.9915px;}
</style>
<path class="st0" d="M667.6,123.2c-24.1,0-43.6-19.6-43.6-43.6c0-24.1,19.6-43.6,43.6-43.6c16.4,0,31.3,9.1,38.8,23.7
	c1.4,2.6,0.3,5.9-2.3,7.2c-2.6,1.4-5.9,0.3-7.2-2.3c-5.7-11-16.9-17.8-29.2-17.8c-18.1,0-32.9,14.7-32.9,32.9
	c0,18.1,14.8,32.9,32.9,32.9c12.6,0,24.2-7.3,29.7-18.7c1.3-2.7,4.5-3.8,7.2-2.5s3.8,4.5,2.5,7.2
	C699.7,113.5,684.3,123.2,667.6,123.2"/>
<path class="st0" d="M713,113.1c0,3,2.4,5.5,5.4,5.5h67.7c3,0,5.4-2.6,5.4-5.6s-2.4-5.6-5.4-5.6h-59.5c-1.6,0-2.9-1.2-2.9-2.9h-0.1
	V87.7c0-1.7,1.5-3.2,3.2-3.2h24.7c3,0,5.4-2.3,5.4-5.3s-2.4-5.3-5.4-5.3h-25c-1.6-0.6-2.8-1.8-2.8-3.5h-0.1V53.7
	c0-1.8,1.6-3.4,3.4-3.4h59.1c3,0,5.4-2.3,5.4-5.3s-2.4-5.3-5.4-5.3h-67.7c-3,0-5.4,2.5-5.4,5.4L713,113.1L713,113.1z"/>
<path class="st0" d="M904.3,110.7L870.5,43c-0.9-1.8-2.8-3-4.8-3s-3.9,1.2-4.8,3l-13.3,26.7c-1.7,3.6-4.3,4.1-5.8,4.1h-73.4
	c-3,0-5.4,2.3-5.4,5.3s2.4,5.3,5.4,5.3h34c1.7,0,2.6,1.5,2.6,3.2v59.3c0,3,2.6,5.4,5.6,5.4s5.6-2.4,5.6-5.4V87.6l0,0
	c0-1.7,1.3-3.2,3-3.2h17.2c1.3,0,2.4,1,2.4,2.3c0,0.3-0.2,0.9-0.4,1.4l-11.3,22.5c-1.3,2.7-0.3,5.9,2.4,7.2s5.7,0.3,7.1-2.4
	l13.2-26.7l0,0c0-0.1,0.2-0.1,0.2-0.2l0.2-0.4c1.2-2.3,3.1-3.8,6.3-3.8h8.7c3,0,5.4-2.3,5.4-5.3s-2.4-5.3-5.4-5.3h-2.4
	c-3.1,0-4.4-1.3-3.3-3.9v-0.1c0,0,5.8-11.6,5.9-11.7c0.2-0.4,0.5-0.4,0.7,0c0,0.1,28.7,57.4,28.7,57.4c0.9,1.9,2.8,3,4.8,3
	c0.8,0,1.6-0.2,2.4-0.6C904.6,116.6,905.7,113.4,904.3,110.7"/>
<path class="st0" d="M953.8,39.6c-2.7-1.3-5.9-0.3-7.2,2.4c0,0-28.5,57-28.7,57.4s-0.5,0.4-0.7,0C917,99,888.5,42,888.5,42
	c-1.3-2.7-4.6-3.7-7.2-2.4c-2.7,1.3-3.7,4.6-2.4,7.2l33.8,67.7c0.9,1.8,2.8,3,4.8,3s3.9-1.2,4.8-3l33.8-67.7
	C957.5,44.1,956.4,40.9,953.8,39.6"/>
<path class="st0" d="M832.5,127.4c-1.3,0-2.3,0.5-3.1,1.4s-1.1,2.2-1.1,3.8c0,1.7,0.4,3,1.1,3.9c0.7,0.9,1.8,1.3,3.1,1.3
	c0.6,0,1-0.1,1.5-0.2c0.5-0.1,0.9-0.3,1.5-0.5v1.9c-0.6,0.4-2.1,0.6-3.5,0.6c-2,0-3.5-0.6-4.6-1.8s-1.6-3-1.6-5.3
	c0-1.4,0.3-2.7,0.8-3.8s1.3-1.9,2.3-2.5s2.2-0.9,3.5-0.9c1.4,0,2.7,0.3,3.9,0.9l-0.8,1.9c-0.5-0.2-1-0.4-1.5-0.6
	C833.6,127.5,833.1,127.4,832.5,127.4"/>
<path class="st0" d="M842.9,139.7c-1.6,0-2.9-0.5-3.8-1.4c-0.9-1-1.4-2.3-1.4-3.9c0-1.7,0.4-3.1,1.3-4c0.9-1,2-1.5,3.5-1.5
	c1.4,0,2.4,0.4,3.2,1.3c0.8,0.8,1.1,2,1.1,3.5v0.9H840c0,1.2,0.3,1.9,0.8,2.5c0.5,0.5,1.2,0.9,2.2,0.9c0.6,0,1.1,0,1.6-0.1
	s1-0.3,1.6-0.6v1.8c-0.6,0.3-1,0.4-1.5,0.6C844.1,139.7,843.6,139.7,842.9,139.7 M842.5,130.6c-0.7,0-1.3,0.3-1.7,0.8
	s-0.7,0.9-0.8,2.1h4.8c0-1.2-0.2-1.6-0.6-2.1C843.7,130.9,843.2,130.6,842.5,130.6"/>
<path class="st0" d="M858.5,139.3h-2.4v-6.2c0-0.8,0-1.4-0.3-1.8c-0.3-0.4-0.8-0.6-1.5-0.6c-0.9,0-1.7,0.3-2.2,0.8
	c-0.4,0.6-0.7,1.5-0.7,2.8v4.9H849v-10h2.1l0.3,1.2h0.1c0.3-0.6,0.8-0.9,1.3-1.2c0.6-0.3,1.1-0.4,1.8-0.4c2.5,0,3.7,1.3,3.7,3.8v6.7
	H858.5z"/>
<path class="st0" d="M865.7,137.9c0.5,0,1.1-0.1,1.6-0.3v1.7c-0.6,0.1-0.6,0.2-1,0.3s-0.8,0.1-1.2,0.1c-2.1,0-3.1-1.1-3.1-3.3V131
	h-1.8v-1.2l1.7-0.7l0.9-2.1h1v2.4h3.5v1.8h-3.5v5.4c0,0.5,0.3,0.9,0.6,1.2C864.7,137.8,865.3,137.9,865.7,137.9"/>
<path class="st0" d="M875.4,128.9c0.4,0,0.8,0,1.1,0.1l-0.2,2.1c-0.3-0.1-0.6-0.1-1-0.1c-0.9,0-1.7,0.3-2.3,0.9
	c-0.6,0.6-0.9,1.3-0.9,2.3v5.2h-2.4v-10h2l0.3,1.8h0.1c0.3-0.6,0.8-1.2,1.4-1.5C874.1,129.1,874.7,128.9,875.4,128.9"/>
<path class="st0" d="M887.1,134.3c0,1.7-0.4,3.1-1.3,4c-0.9,1-2.1,1.4-3.7,1.4c-1,0-1.8-0.2-2.6-0.7c-0.8-0.4-1.3-1.1-1.7-1.9
	c-0.4-0.8-0.6-1.8-0.6-2.9c0-1.7,0.4-3,1.3-4c0.9-1,2.1-1.4,3.7-1.4c1.5,0,2.7,0.5,3.6,1.5C886.7,131.3,887.1,132.6,887.1,134.3
	 M879.5,134.3c0,2.4,0.9,3.6,2.7,3.6s2.7-1.2,2.7-3.6c0-2.4-0.9-3.6-2.7-3.6c-0.9,0-1.6,0.3-2,0.9
	C879.7,132.2,879.5,133.1,879.5,134.3"/>
<path class="st0" d="M897.4,139.7c-1.3,0-2.3-0.5-3.1-1.4c-0.7-0.9-1.1-2.3-1.1-4s0.4-3.1,1.1-4c0.7-1,1.8-1.4,3.1-1.4
	c1.4,0,2.4,0.4,3.1,1.5h0.1c-0.1-0.6,0.3-1.4,0.3-1.8v-4.1h1.8v14.7H901l-0.4-1.2h-0.1C899.8,139.3,898.8,139.7,897.4,139.7
	 M898,137.9c0.9,0,1.7-0.3,2.2-0.8c0.4-0.5,0.8-1.3,0.8-2.5v-0.3c0-1.3-0.4-2.3-0.8-2.8c-0.4-0.6-1.2-0.8-2.1-0.8
	c-0.8,0-1.4,0.3-1.8,1c-0.4,0.6-0.7,1.5-0.7,2.7s0.2,2.1,0.6,2.7C896.6,137.6,897.2,137.9,898,137.9"/>
<path class="st0" d="M910,139.7c-1.6,0-2.9-0.5-3.8-1.4c-0.9-1-1.4-2.3-1.4-3.9c0-1.7,0.4-3.1,1.3-4c0.9-1,2-1.5,3.5-1.5
	c1.4,0,2.4,0.4,3.2,1.3c0.8,0.8,1.2,2,1.2,3.5v0.9h-6.9c0,1.2,0.3,1.9,0.8,2.5c0.5,0.5,1.2,0.9,2.2,0.9c0.6,0,1.4,0,1.9-0.1
	s0.8-0.3,1.9-0.6v1.8c-0.6,0.3-1.3,0.4-1.9,0.6C911.5,139.7,910.7,139.7,910,139.7 M909.6,130.6c-0.7,0-1.3,0.3-1.7,0.8
	s-0.7,0.9-0.8,2.1h4.8c0-1.2-0.2-1.6-0.6-2.1C910.8,130.9,910.3,130.6,909.6,130.6"/>
<polygon class="st0" points="832.6,159.9 830.3,159.9 830.3,147.5 826.1,147.5 826.1,145.7 836.7,145.7 836.7,147.5 832.6,147.5 "/>
<path class="st0" d="M841.4,159.9c-1.6,0-2.9-0.5-3.8-1.4c-0.9-1-1.4-2.3-1.4-3.9c0-1.7,0.4-3.1,1.3-4c0.9-1,2-1.5,3.5-1.5
	c1.4,0,2.3,0.4,3.1,1.3c0.8,0.8,1,2,1,3.5v1.5h-6.5c0,0.6,0.3,1.7,0.8,2.2s1.3,0.8,2.2,0.8c0.6,0,1.2-0.1,1.8-0.2
	c0.5-0.1,1.2-0.3,1.8-0.6v1.8c-0.6,0.3-1.1,0.4-1.7,0.6C842.7,159.8,842.1,159.9,841.4,159.9 M840.9,150.7c-0.7,0-1.3,0.3-1.7,0.7
	s-0.7,0.8-0.8,2h4.8c0-1.2-0.2-1.6-0.6-2C842.2,150.9,841.7,150.7,840.9,150.7"/>
<path class="st0" d="M852.2,159.9c-1.6,0-2.8-0.5-3.6-1.4s-1.2-2.3-1.2-4c0-1.8,0.4-3.1,1.3-4.1c0.9-0.9,2.1-1.4,3.7-1.4
	c1.1,0,2.1,0.2,3,0.6l-0.7,1.8c-0.9-0.4-1.7-0.5-2.3-0.5c-1.8,0-2.7,1.2-2.7,3.6c0,1.2,0.2,2.1,0.7,2.7c0.5,0.6,1.1,0.9,1.9,0.9
	c1,0,1.6-0.2,2.8-0.7v1.9c-0.6,0.2-0.8,0.4-1.2,0.5C853.3,159.8,852.8,159.9,852.2,159.9"/>
<path class="st0" d="M867.4,159.9H865v-6.7c0-0.8-0.1-1.4-0.4-1.8c-0.3-0.4-0.8-0.6-1.5-0.6c-0.9,0-1.7,0.3-2.1,0.8
	c-0.4,0.6-0.7,1.5-0.7,2.8v5.4h-2.4v-10.6h2l0.3,1.2h0.1c0.3-0.6,0.8-0.8,1.3-1.1c0.6-0.3,1.2-0.4,1.9-0.4c2.5,0,3.8,1.3,3.8,3.9
	v7.1H867.4z"/>
<path class="st0" d="M879.8,154.4c0,1.7-0.4,3.1-1.3,4c-0.9,1-2.1,1.4-3.7,1.4c-1,0-1.8-0.2-2.6-0.7c-0.8-0.4-1.3-1.1-1.7-1.9
	c-0.4-0.8-0.6-1.8-0.6-2.9c0-1.7,0.4-3,1.3-4c0.9-1,2.1-1.4,3.7-1.4c1.5,0,2.7,0.5,3.6,1.5C879.4,151.4,879.8,152.7,879.8,154.4
	 M872.2,154.4c0,2.4,0.9,3.6,2.7,3.6s2.7-1.2,2.7-3.6c0-2.4-0.9-3.6-2.7-3.6c-0.9,0-1.6,0.3-2,0.9
	C872.4,152.4,872.2,153.2,872.2,154.4"/>
<rect x="882.1" y="145.2" class="st0" width="2.4" height="14.7"/>
<path class="st0" d="M897.1,154.4c0,1.7-0.4,3.1-1.3,4c-0.9,1-2.1,1.4-3.7,1.4c-1,0-1.8-0.2-2.6-0.7c-0.8-0.4-1.3-1.1-1.7-1.9
	c-0.4-0.8-0.6-1.8-0.6-2.9c0-1.7,0.4-3,1.3-4c0.9-1,2.1-1.4,3.7-1.4c1.5,0,2.7,0.5,3.6,1.5C896.6,151.4,897.1,152.7,897.1,154.4
	 M889.5,154.4c0,2.4,0.9,3.6,2.7,3.6s2.7-1.2,2.7-3.6c0-2.4-0.9-3.6-2.7-3.6c-0.9,0-1.6,0.3-2,0.9
	C889.7,152.4,889.5,153.2,889.5,154.4"/>
<path class="st0" d="M909.2,149.3v1.1l-1.9,0.3c0.2,0.2,0.3,0.5,0.4,0.8c0.1,0.3,0.1,0.7,0.1,1c0,1.1-0.4,1.9-1.1,2.6
	c-0.7,0.6-1.8,0.9-3.1,0.9c-0.3,0-0.6,0-0.9-0.1c-0.5,0.3-0.7,0.6-0.7,1c0,0.2,0.1,0.3,0.3,0.4c0.2,0.1,0.6,0.1,1.2,0.1h1.8
	c1.2,0,2,0.4,2.6,0.8c0.6,0.5,0.9,1.3,0.9,2.2c0,1.2-0.5,2.1-1.5,2.8c-1,0.6-2.4,1-4.2,1c-1.4,0-2.5-0.2-3.3-0.8
	c-0.8-0.5-1.1-1.2-1.1-2.2c0-0.6,0.2-1.2,0.6-1.6c0.4-0.4,1-0.7,1.7-0.9c-0.3-0.1-0.5-0.3-0.7-0.6s-0.3-0.6-0.3-0.9
	c0-0.4,0.1-0.7,0.3-1s0.5-0.5,1-0.8c-0.5-0.2-1-0.6-1.3-1.1s-0.5-1.1-0.5-1.9c0-1.1,0.4-2,1.1-2.6c0.7-0.6,1.7-0.9,3.1-0.9
	c0.3,0,0.6,0.1,0.9,0.1c0.3,0,0.6,0.2,0.7,0.2L909.2,149.3L909.2,149.3z M900.9,161.3c0,0.5,0.2,0.9,0.7,1.1c0.4,0.3,1,0.4,1.8,0.4
	c1.2,0,2.1-0.2,2.7-0.5c0.6-0.3,0.9-0.8,0.9-1.4c0-0.5-0.2-0.7-0.5-0.8c-0.3-0.2-0.9-0.2-1.8-0.2H903c-0.6,0-1.1,0-1.5,0.3
	C901,160.5,900.9,160.8,900.9,161.3 M901.8,152.6c0,0.7,0.2,1.2,0.5,1.5c0.3,0.4,0.8,0.5,1.5,0.5c1.3,0,1.9-0.7,1.9-2.1
	c0-0.7-0.2-1.2-0.5-1.6c-0.3-0.4-0.8-0.6-1.5-0.6c-0.6,0-1.1,0.2-1.5,0.5C902,151.3,901.8,151.9,901.8,152.6"/>
<path class="st0" d="M911.6,148.1v-0.4c0-0.4,0.7-1,1.1-1.6c0.4-0.5,0.7-0.9,0.9-1.5h2.2v0.4c0,0.4-0.6,1-1.3,1.6s-1,0.9-1.4,1.5
	H911.6z M913.9,159.9h-2.3v-10.6h2.4v10.6H913.9z"/>
<path class="st0" d="M924.2,159.9l-0.4-1.8h-0.1c-0.5,0.6-1,1.1-1.5,1.4c-0.5,0.2-1.2,0.4-2,0.4c-1,0-1.8-0.3-2.4-0.8
	c-0.6-0.6-0.9-1.3-0.9-2.4c0-1.1,0.4-1.9,1.2-2.4s1.9-0.8,3.6-0.9l1.7-0.1v-0.6c0-0.7,0-1.2-0.4-1.5c-0.3-0.3-0.7-0.5-1.4-0.5
	c-0.5,0-1,0.1-1.5,0.2c-0.5,0.2-1,0.3-1.4,0.6l-0.7-1.6c0.6-0.3,1.2-0.5,1.9-0.7s1.3-0.2,1.9-0.2c1.3,0,2.3,0.3,3,0.9
	c0.7,0.6,1,1.5,1,2.7v7.3L924.2,159.9L924.2,159.9z M920.9,158.1c0.8,0,1.4-0.2,1.8-0.7c0.5-0.5,0.6-1.1,0.6-1.9v-0.9l-1.2,0.1
	c-1,0-1.8,0.2-2.2,0.5c-0.5,0.3-0.7,0.8-0.7,1.4c0,0.5,0.2,0.8,0.4,1.1C919.9,158,920.3,158.1,920.9,158.1"/>
<path class="st0" d="M933.5,149.3h2.4l2.1,5.9c0.3,0.8,0.5,1.8,0.6,2.3h0.1c0.1-0.6,0.2-0.7,0.3-1.2c0.2-0.5,1-2.9,2.4-7h2.4
	l-4.5,11.8c-0.8,2.2-2.1,3.2-4,3.2c-0.5,0-0.8-0.1-1.4-0.2v-1.8c0,0.1,0.7,0.1,1.1,0.1c1.1,0,1.8-0.6,2.2-1.9l0.4-0.9L933.5,149.3z"
	/>
<path class="st0" d="M836.3,181.1l-1.4-4.1h-5.3l-1.4,4.1h-2.4L831,167h2.5l5.2,14.1H836.3z M834.3,175.2l-1.3-3.7
	c-0.1-0.3-0.2-0.6-0.4-1.2c-0.2-0.5-0.3-0.9-0.3-1.2c-0.2,0.8-0.4,1.6-0.8,2.5l-1.2,3.6L834.3,175.2L834.3,175.2z"/>
<path class="st0" d="M845.7,170.4c0.4,0,0.8,0,1.1,0.1l-0.2,2.1c-0.3-0.1-0.6-0.1-1-0.1c-0.9,0-1.6,0.3-2.2,0.9
	c-0.6,0.6-0.8,1.3-0.8,2.3v5.5h-2.4v-10.6h1.9l0.3,1.8h0.1c0.3-0.6,0.8-1,1.4-1.4C844.5,170.5,845.1,170.4,845.7,170.4"/>
<path class="st0" d="M853.9,179.5c0.5,0,1.1-0.1,1.7-0.3v1.7c-0.6,0.1-0.6,0.2-1,0.3s-1,0.1-1.5,0.1c-2.1,0-3.4-1.1-3.4-3.3v-5.7
	h-1.2v-1l1.6-0.9l0.9-2.3h1v2.4h2.9v1.8H852v5.6c0,0.5,0.3,0.9,0.6,1.2C852.9,179.3,853.5,179.5,853.9,179.5"/>
<path class="st0" d="M862.2,181.3c-1.6,0-2.9-0.5-3.8-1.4c-0.9-1-1.4-2.3-1.4-3.9c0-1.7,0.4-3.1,1.3-4c0.9-1,2-1.5,3.5-1.5
	c1.4,0,2.5,0.4,3.3,1.3c0.8,0.8,1.2,2,1.2,3.5v1.3h-7c0,1.2,0.3,1.8,0.8,2.3s1.2,0.8,2.2,0.8c0.6,0,1.1-0.1,1.7-0.2
	c0.5-0.1,1.1-0.3,1.7-0.6v1.8c-0.6,0.3-1,0.4-1.6,0.5C863.5,181.2,862.9,181.3,862.2,181.3 M861.7,172.1c-0.7,0-1.3,0.2-1.7,0.6
	c-0.4,0.4-0.7,1.3-0.8,1.9h4.8c0-0.6-0.2-1.5-0.6-1.9C863,172.3,862.5,172.1,861.7,172.1"/>
<path class="st0" d="M875.8,178.1c0,1-0.4,1.8-1.1,2.4c-0.7,0.5-1.9,0.8-3.3,0.8c-1.4,0-2.9-0.2-3.4-0.6v-1.9
	c1.2,0.6,2.5,0.9,3.5,0.9c1.4,0,2.1-0.4,2.1-1.2c0-0.3-0.1-0.5-0.2-0.7c-0.2-0.2-0.4-0.4-0.7-0.6c-0.3-0.2-0.8-0.4-1.4-0.6
	c-1.2-0.5-2-0.9-2.5-1.4c-0.4-0.5-0.6-1.1-0.6-1.8c0-0.9,0.4-1.6,1.1-2.1c0.7-0.5,1.7-0.7,3-0.7c1.2,0,2.4,0.2,3.5,0.7l-0.7,1.7
	c-1.1-0.5-2.1-0.7-2.9-0.7c-1.2,0-1.8,0.3-1.8,1c0,0.3,0.1,0.6,0.5,0.8c0.3,0.2,1,0.5,2,0.9c0.9,0.3,1.5,0.6,1.9,0.9
	c0.4,0.3,0.7,0.6,0.9,1C875.7,177.1,875.8,177.6,875.8,178.1"/>
<path class="st0" d="M892,167h2.4l-4.9,14.1h-2.4l-4.8-14.1h2.3l2.9,8.7c0.2,0.4,0.3,1,0.5,1.7c0.2,0.6,0.3,1.2,0.3,1.5
	c0.1-0.5,0.2-1,0.4-1.7c0.2-0.6,0.3-1.2,0.4-1.5L892,167z"/>
<path class="st0" d="M896.4,167.8c0-0.4,0.1-0.7,0.3-0.9s0.5-0.3,0.9-0.3s0.7,0.1,0.9,0.3s0.3,0.5,0.3,0.9s-0.1,0.7-0.3,0.9
	s-0.5,0.3-0.9,0.3s-0.7-0.1-0.9-0.3C896.5,168.5,896.4,168.2,896.4,167.8 M898.6,181.1h-2.4v-10.6h2.4V181.1z"/>
<path class="st0" d="M909,178.1c0,1-0.4,1.8-1.1,2.4c-0.7,0.5-2,0.8-3.4,0.8s-2.4-0.2-3.5-0.6v-1.9c1.2,0.6,2.6,0.9,3.6,0.9
	c1.4,0,2.1-0.4,2.1-1.2c0-0.3,0-0.5-0.2-0.7c-0.1-0.2-0.4-0.4-0.7-0.6c-0.3-0.2-0.8-0.4-1.4-0.6c-1.2-0.5-2-0.9-2.4-1.4
	s-0.6-1.1-0.6-1.8c0-0.9,0.4-1.6,1.1-2.1c0.7-0.5,1.7-0.7,3-0.7c1.2,0,2.4,0.2,3.5,0.7l-0.7,1.7c-1.1-0.5-2.1-0.7-2.9-0.7
	c-1.2,0-1.8,0.3-1.8,1c0,0.3,0.2,0.6,0.5,0.8s1,0.5,2,0.9c0.9,0.3,1.5,0.6,1.9,0.9c0.4,0.3,0.7,0.6,0.9,1
	C908.9,177.1,909,177.6,909,178.1"/>
<path class="st0" d="M918.8,181.1l-0.3-1.2h-0.1c-0.3,0-0.8,0.8-1.3,1c-0.6,0.3-1.2,0.4-2,0.4c-1.3,0-2.4-0.3-3-1
	c-0.6-0.6-1.1-1.6-1.1-2.9v-6.9h2.4v6.6c0,0.8,0.3,1.4,0.6,1.8c0.3,0.4,0.9,0.6,1.6,0.6c0.9,0,1.5-0.3,2-0.8
	c0.4-0.6,0.6-1.5,0.6-2.8v-5.3h2.4v10.6h-1.8V181.1z"/>
<path class="st0" d="M930.3,181.1l-0.4-1.8h-0.1c-0.5,1.2-1,1.2-1.5,1.4s-1.2,0.4-2,0.4c-1,0-1.8-0.2-2.4-0.8
	c-0.6-0.6-0.9-1.3-0.9-2.3c0-1.1,0.4-1.9,1.2-2.4c0.8-0.6,1.8-0.9,3.5-0.9l1.6-0.1V174c0-0.7,0.1-1.2-0.3-1.5
	c-0.3-0.3-0.7-0.5-1.3-0.5c-0.5,0-1,0.1-1.5,0.2c-0.5,0.2-0.9,0.3-1.4,0.6l-0.7-1.6c0.6-0.3,1.2-0.5,1.9-0.7s1.3-0.2,1.9-0.2
	c1.3,0,2.2,0.3,2.9,0.9c0.7,0.6,0.9,1.5,0.9,2.7v7.1h-1.4V181.1z M927,179.5c0.8,0,1.3-0.2,1.7-0.7c0.5-0.5,0.5-1.1,0.5-1.9V176
	l-1.1,0.1c-1.1,0-1.7,0.2-2.2,0.5s-0.7,0.8-0.7,1.4c0,0.5,0.2,0.8,0.4,1.1C926,179.4,926.4,179.5,927,179.5"/>
<rect x="934" y="166.4" class="st0" width="1.8" height="14.7"/>
<path class="st0" d="M943.2,181.3c-1.6,0-2.9-0.5-3.8-1.4c-0.9-1-1.4-2.3-1.4-3.9c0-1.7,0.4-3.1,1.3-4c0.9-1,2-1.5,3.5-1.5
	c1.4,0,2.3,0.4,3.1,1.3c0.8,0.8,1,2,1,3.5v1.3h-6.6c0,1.2,0.3,1.8,0.8,2.3s1.2,0.8,2.2,0.8c0.6,0,1.3-0.1,1.8-0.2
	c0.5-0.1,0.6-0.3,1.8-0.6v1.8c-0.6,0.3-1.2,0.4-1.7,0.5C944.7,181.2,944,181.3,943.2,181.3 M942.8,172.1c-0.7,0-1.3,0.2-1.7,0.6
	c-0.4,0.4-0.7,1.3-0.8,1.9h4.8c0-0.6-0.2-1.5-0.6-1.9C944.1,172.3,943.5,172.1,942.8,172.1"/>
<path class="st0" d="M956.9,178.1c0,1-0.4,1.8-1.1,2.4c-0.8,0.5-1.8,0.8-3.2,0.8s-2.7-0.2-3.3-0.6v-1.9c1.2,0.6,2.3,0.9,3.4,0.9
	c1.4,0,2-0.4,2-1.2c0-0.3-0.1-0.5-0.2-0.7c-0.2-0.2-0.4-0.4-0.8-0.6c-0.3-0.2-0.8-0.4-1.5-0.6c-1.2-0.5-2-0.9-2.5-1.4
	c-0.4-0.5-0.6-1.1-0.6-1.8c0-0.9,0.4-1.6,1.1-2.1c0.7-0.5,1.7-0.7,3-0.7c1.2,0,2.4,0.2,3.5,0.7L956,173c-1.1-0.5-2.1-0.7-2.9-0.7
	c-1.2,0-1.8,0.3-1.8,1c0,0.3,0.2,0.6,0.5,0.8s1,0.5,2,0.9c0.9,0.3,1.5,0.6,1.9,0.9c0.4,0.3,0.7,0.6,0.9,1
	C956.8,177.1,956.9,177.6,956.9,178.1"/>
<g>
	<text transform="matrix(1 0 0 1 416.6669 186.6432)" class="st0 st1 st2">P</text>
	<text transform="matrix(1 0 0 1 427.8669 186.6432)" class="st0 st1 st2">a</text>
	<text transform="matrix(1 0 0 1 438.5669 186.6432)" class="st0 st1 st2">r</text>
	<text transform="matrix(1 0 0 1 445.3669 186.6432)" class="st0 st1 st2">q</text>
	<text transform="matrix(1 0 0 1 457.9669 186.6432)" class="st0 st1 st2">u</text>
	<text transform="matrix(1 0 0 1 470.1669 186.6432)" class="st0 st1 st2">e</text>
	<path class="st0" d="M538.3,112.5c0.2,0.2,0.1,0.8,0.3,1c-0.1,0-0.2,0-0.3,0.1c0.1,0.1,0.2,0,0.3,0.1c-0.3,0.5,0.1,0.7-0.2,1.1
		c0.2,0.5-0.1,1.4,0,2c-0.3,0.2,0,0.5-0.2,0.7c0.2,0.4-0.3,0.9-0.3,1.4c-0.1,1-1,2.6-1.4,3.6c0,0.1,0.1,0.1,0.1,0.1
		c-0.1,0.2-0.3,0.4-0.4,0.6c0,0.1,0,0.2,0,0.2c-0.2,0.4-0.6,0.6-0.6,0.9c-0.1,0-0.1,0-0.2,0c-0.5,0.9-1.1,1.8-1.8,2.6
		c0.1,0.1-0.1,0.1,0,0.3c-0.6,0.5-1.1,1.2-1.6,1.9c1.2,2.3,2.3,3.8,3.7,5.9c0.1,0.8,1,1.2,1.2,1.9c0.7,1,1.7,2.1,2,3.1
		c0.6,0.4,0.6,1.5,1.2,1.8c0,0.5,0.3,0.8,0.3,1.3c-0.2,0.3,0.2,1,0.1,1.3c0,0.1-0.3,0-0.1,0.2c-0.3,0.1-0.7,0.3-0.8,0.6
		c-0.6,0.1-1.5,0.1-1.9,0.2c0.3,0.6-0.1,0.6-0.2,1.1c-0.5-0.1-0.6,0.2-1.1,0.1c0,0.2,0.2,0.3,0.3,0.4c-0.1,0.1-0.3,0.1-0.6,0.1
		c-0.1-0.1-0.1-0.1,0-0.2c-0.3,0-0.3,0.2-0.5-0.1c-0.2,0.3,0,0.6-0.3,0.8c0.1,0,0.1,0.1,0.1,0.3c-0.3,0.3-0.2,0.8-0.4,1.1
		c0.1,0.2,0,0.3,0.1,0.5c-0.2,0-0.2,0-0.3,0c0,0.2,0.2,0.1,0.2,0.3c-0.1,0-0.2-0.1-0.4,0c-0.1-0.2-0.2-0.2-0.3-0.1
		c-0.1-0.2-0.2-0.3-0.4-0.4c-0.3,0.2-0.5,0.3-0.5,0.7c-0.1,0.1-0.1,0.1-0.3,0c0.1,0.2,0.3,0.3,0.5,0.4c-0.2,0.2-0.6-0.1-0.8,0.1
		c-0.1,0,0-0.1-0.1-0.2c-0.2,0,0.1,0.2-0.2,0.2c-0.1-0.1-0.2-0.1-0.1-0.2c-0.2,0.1-0.4-0.5-0.6-0.7c-0.2-0.1-0.4,0-0.6-0.2
		c-0.2,0.1-0.3,0.2-0.5,0.3c-0.1-0.1-0.3-0.1-0.3-0.3l-0.1,0.1c-0.2,0.3,0.3,0.6,0.5,0.5c0.1,0.2-0.1,0.2-0.1,0.4
		c0.1-0.1,0.1-0.2,0.2-0.3c0.1,0.2,0.4,0.1,0.4,0.4c-0.7,0.2-1-0.5-1.7-0.9c-0.2,0.4-0.3,0.8-0.8,0.8c-0.4-0.4-0.9-0.3-1.3-0.6
		c-0.3-0.5-0.8-0.7-1.2-1.2c0-0.1,0-0.2,0-0.2c-0.5-0.2-0.5-0.9-0.9-1.2c-0.1-0.7-0.8-1.2-1-2.1c-0.7-1-1.1-1.8-1.7-2.9
		c-0.5-0.5-0.6-1.3-1.1-1.7c0-0.1,0-0.1,0-0.2c-0.5-0.6-0.7-1.2-1.2-1.7c-3.2,1.7-6.2,3.2-9.7,4.3c-0.1,0,0,0.1,0,0.2
		c-0.8,0.1-1.4,0.4-2,0.6c0.5,2.5,1.7,6.2,2.5,8.8c0.1,0,0.2,0,0.3,0c0.6,1.6,0.7,2.9,1.3,4.4c0.2,1.6,0.9,3.3,1.3,4.6
		c0,0.1,0.1,0.1,0.2,0.1c-0.3,0.4,0.3,0.9,0.2,1.3c0.3,0.2,0.1,0.8,0.4,1.2c-0.1,0.8,0.5,1.9,0.6,3c-0.1,0-0.2,0-0.3,0.1
		c-0.1-0.1-0.4-0.2-0.3-0.4c-0.3,0-0.2,0.2-0.4,0.2c0.4,0.5,0,1,0.2,1.7c-0.3,0.4-0.2,0.5-0.4,0.9c-0.3,0.1-0.4-0.1-0.7-0.1
		c-0.3,0.1-0.5,0.4-0.7,0.4c-0.4,0.1-0.7-0.3-1.2-0.2c-0.4,0.3-0.3,0.5-0.3,0.9c-0.3,0.1-0.2,0.3-0.6,0.4c0,0.1,0.2,0.1,0.1,0.2
		c-0.1,0.1-0.1-0.1-0.2-0.1c-0.1,0,0,0.2,0,0.3c-0.2,0-0.3-0.1-0.4-0.1c-0.2,0.2-0.3,0.6-0.6,0.7c-0.2-0.1-0.4,0.1-0.4-0.1
		c-0.6,0.3-1.5,0.3-1.8,0.9c-0.3,0-0.5,0.2-0.8,0.2c0-0.1-0.2-0.2,0-0.2c-0.6,0-0.6-0.9-1-1.3c-0.2,0-0.3,0-0.5,0.1
		c-0.1-0.2-0.2-0.3-0.3-0.5c-0.4,0.1,0,0.5-0.4,0.7c0,0.1,0.1,0.1,0.1,0c0.2,0.2-0.2,0.4-0.2,0.6c-0.8,0.2-0.8-1.1-1.4-1.2
		c0.1-0.1,0.1-0.3-0.1-0.3c-0.1,0.5,0.1,1.3-0.6,1.7c0.1-0.2-0.5-0.5-0.5-1c-0.3-0.1-0.4,0.1-0.4,0.4c-0.1,0-0.2,0.1-0.3,0.2
		c-0.8-0.1-1.1-0.9-1.3-1.5c-0.5-0.8-0.4-2-1-2.9c0.1-0.4-0.1-0.6-0.2-0.8c0.1,0,0.1,0,0.1-0.1c-0.6-1.6-0.5-3.3-1.2-4.8
		c-0.5-3.1-1.2-5.9-2.1-8.6c0.1-0.2,0.1-0.1,0.2-0.2c-0.1-0.1-0.2-0.1-0.3-0.2c-0.1-0.8-0.5-1.6-0.5-2.6c-0.4-1-0.6-2.3-0.8-3.3
		c-0.9,0.1-2.4,0.3-3.5,0.4c-0.3,0-0.6,0-0.9,0c-2.2,0-4.2,0.2-6.7,0.2c-0.1,0.3-0.2,0.6-0.2,0.8c0,1.6-0.4,3.3-0.3,4.7
		c0,0-0.1,0.1-0.2,0.1c0,0.4,0.2,0.7-0.1,0.9c0.2,0.8-0.1,1.9,0,2.9c0.4,0.2,0.4,0.5,0.3,0.9c-0.2,0,0-0.1-0.2-0.2
		c-0.2,1-0.4,1.9-0.4,3c0,0.1,0.1,0.6,0.1,0.8c0,0.6-0.2,1.2-0.4,1.9c0,0.2,0.1,0.2,0.1,0.3c0,0-0.1-0.1-0.2,0c0,0.8-0.6,2-0.9,3.1
		c0,0.1,0,0.3,0,0.4c0,0.1-0.2,0.3-0.2,0.5l0.1,0.1c-0.1,0.2-0.4,0.4-0.4,0.6c-0.1,0,0,0,0-0.1c0,0.5-0.5,0.7-0.8,0.7
		c-0.1-0.1-0.3-0.1-0.1-0.2c0-0.1-0.2,0.1-0.2-0.2c-0.1,0.4-0.2,0-0.4,0.2c-0.2-0.3-0.6-0.1-0.9-0.5c-0.1,0.2-0.6,0-0.8,0.2
		c0-0.3-0.1-0.1-0.3,0c-0.1,0.2,0.2,0,0.2,0.1c-0.2,0.2-0.3,0.5-0.6,0.4c0.1,0.1,0.1,0.1-0.1,0.1c-0.1,0-0.1,0.1,0,0.1
		c-0.2,0-0.3,0.2-0.5,0.1c-0.1,0.1,0,0.2,0.1,0.2c-0.6,0.1-0.7-0.9-1.3-0.8c-0.6,0-0.9,1.1-1.6,0.7c-0.1,0.3-1.5,0.7-1.4-0.3
		c-0.3-0.2-0.1-0.7-0.1-1c0-0.1-0.3-0.1-0.1-0.3c-0.2-0.3-0.4,0.1-0.8,0c-0.6,0.6-0.9,1.3-1.3,2c-0.4-0.1-0.3-0.6,0-0.8
		c0-0.6-0.3-1.4,0-1.8c0-0.2-0.2-0.1-0.1-0.4c-0.7,0.1-0.5,0.8-1.1,1c-0.1-0.1,0.1-0.2,0.1-0.4c0-0.1-0.1,0-0.1,0.1
		c-0.4-0.8,0.2-1.8-0.7-1.8c-0.1-0.3-0.2-1-0.7-1c0-0.2,0.2-0.1,0.1-0.3c-0.2,0,0,0.1-0.2,0.2c-0.1-0.1,0-0.6-0.1-0.6
		c0.2-0.2-0.1-0.8,0.1-1.1c-0.1-0.6-0.1-2.1,0.1-2.9c0,0,0.1,0.1,0.1,0c-0.2-0.2,0.1-0.3-0.1-0.4c0.3-1.4,0.3-3,0.4-4.1
		c0.1,0,0.1,0,0.2,0c-0.3-0.1,0.1-0.4-0.2-0.3c0-0.1,0.1-0.1,0.2-0.1c-0.1-0.3-0.2-0.7,0.1-0.8c-0.3-0.4,0.1-1,0.1-1.5
		c0-0.1-0.1,0-0.1,0c-0.1-0.4,0-1.1,0.2-1.5c0,0,0.1,0.1,0.1,0c0.1-0.5,0-1.1,0-1.5h0.1c0-0.1-0.2-0.1,0-0.1
		c-0.1-0.7,0.1-1.7,0.2-2.4c-0.8-0.3-2-0.6-3-0.9c-0.7-0.2-1.3-0.4-1.7-0.8c0.3-0.2,0-0.4,0-0.7c0-0.2,0.4-0.5,0.2-0.9
		c0.4-0.1,0-0.7,0.2-1c0-0.3-0.3-0.8-0.2-1.2c0.1-0.3,0.4-0.7,0.3-1c-0.5,0-0.8-0.1-1.2-0.3c-0.1-0.4-0.2-0.6-0.2-1
		c0.3-0.2,0.5-0.5,0.5-0.8c-0.1-0.1-0.3-0.2-0.5-0.3c-0.5-0.5,0.2-1,0.5-1.4c0.4,0.1,0.3-0.3,0.6-0.2c0-0.2,0-0.5,0.1-0.8
		c-0.3-0.1,0.3-0.7-0.2-1.1c-0.1-0.1,0.2-0.3,0-0.4c0-0.1,0.1-0.1,0.2-0.1c0-0.4-0.1-0.5,0.1-0.6c0-0.2-0.1-0.5-0.1-0.7
		c0.1-0.5,0.4-0.7,0.9-0.9c0.1-0.1,0.2-0.3,0.4-0.3c0.3-0.1,0.8,0,1.1-0.2c0.7-0.3,1.7-0.4,2.7-0.2c0.2,0,0.4,0.2,0.7,0.2
		c0.4,0.1,0.9,0,1.2,0.1c0,0,0,0.2,0.1,0.2c0.4,0.1,1.1,0,1.4,0.3c0.6-0.1,1.1,0.1,1.6,0.1c1.1,0.1,2.4-0.2,3.6-0.3
		c0.5,0,0.9,0,1.4,0c0.6,0,1.4-0.2,1.7,0c1.3-0.4,2.5,0,3.6-0.1s2.1-0.4,3.2-0.5c0.3,0,0.6,0,0.8,0c2.8-0.3,5.6-1.2,8.3-1.6
		c0.8-0.1,1.7-0.3,2.5-0.4c1.9-0.5,4.3-1.1,5.8-2.2c1-0.3,2-0.7,2.7-1.3c1.3-0.4,2.5-1,3.7-1.6c0.3-0.1,0.5-0.4,0.8-0.6
		c0.3-0.2,0.7-0.2,1-0.4c0.6-0.4,1.2-1,1.9-1.3c0.1,0-0.1-0.1,0-0.2c0.2,0.1,0.2-0.1,0.3-0.1c0.2-0.5,0.9-0.5,1.1-1.1
		c1.5-1.1,2.6-2.7,4.1-3.8c0.6-1,1.6-1.8,2.2-2.9c0.6-0.5,0.8-1.4,1.4-2c0-0.3,0.2-0.6,0.4-0.8c0.2-0.6,0.8-1.2,1.1-1.9
		c0,0,0.1-0.1,0.2-0.1c0-0.2,0.2-0.6,0.4-0.6c0-0.1,0.2-0.6,0.5-0.6c-0.2,0,0.1-0.4,0.2-0.2c-0.1-0.3,0-0.1,0-0.4
		c0.4,0,0.4-0.9,0.9-0.5c0.2-0.1-0.2-0.1-0.2-0.3c0.6-0.5,1.3-1.3,1.6-2c0.9-0.1,1.5,0,1.7-0.6c0.1,0.1,0.2,0.1,0.2,0.4
		c0.3,0.2,1.1,0.7,0.8,1.3c0,0.1,0.1,0.1,0.3,0.1c-0.2,0,0,0.5-0.2,0.4c0.4,0.2-0.1,0.8,0.5,0.8c0.2,0,0.6-0.5,0.6-0.8
		c0-0.2,0.1,0,0.2-0.2c0,0-0.1-0.1-0.1,0c0.1-0.2,0.5-0.5,0.6-0.6c0.5-0.2,1.1,0.5,1.7,0.7c0.1,0,0.2-0.1,0.3-0.1
		c0.2,0.2,0.3,0.4,0.5,0.5c-0.1,0.4,0.2,0.9,0.2,1.4c0.5,0.2,0.9,1.4,1.8,1.3c0.2,0.2,0.6,0.2,0.7,0.4c0.2,0.6,0.3,1.9,0.1,2.7
		C538.4,112.1,538.5,112.5,538.3,112.5 M535.9,108.7c0,0.1,0.2,0,0.2,0.1c-0.2,0.1,0.1,0.1,0,0.4c0.2-0.1,0.4-0.1,0.3-0.1
		c-0.1-0.1,0-0.1,0-0.3c-0.1-0.1-0.2-0.1-0.3-0.1C536.2,108.6,535.9,108.6,535.9,108.7z"/>
	<path class="st0" d="M523.5,76.8L523.5,76.8C523.3,76.8,523.3,76.8,523.5,76.8 M523.7,76.8c-0.1,0-0.2,0-0.2,0
		C523.5,76.9,523.6,76.9,523.7,76.8z M528.7,93.1c0.1,0,0.1,0,0.2-0.1c-0.3,0-0.5,0-0.8,0C528.2,93.1,528.4,93.1,528.7,93.1z
		 M528.9,93L528.9,93c0.1,0.1,0.3,0.1,0.5,0.1c-0.1,0-0.1,0-0.2-0.1C529.2,93,529.1,93,528.9,93z M535.3,85.6c0.1,0,0.1-0.1,0.1-0.2
		c-0.2-0.3-0.5-0.6-0.7-0.8c0.4-0.1,0.1-0.6,0.1-0.9c0.2,0,0.2-0.2,0.4-0.2c0.1-0.2-0.2,0-0.2-0.2c-0.1-0.6-0.5-0.9-0.8-1.2
		c-0.3,0.1-0.5,0-0.8-0.2c-0.6-0.1-0.9,0.3-1.2,0c0.1,0,0.1-0.1,0-0.2c0.5,0,0.9-0.2,1.2-0.1c0.2-0.2,0.3-0.4,0.5-0.5
		c-0.3-0.5,0.3-0.6,0.2-1c-0.2-0.1-0.3-0.2-0.3-0.4c0.1-0.2,0.3-0.3,0.3-0.6c-0.3-0.3-0.6-0.5-0.9-0.7c-0.1,0-0.3,0-0.4,0
		c-0.3-0.3-1.2,0-1.4-0.5c0.3-0.1,0.8-0.1,0.9-0.4c-0.7-0.3-1.6-0.4-2.6-0.6l0,0c-0.2,0-0.5,0-0.7,0c-1.3,0-2.7,0-3.8-0.1
		c-0.7,0.1-1.6,0.3-2.7,0.1c-0.2-0.6-0.1-1.2-0.2-1.8c0-0.1-0.2-0.1-0.2-0.2c0-0.2-0.1-0.5-0.1-0.8c-0.2-1.2-0.4-2.6-0.7-4
		c-0.1-0.3-0.4-0.8-0.3-1c-0.2-0.1-0.2-0.4-0.2-0.6c-0.5-1-0.6-1.9-1.3-3.1c0.2-0.1-0.1-0.2,0-0.3c-0.1-0.1-0.2,0.1-0.2,0
		c0.2-0.1-0.1-0.6-0.3-0.7c0.1-0.3-0.1-0.6-0.3-0.7c0.1-0.1-0.1-0.2,0-0.3c-0.3,0-0.2-0.3-0.2-0.5c-0.1,0-0.1,0-0.2,0
		c0-0.3-0.1-0.7-0.4-0.8c-0.4-1-1.2-1.9-1.9-2.6c0-0.3-0.3-0.3-0.3-0.4c-0.1-0.2-0.2-0.4-0.4-0.6c-0.3-0.4-1-0.9-1.3-1.1
		c-0.4-0.3-0.7-0.8-1.2-1c-0.3-0.2-0.5-0.1-0.6-0.4c-0.1,0-0.2,0-0.3,0c0-0.3-0.3-0.1-0.4-0.4c-0.7-0.2-1.3-0.7-1.9-0.9
		c-0.5-0.2-1.3-0.4-1.7-0.6c-0.5-0.2-1.1-0.4-1.6-0.7c-1.1,0-2.6-0.8-3.8-0.9c-0.5-0.3-1.3-0.5-1.8-0.5c-1.2-0.4-2.4-0.8-3.7-1
		c-0.5-0.3-1.2-0.4-1.8-0.5c-2.3-0.8-4.8-1-7.1-1.5c-0.4,0.2-0.8-0.1-1.3,0c0-1-0.2-2.4,0-3.2c0.1-0.5,0-1.5,0-2.2
		c0-0.5,0-0.8,0-1.1c0-0.1,0.1-0.3,0.1-0.4c0-0.3-0.1-0.5-0.1-0.8c-0.1-1.1-0.3-2.1-0.2-3.1c-0.3-0.1,0-0.6-0.2-0.8
		c0-0.2,0.1-0.3,0.1-0.5c-0.3-0.7-0.1-1.6-0.2-2.6c0-0.5-0.1-0.9-0.1-1.3l0,0c0-0.9,0-1.9-0.1-2.9c0-0.2,0.1-0.5,0.1-0.6l-0.2-0.1
		c-0.1-0.5,0.2-1.2,0.1-1.7c0,0-0.1,0-0.1-0.1c0-0.9-0.1-1.8-0.1-2.7c-0.1-0.1-0.2-0.2-0.2-0.3c0-0.8-0.2-1.8-0.4-2.5
		c0-0.5-0.2-1-0.4-1.3c0.1-0.8-0.3-1.8-0.2-2.5c-0.5-0.5-0.2-1.5-0.6-2.1c0-0.4-0.2-0.7,0-1c-0.1,0-0.1,0-0.2-0.1
		c-0.1-1-0.7-1.9-0.5-2.7c-0.1,0-0.2,0-0.2-0.1c0.2-0.9-0.3-1.4-0.4-2.2c-0.3,0-0.2-0.3-0.2-0.4c-0.4-0.1-0.7-0.5-1-0.6
		c0.1-0.1,0-0.1,0-0.3c-0.8-0.6-1.6-0.2-2.4-0.8c0,0.1,0,0.2-0.1,0.2c-0.6-0.1-1.3,0-1.8,0.2c-0.2-0.2-0.3-0.4-0.4-0.7
		c-0.5,0.1-1.1-0.1-1.4,0.1c-0.3,0.8-0.9-0.1-1.8,0c-0.2,0.1-0.3,0.3-0.6,0.2c-0.2,0.3-0.5,0.4-0.8,0.6c0.1,0.2,0.4,0.2,0.6,0.4
		c-0.3,0-0.9,0-1.2-0.2c-0.9,0.2-1.4-0.2-2.1-0.3c-0.5,0.2-1.1,0.2-1.7,0.3c-0.2,0.3-0.4,0.7-0.5,1c-0.2,0.7-0.2,1.7-0.1,2.1
		c-0.2,1.3,0,2.9,0.1,4.2c0,0.6-0.1,1.3,0.1,1.8c-0.3,0.3,0.1,0.7-0.1,1c0.2,0.6,0.1,1.2,0.1,1.8c0.1,0.1,0.1-0.1,0.2,0
		c-0.3,0.2,0.1,1-0.1,1.2c0.1,0.6,0.1,1.1,0.1,1.7c-0.1,0-0.1,0-0.2-0.1c0,0,0,0,0,0.1c0.1,0,0.2,0,0.2,0.1
		c-0.2-0.1-0.1,0.1-0.2,0.2c0.2,1.5-0.1,3.1-0.1,4.5c0,0.4,0.1,0.8,0.1,1.2c0,0.1,0,0.2,0,0.3c0.1,3.8,0.2,7,0.6,10.5
		c-0.2,0.6-0.1,1.3-0.1,2c0.1,2.1,0,4.1,0.2,6.2c-0.5,0-1.1,0-1.7,0c-0.4,0-0.8,0.2-1.2,0.2v-0.1c-0.6-0.1-1.8,0.2-2.4,0.2
		c-3.1,0.2-6.7,0.7-10.1,1c0-0.1,0-0.1-0.1-0.2c0.1,0,0.1,0,0.2,0c-0.1-1,0.1-1.8-0.1-2.4c0.1,0,0.1,0.1,0.1,0.1
		c-0.2-0.4-0.2-0.8,0-1c-0.1-0.1-0.2-0.2-0.2-0.4c0-0.2,0.2-0.3,0.2-0.5c-0.2-0.4-0.2-0.7-0.2-1.2c-0.3,0.1-0.2-0.9,0-1
		c0-0.4-0.1,0.1-0.2-0.2c0-0.2,0.1-0.2,0.2-0.4c-0.1,0-0.2-0.1-0.2-0.3c0.3-0.6-0.1-1.3-0.1-2c0-0.3,0.1-1.4-0.2-1.5
		c0.1-0.4,0.1-0.8,0-1.1c-0.1-0.8-0.3-2.2-0.4-3.1c-0.5-3.1-0.6-6.6-1.6-9.4c-0.2,0.2-0.2-0.3-0.2-0.5c-0.7-0.4-1.2-0.3-2,0
		c0-0.2-0.2-0.1-0.1-0.4c-0.3,0.2-0.5-0.2-0.8,0.1c-0.9-0.9-2-0.6-2.7,0.6c-0.2,0-0.3-0.1-0.4-0.2c-0.1,0.1,0.1,0.2,0,0.3
		c-1.2-0.4-2.3,1.6-2.4,3.4c0,0.3,0.1,0.5-0.1,0.7c-0.3-0.4-0.7-0.9-0.7-1.6c-0.4-0.2-0.5-0.8-0.8-1c-0.5,0.8-0.9-0.5-1.3-0.5
		c-0.1,0.2,0,0.6-0.1,0.7c-0.2-0.1-0.3-0.3-0.6-0.2c-0.1,0.2-0.1,0.3,0,0.5c-0.2,0.4-0.6,0.1-0.7,0.5c0.1,0,0.1,0.1,0.1,0.3
		c-0.1,0-0.1-0.3-0.2-0.1c0.1,0.7-0.2,0.9-0.2,1.9c-0.1-0.1-0.1,0.2-0.2,0.2c-0.3,2.3-0.4,4.4-0.3,7c0,0.1-0.2,0.1-0.1,0.4
		c0.3,2.2-0.2,4.7,0,6.7c-0.1,0-0.1,0.1-0.2,0c0.1,1.4,0,2.2,0.2,3.5c0.2,0.2,0,0.8,0.1,1.3c0,0.4,0.2,1.2,0.3,1.5
		c0.1,0.6,0,1.1,0.1,1.5c0.1,0.5,0.3,1.1,0.2,1.5c-1.5,0.6-2.7,1.4-4.1,2c-2.2,1.7-5.2,3.1-7.2,4.8c-0.5,0.1-1,0.9-1.6,1.2
		c-0.2,0.4-1,1-1,1.5c0-0.1-0.1-0.1-0.2-0.1c-0.5,1.2-1.7,2.8-2,4.5c-0.8,1.3-1.3,3.2-1.7,5.3c-0.3,0.7-0.4,1.5-0.5,2.1
		c-0.1,0.7-0.1,1.4-0.3,2c-0.1,1.1-0.1,2.3-0.1,3.5c0,0.2,0,0.5,0,0.7c-0.1,1-0.3,1.8-0.1,2.8c0.2,1.2,0.8,2.5,0.9,3.9
		c0.1,0,0.1,0.1,0.2,0.2c0.2,1.5,0.8,2.6,1.1,4.2c0.9,2,1.3,3.9,1.6,6c0.1,1,0.1,2.2,0.2,3.2c0.1,0.7,0.3,1.5,0.5,2.2
		c0,0.2,0.2,0.2,0.2,0.4c0,0.8,0.4,1.6,0.5,2.4c0.5,1,0.9,2.1,1.3,3c0.3,0.2,0.3,0.8,0.6,0.9c0.1,0.5,0.7,1.2,0.7,1.6
		c2.3,4.7,7.5,6.6,11.9,9c-0.1,2.9,0.3,6,0.1,8.8c0.1,1.1,0,2.6-0.2,3.9c0.2,0.2,0.1,0.8-0.1,0.9c0.1,3.4-0.5,5.7-0.2,9.2
		c0.1,0.1,0.2,0.2,0.3,0.3c-0.1,0.5-0.2,1.4,0.4,1.5c-0.1-0.2-0.3-1,0.2-1c0.3,0.2,0.2,0.6,0.5,0.8c1.5-0.5,1,1.3,1.1,2
		c0.1,0,0.2,0,0.3,0c0-0.4,0-0.6,0.3-0.9c0,0.1,0,0.1,0.1,0.2c0-0.3-0.1-0.5,0-0.7c0.3-0.1,0.4,0.1,0.5,0.2c-0.2-0.1,0,0.2-0.2,0.2
		c0-0.1-0.2-0.2-0.2,0c0.2,0.1,0.2,0.3,0.2,0.5c0.2-0.1,0.6,0.1,0.7,0.3c0.5-0.1,0.4,0.4,0.7,0.7c0,0.5-0.3,1.1,0.1,1.2
		c0-0.3,0.2-1,0.2-1.4c0.2,0.1,0.1-0.2,0.4-0.2s0.7,0.1,0.8,0.5c0.2-0.2,0-0.1,0-0.3c0.2-0.1,0.9-0.1,1-0.3c0.4,0.1,0.5,0,0.8-0.1
		c0.1,0.1,0.1,0.2,0.3,0.1c0.1-0.2,0-0.2-0.1-0.4c0.4,0,0.5-0.1,0.9,0.2c-0.1-0.3,0.3,0,0.3-0.2c0.2,0.1,0.1,0.5,0.4,0.6
		c0.1,0,0-0.2,0.1-0.2c0,0.1,0,0.2,0.1,0.2c0.1-0.1,0.2-0.1,0.3-0.2c-0.1,0.1,0,0.2,0.1,0.3c0.1-0.1,0.1-0.2,0.3-0.3
		c-0.6-0.4,0.6-0.9,0.7-1c0.4,0.1,0.2,0,0.8,0.1c0.1-0.3,0.3-0.1,0.5-0.2c0.1,0.1,0.2,0.2,0.3,0.2c0-0.1,0.1,0,0.1,0
		c0-0.2,0.2-0.1,0.1-0.3c0.1,0,0.2,0.2,0.3,0.1c0.1-0.2,0.2-0.5,0.5-0.5c0-0.2-0.1-0.3-0.2-0.4c0.3,0,0-0.3,0.4-0.3
		c-0.1-0.4,0.4-0.4,0.7-0.6c-0.1-0.3,0.1-0.3,0.2-0.4c0.1-0.5,0-1.1,0.3-1.5c-0.1-0.4,0-0.9,0.2-1.4c-0.1-1.1,0.3-2.6,0.2-3.6
		c0.4-1.6,0.2-3.9,0.3-5.8c0.1-0.8,0-2.1,0-2.4c-0.1-0.7,0.3-1.8,0-2.1c0.1,0,0.2,0,0.2-0.1c-0.1,0-0.1-0.1,0-0.1
		c-0.1-1.1,0-1.9-0.2-2.9c0.2-0.7,0-1.3,0.1-2c-0.9-0.7-0.7-2.6,0.2-3.1c0-1,0-1.9,0.1-2.8c0.2-0.1,0.1,0,0.3,0.2
		c0-0.1,0-0.2,0.1-0.2c-0.1-0.2-0.1-0.1-0.1-0.3c0.2,0,0.3-0.1,0.4-0.2c-0.1-0.3,0.2-0.4,0-0.6c0.1-0.1,0.2-0.2,0.2-0.4
		c-0.2-0.1-0.3-0.3-0.4-0.4c0.1-0.2,0.1-0.3,0.2-0.5c-0.2-0.1-0.3-0.3-0.5-0.4c0.2,0,0-0.1,0-0.2c0.1,0,0.1,0.1,0.2,0
		c-0.2-0.1,0-0.6-0.3-0.6c0.1-0.3-0.1-0.3,0.1-0.5c-0.3-0.3,0-0.8-0.1-1.1c0-0.1-0.1-0.2-0.1-0.3c0-0.6,0.1-1.2,0.1-1.8
		c0-0.4-0.1-0.7-0.1-1.1c0-0.4,0.1-0.9,0.1-1.3c0-0.2-0.2-0.5,0.1-0.6c-0.2,0-0.1-0.1-0.2-0.2c0.1-1.4-0.1-3.4,0.1-5.3
		c-0.3-0.3,0-0.9,0.1-1.1c-0.1,0-0.2,0-0.2,0c-0.1-1.1-0.1-2.6-0.3-3.7c0.1-2.1-0.2-4-0.2-6.1c-0.4-1.6-0.4-3.6-0.7-5.4
		c0-0.2,0-0.1,0.1-0.3c-0.2-0.7-0.3-1.7-0.4-2.5c0-0.3,0.1-0.5,0-0.8s-0.2-0.6,0-0.9c-0.1,0-0.2,0-0.2,0c0-1.5-0.2-3.1,0-4.2
		c-0.1,0-0.1-0.2-0.1-0.3c0.1,0,0-0.2,0.2-0.2c-0.3-1.5,0.2-3,0.2-4.6c0-1.3-0.1-2.7-0.2-4c1.7-0.2,3.1-0.5,4.6-0.5
		c3.6-0.7,6.8-1.1,10.4-1.2c0,0.3-0.1,0.7,0,1c-0.2,0.7-0.2,1.8-0.1,2.3c-0.2,1-0.2,2.1,0,2.8c-0.2,1-0.1,2.3-0.1,3.5
		c0,0.1,0,0.2,0,0.3c0,2.8-0.2,5.6-0.3,8.2c0,0.7-0.3,1.6-0.2,1.9c0,0.2,0.2,0.3,0,0.4c0.2,0.2,0.1,0.3,0.3,0.5
		c-0.2,0.6,0.1,1.2,0.3,1.8c0,0.1-0.1,0-0.1,0.2c0.5,1.4,1.1,2.9,1.8,4c0.1,0,0.3,0,0.4,0c0-0.1,0.1-0.3,0.2-0.3
		c0.4-0.1,0.4,0.2,0.6,0.4c0,0.1-0.2,0.2-0.3,0.3c0.2,0.2,0.3,0.5,0.7,0.4c0,0.2,0.5,0.4,0.5,0.7c0.3,0,0.7,0.1,1,0.2
		c0-0.2,0.1,0,0.3-0.1c0.1-0.2-0.1-0.3,0.1-0.4c0.4,0,0.5,0.4,0.9,0.2c1.5,0.6,3.2,0.6,4.8,0.4c0,0.1,0,0.3,0.1,0.4
		c0.3,0,0.2-0.4,0.5-0.5c1.2-0.1,3-0.2,4.1-0.1c0.5-0.2,0.9-0.1,1.6-0.1c0.3-0.4,0.8-0.2,1.2-0.2c1.9,0,3.9,0,5.6-0.1
		c0.1,0.2,0.3,0.1,0.3,0.1c0.1,0,0.1-0.1,0.2-0.1c0.6,0.1,1.6,0,2,0c0.2,0,0.5,0.1,0.7,0.1c1.4,0,2.6-0.1,4-0.1c1.2,0,2.6-0.1,4-0.1
		s3.5-0.1,4.9,0c0,0.5,0,0.8-0.2,1.1c0,1.4-0.9,2.7-1.7,3.9c-0.3,0.9-1.2,1.8-1.4,2.9c-0.2,0.1-0.5,0.5-0.5,0.8
		c-0.1,0-0.1-0.1-0.2,0c-0.3,0.6-0.8,1.1-1,1.9c-0.1,0-0.1,0.1-0.2,0.1c0,0.3-0.1,0.3-0.1,0.6c-0.1,0-0.1-0.1-0.2,0
		c-0.5,0.7-1.3,1.1-2.1,1.6c-0.1,0.1,0.1,0.1,0,0.2c-0.3,0.1-0.6,0.2-0.7,0.4c-0.8,0.3-1.5,0.4-2.3,0.6c0.1-0.2-0.1,0-0.3,0
		c0-0.1,0-0.2-0.1-0.2c-0.3,0-0.5,0.2-0.7,0c-0.1,0.1-0.2,0.2-0.3,0.2c-1.4,0.2-3.3,0.6-4.3,0.7c-1.3,0.1-2.5,0.4-3.6,0.4
		c0,0.3-0.1,0-0.2,0.1c-0.3,0.1-0.4,0.2-0.8,0.2c-0.3,0-0.9,0.1-1-0.1c-0.5,0.4-1.6,0.4-2.4,0.5c-1.8,0.3-3.4,0.4-5.3,0.8
		c-0.3,0.1-0.7,0-1,0.1c-0.1,0-0.2,0.2-0.3,0.2c-0.4,0.1-1.3,0.1-1.4,0.1c0,0.1,0,0.1-0.1,0.2c-0.9-0.1-2.1,0-2.9,0
		c-0.5,0-1,0.2-1.5,0.2c0,0,0-0.1-0.1-0.1c-0.8-0.2-1.7,0.4-2.7,0.1c-0.7,0.1-1.2,0.3-2.2,0.4c-0.6,0.3-1.3,0-1.7,0.7
		c0.1,0.1,0.2,0.2,0.2,0.3c-0.6,0.1-0.9-0.1-1.3-0.3c-0.2,0.3-0.4,0.6-0.6,0.9c0.2,0.1,0.1,0.3,0.1,0.5c-0.9,0.3-0.8,1.8-1.8,1.8
		c0,0.3-0.5,0.3-0.6,0.5c0,0.5,0.1,0.7-0.2,1c-0.2,0.2-0.8,0.5-0.4,0.6c0,0.1-0.3,0-0.3,0.1c0,0.7,0.3,1.6,0.5,2.5
		c-0.2,0.2-0.4,0.7-0.8,0.7c0.1,0.3,0,0.4-0.1,0.7c0.1,0.1,0.3,0.2,0.3,0.4c-0.1,0.1-0.4,0-0.4,0.2c0.3,0.6,1.1,0.6,1.6,1.1
		c-0.2,0.2,0.1,0.1,0,0.3c0.1,0,0.2,0,0.3,0.1c0.1,0.4-0.3,0.7-0.4,0.3c0,0.2,0.1,0.4,0,0.5c0.7,0.4,1.3,1,1.7,1.6
		c0,0.4,0.3,0.4,0.6,0.6c-0.1,0-0.1,0-0.2,0.1c1,0.3,2.1,0.5,3.1,0.4c0.9,0.3,2.2,0.3,3.1,0.3c0.7,0,1.5,0.1,2.1,0.1
		c0.5,0,0.9-0.1,1.4-0.1c0.2,0,0.5,0.1,0.7,0.1c2.5,0.1,4.7-0.6,7.6-0.9c0-0.1,0.2-0.1,0.2-0.2c0,0.2,0.4,0,0.4,0.1
		c1.4-0.4,3-0.4,4.2-0.8c0,0.2,0.2,0.1,0.4,0.1c1.3-0.2,2.4-0.4,3.4-0.6c0.3-0.1,1.1-0.2,1.3-0.2c0.7,0,1.7-0.3,2.3-0.3
		c0.2,0,0.6,0.1,0.6-0.1c0.6,0.1,1.9-0.2,2.4-0.3c0.2,0.2,0.3,0,0.5,0c0.8-0.1,2-0.1,2.7-0.6c0.3-0.1,0.5,0,0.9-0.2
		c-0.1,0-0.1-0.1,0-0.1c0.2,0.2,0.6-0.1,0.8-0.2c2.2-0.3,3.2-2.1,5.4-2.4c0-0.1,0-0.2,0-0.2c0.1,0.1,0.3,0.2,0.3,0
		c0,0.1,0.2,0,0.1,0.2c0.4-0.2,0.8-0.1,1.2-0.3c0.4-0.4,1.1-0.7,1.7-1.1c-0.1,0-0.1-0.1-0.1-0.2c0.2,0,0.1,0.2,0.3,0.2
		c0.1-0.1,0.4-0.3,0.4-0.1c0-0.1,0.1-0.1,0.1-0.2c1-0.3,1.7-1.1,2.8-1.5c0.3-0.9,0.8-1.3,1.3-2c-0.1,0,0.1-0.2,0-0.3
		c0.2-0.1,0.3-0.3,0.3-0.6c0.5-0.5,0.8-1.2,1.2-1.8c0.2-0.3,0.7-0.7,0.6-1.1c0.1,0,0.1,0.1,0.2,0c0-0.3,0.3-0.3,0.3-0.7
		c0.4-0.6,0.9-1.1,1.3-1.7c0.3-0.4,0.8-1.1,0.9-1.4c0.6-0.4,0.9-1,1.1-1.6c0.2-0.7,1.1-1.6,1-2.3c0.2-0.3,0.1-0.8,0.2-1.2
		c0-0.2,0.2-0.3,0.3-0.4c0.1-0.3,0-0.6,0.1-0.9c0,0,0.1-0.1,0.2-0.1c0.1-0.3,0.1-0.7,0.1-1.1c0.5-1.6,0.3-4,0.8-5.9
		c1.7-0.1,3.3,0,4.9,0c-0.4-0.1,0.1-0.1,0.9,0l0.1-0.1c0.1,0,0.2,0,0.2,0.1c0.5,0,1,0,1.4,0.1c0.1,0,0.1,0,0.2,0c0,0-0.1-0.1,0-0.1
		c1.1,0.1,0.6,0.1-0.2,0.1c-0.4,0-0.8,0-1.2,0c1.1,0.3,2.4,0,3.3-0.2c0.1-0.1-0.1-0.1-0.1-0.4c0.4-0.1,0.7,0.1,1-0.3
		c0.2-0.4,0-0.7,0.3-0.9c0.2-0.1,0.9-0.2,1.1-0.1c0.1-0.1,0.2-0.2,0.1-0.4c-0.3-0.2-0.6-0.4-0.9-0.6c-0.1-0.3-0.1-0.5,0.1-0.7
		c0.3,0,0.6-0.1,0.6-0.4c-0.2-0.3-0.7-0.2-0.7-0.7c0.2,0,0.4,0.2,0.6,0c-0.6-0.8,0.2-1.4,0.9-1.2C536.4,86.5,535.6,86.2,535.3,85.6z
		 M437.5,105.6c-1.2-2.8-1.3-6.5-2.4-9.8c0-0.1-0.1-0.1-0.2-0.1c0-0.8-0.9-1.9-0.8-2.6c0-0.1-0.3,0-0.3-0.1c0-0.6-0.5-0.5-0.5-1.3
		c-0.4-0.4-0.3-1.1-0.7-1.3c-0.3-1.6-1-2.4-1.4-3.8c-0.4-0.2-0.2-0.7-0.7-0.8c-0.2-1,0.3-2.6,0.1-3.5c0.4-0.6,0.2-1.4,0.6-1.9
		c-0.1-1.2,0.5-2.6,0.6-3.6c0.3-1.1,1.4-1.8,1.7-3c0.4-0.2,0.7-0.7,1.3-0.9c0.7-0.7,1.8-1.1,2.6-1.7c0.2,0.4,0,0.8,0,1.3
		c0,0.3,0,0.9,0,1.1c-0.1,2.2-0.2,4.7-0.2,7.1c0,0.8-0.1,1.6-0.1,2.4s0.2,1.7,0.1,2.5c-0.1,1,0.1,2.6-0.1,3.5c0.1,0.5,0.3,1.1,0,1.6
		c0.4,1,0,2.6,0.4,3.4c-0.2,0.9,0.3,2.1,0,3.2c0.2,0.7,0.2,1.8,0,2.5c0.1,1.1,0.1,2.4-0.1,3.5c0,0.1,0.1,0.2,0.2,0.4
		C437.3,104.3,437.7,105.1,437.5,105.6z M441.5,146.7c0-0.1,0.1-0.1,0.2-0.1c-0.1,0.2-0.1,0.2,0.1,0.2
		C441.9,146.9,441.6,146.8,441.5,146.7z M506.6,76.6c-1.3-0.1-3.8-0.5-5.2-0.2c-0.3-0.2-0.9-0.1-1.2,0c0-0.1,0.1-0.1,0.2-0.1
		c-2.6-0.1-5.1,0.2-7.7,0.2c-0.4,0.2-1.2,0-1.4,0.2c-1.7-0.1-2.7,0.1-4.4,0.2c-0.1-2.1,0-3.7,0.1-6c-0.1,0-0.2,0-0.2,0.1
		c-0.1,0,0-0.2,0.2-0.2c-0.1-0.8,0.1-1.7,0.1-2.6c0-0.1-0.1-0.1-0.1-0.1c0-0.5,0.3-0.9,0-1.3c0.1-0.1,0.2-0.1,0.2-0.2
		c0-0.9,0.1-1.1,0.1-2.2c3,0.5,7,1.4,10.5,2.3c0.8,0.2,1.7,0.4,2.5,0.5c0.3,0.1,0.5,0.3,0.7,0.3c0.3,0,0.9,0.1,1.3,0.3
		c0.2,0.1,0.4,0.3,0.5,0.2c0.1,0,0,0.1,0,0.1c0.5,0.1,0.8,0.6,1.2,0.8c0.4,0.3,0.6,0.6,0.9,1c0,0.1-0.1,0.1-0.1,0.2
		c1.2,1.7,1.5,4.1,1.9,6C506.8,76.4,506.5,76.5,506.6,76.6z M463.4,111.3c0.1-0.3,0.3-0.1,0.5-0.2
		C463.8,111.4,463.7,111.2,463.4,111.3z M531.8,77c-0.7,0-1.4,0-2.1,0l0,0C531.1,77,532.1,77,531.8,77z M529.3,76.6
		c-0.5,0.1-1.3,0.3-1.8,0c-1.1,0.4-2.6-0.1-3.7,0.2h-0.1c0.9,0.1,3.3,0.1,5.2,0.1c0.2,0,0.5,0,0.7,0
		C529.6,76.8,529.5,76.7,529.3,76.6z"/>
	<text transform="matrix(1 0 0 1 416.7411 212.5867)" class="st0 st3 st4">La</text>
	<text transform="matrix(1 0 0 1 442.6411 212.5867)" class="st0 st3 st4"> </text>
	<text transform="matrix(1 0 0 1 447.0411 212.5867)" class="st0 st3 st4">Libe</text>
	<text transform="matrix(1 0 0 1 494.4411 212.5867)" class="st0 st3 st4">r</text>
	<text transform="matrix(1 0 0 1 504.2411 212.5867)" class="st0 st3 st4">ta</text>
	<text transform="matrix(1 0 0 1 526.2411 212.5867)" class="st0 st3 st4">d</text>
</g>
<rect x="374.5" y="11.4" class="st0" width="3.8" height="195"/>
<rect x="579.8" y="11.4" class="st0" width="3.8" height="195"/>
<g>
	<g>
		<g>
			<g>
				<path class="st0" d="M236.4,25.7c6.2,7.9,10.2,17.3,11.6,27.2c2-0.7,4-1.3,6-1.8c-1.9-11.8-7-22.8-15-31.8
					c-12,0.7-23.5,4.9-33.1,12c1.1,1.8,2.1,3.6,3,5.5C216.9,30.7,226.5,26.9,236.4,25.7z"/>
				<path class="st0" d="M289.1,93.9c9.9,1.4,19.4,5.4,27.3,11.7c-1.2,10-5,19.4-11,27.5c1.9,0.9,3.7,1.9,5.5,3
					c7-9.6,11.2-21.1,11.9-33.1c-9-7.9-20.1-13.1-31.9-15c-0.3,1.4-0.7,2.7-1.1,4C289.6,92.6,289.4,93.2,289.1,93.9z"/>
				<path class="st0" d="M334.7,162c-5.3-10.8-13.6-19.8-23.8-26.1c-1.2,1.7-2.6,3.3-4,4.9c8.6,5.1,15.8,12.4,20.7,21.2
					c-4.9,8.8-12.1,16.1-20.7,21.2c1.4,1.6,2.7,3.2,3.9,4.8C321.1,181.8,329.4,172.7,334.7,162z"/>
				<path class="st0" d="M123.4,25.9c10,1.2,19.5,5,27.5,11c0.9-1.9,1.9-3.7,3-5.5c-9.6-7-21.1-11.2-33.1-11.9
					c-7.9,9-13.1,20.1-15,32c2,0.5,4,1.1,6,1.8C113.2,43.2,117.2,33.8,123.4,25.9z"/>
				<path class="st0" d="M289.3,52.7c-11.4-3.9-23.6-4.4-35.2-1.6c0.2,1.2,0.3,2.5,0.5,3.7c0,0.4,0.1,0.8,0.1,1.2
					c0,0.4,0.1,0.9,0.1,1.3l0,0l0,0l0,0l0,0h0.1c0.9-0.2,1.8-0.4,2.7-0.6c0.3-0.1,0.6-0.1,0.9-0.2c1-0.2,2-0.3,3-0.4
					c0.2,0,0.5-0.1,0.7-0.1c1-0.1,2.1-0.2,3.1-0.3c0.2,0,0.4,0,0.6-0.1c1-0.1,2.1-0.1,3.1-0.1c0.2,0,0.4,0,0.6,0
					c1,0,2.1,0.1,3.1,0.1c0.2,0,0.4,0,0.6,0c1,0.1,2,0.2,3,0.3c0.2,0,0.5,0,0.7,0.1c1,0.1,2,0.3,3,0.5c0.2,0,0.5,0.1,0.7,0.1
					c1.2,0.3,2.4,0.6,3.6,0.9c2.7,9.7,2.8,19.9,0.4,29.6l0,0c2.1,0.1,4.2,0.3,6.2,0.6C293.7,76.3,293.2,64.1,289.3,52.7z"/>
				<path class="st0" d="M179.9,7.6c-10.8,5.3-19.8,13.6-26.1,23.8l0,0c1.7,1.2,3.3,2.6,4.9,4l0,0c5.1-8.7,12.4-15.8,21.2-20.8
					c8.8,4.9,16.1,12,21.2,20.7c1.6-1.4,3.2-2.7,4.8-4C199.7,21.1,190.7,12.8,179.9,7.6z"/>
				<path class="st0" d="M176.8,63.2c-0.1-0.3-0.2-0.7-0.3-1s-0.2-0.7-0.3-1c-0.4-1.1-0.8-2.1-1.2-3.2c-3.7-9-9.3-16.6-16.2-22.7
					l0,0c-1.6-1.4-3.2-2.7-4.9-4c-1.1,1.8-2,3.6-3,5.5l0,0c-2.7,5.7-4.7,11.8-5.6,18.3c-0.4,2.9-0.6,5.8-0.6,8.8
					c0,1.1,0,2.3,0.1,3.4c0,0.4,0,0.8,0.1,1.2c0,0.4,0,0.7,0.1,1.1l0,0l0,0c0.1-0.1,0.3-0.1,0.4-0.2c0.6-0.2,1.2-0.4,1.8-0.7
					c0.8-0.3,1.6-0.5,2.4-0.8c0.5-0.1,0.9-0.3,1.4-0.4c0.2-0.1,0.4-0.1,0.6-0.2c0.8-0.2,1.6-0.5,2.4-0.7c0.7-0.2,1.3-0.4,2-0.5
					c0.9-0.2,1.8-0.4,2.7-0.6c0.6-0.1,1.1-0.3,1.7-0.4c1.4-0.3,2.8-0.5,4.3-0.8c0.6-0.1,1.2-0.2,1.8-0.2c0.9-0.1,1.9-0.3,2.8-0.4
					c0.4,0,0.8-0.1,1.2-0.1c0.3,0,0.5-0.1,0.8-0.1c0.9-0.1,1.8-0.2,2.7-0.2c0.7,0,1.3-0.1,2-0.1C176.2,63.3,176.5,63.3,176.8,63.2
					C176.8,63.3,176.8,63.3,176.8,63.2L176.8,63.2z"/>
				<path class="st0" d="M135.4,68c-6.9-6.9-15-11.8-23.6-14.8c-2-0.7-4-1.3-6-1.8l0,0c-0.1,0.5-0.1,1-0.2,1.5
					c-0.1,0.7-0.2,1.4-0.3,2.2c-0.1,0.7-0.1,1.4-0.2,2.1c0,0.7-0.1,1.4-0.1,2.1s0,1.5,0,2.2s0,1.4,0,2.1c0,0.8,0.1,1.5,0.2,2.3
					c0.1,0.7,0.1,1.3,0.2,2c0.1,0.8,0.2,1.6,0.3,2.4c0.1,0.6,0.2,1.3,0.3,1.9c0.2,0.9,0.4,1.7,0.6,2.6c0.1,0.6,0.2,1.1,0.4,1.7
					c0.3,1,0.6,2,0.9,3c0.1,0.4,0.2,0.9,0.4,1.3c0.5,1.4,1,2.8,1.6,4.3v0.1c0.7,1.6,1.4,3.1,2.1,4.6c0.1,0.1,0.1,0.3,0.2,0.4l0,0
					l0,0c0.2-0.2,0.3-0.3,0.5-0.5c0.5-0.5,1.1-1,1.6-1.5c0.6-0.5,1.1-1,1.7-1.5c0.3-0.3,0.6-0.5,0.9-0.8c0.2-0.2,0.5-0.4,0.7-0.6
					c0.6-0.5,1.2-1,1.9-1.4c0.5-0.4,1.1-0.8,1.6-1.2c0.7-0.5,1.5-1.1,2.3-1.6c0.4-0.3,0.9-0.6,1.3-0.9c1.2-0.8,2.4-1.6,3.6-2.3
					c0.5-0.3,0.9-0.5,1.4-0.8c0.8-0.5,1.7-1,2.5-1.4c0.5-0.3,1.1-0.6,1.6-0.9c0.8-0.4,1.6-0.8,2.4-1.2c0.6-0.3,1.1-0.5,1.7-0.8
					c0.4-0.2,0.7-0.4,1.1-0.5C138,70.6,136.7,69.3,135.4,68z"/>
				<path class="st0" d="M208.9,36.8c-0.9-1.9-1.9-3.7-3-5.5c-1.7,1.2-3.3,2.6-4.8,4C194.3,41.4,188.7,49,185,58
					c-0.5,1.1-0.9,2.2-1.2,3.3c-0.1,0.3-0.2,0.6-0.3,0.9c-0.1,0.4-0.3,0.8-0.4,1.2l0,0l0,0c0.4,0,0.8,0,1.2,0c0.6,0,1.3,0.1,1.9,0.1
					c1,0.1,1.9,0.1,2.9,0.2c0.1,0,0.3,0,0.4,0c0.5,0,0.9,0.1,1.4,0.1c1.1,0.1,2.2,0.3,3.3,0.4c0.4,0.1,0.8,0.1,1.3,0.2
					c1.5,0.2,2.9,0.5,4.3,0.8c0.6,0.1,1.1,0.2,1.7,0.4c0.9,0.2,1.8,0.4,2.7,0.6c0.6,0.2,1.2,0.3,1.9,0.5c0.8,0.2,1.7,0.5,2.5,0.7
					c0.1,0,0.2,0.1,0.3,0.1c0.5,0.2,1,0.3,1.5,0.5c0.9,0.3,1.7,0.6,2.6,0.9c0.5,0.2,1.1,0.4,1.6,0.6c0.1,0,0.2,0.1,0.3,0.1l0,0l0,0
					c0-0.3,0-0.6,0.1-1c0-0.4,0.1-0.8,0.1-1.2c0.1-1.1,0.1-2.2,0.1-3.4l0,0l0,0C215.1,54.2,212.9,45,208.9,36.8z"/>
				<path class="st0" d="M254.8,58.6c0-0.4,0-0.8-0.1-1.2c-0.3,0.1-0.5,0.1,0,0l0,0l0,0c0-0.4-0.1-0.9-0.1-1.3c0,0,0,0,0-0.1
					c0-0.4-0.1-0.7-0.1-1.1l0,0c-0.1-1.2-0.3-2.5-0.5-3.7l0,0l0,0c-2,0.5-4,1.1-6,1.8c-0.3,0.1-0.5,0.2-0.8,0.3
					c-0.8,0.3-1.7,0.6-2.5,1c-0.5,0.2-0.9,0.4-1.4,0.6c-0.6,0.3-1.3,0.6-1.9,0.9c-0.1,0-0.2,0.1-0.3,0.1c-0.2,0.1-0.4,0.2-0.6,0.3
					c-1.1,0.5-2.1,1.1-3.2,1.7c-0.3,0.1-0.5,0.3-0.8,0.4c-2.6,1.6-5.2,3.4-7.6,5.4c0,0,0,0-0.1,0.1c-1.5,1.2-2.9,2.5-4.3,3.9
					l-0.1,0.1l0,0l0,0l0,0c-1.2,1.2-2.3,2.4-3.4,3.7l0,0c-0.1,0.1-0.3,0.3-0.4,0.4l0,0l0,0c0.4,0.2,0.9,0.4,1.3,0.6
					c0.5,0.3,1.1,0.5,1.6,0.8c0.8,0.4,1.7,0.8,2.5,1.3c0.1,0,0.2,0.1,0.3,0.1l0,0l0,0c0.4,0.2,0.8,0.4,1.3,0.7
					c1,0.5,1.9,1.1,2.8,1.6c0.5,0.3,1.1,0.7,1.6,1c1,0.6,2,1.3,3,1.9c0.6,0.4,1.1,0.8,1.7,1.2c0.7,0.5,1.3,0.9,1.9,1.4
					c0.6,0.4,1.2,0.9,1.8,1.3c0.6,0.5,1.2,0.9,1.7,1.4c0.2,0.2,0.4,0.3,0.6,0.5c0.4,0.3,0.8,0.6,1.1,0.9c0.5,0.5,1.1,0.9,1.6,1.4
					c0.6,0.5,1.1,1,1.7,1.5c0.1,0.1,0.2,0.2,0.4,0.3c0.1-0.2,0.2-0.3,0.3-0.5c0.7-1.5,1.5-3,2.1-4.5c0.5-1.3,1-2.5,1.4-3.8
					c0.2-0.5,0.3-0.9,0.4-1.3c0.3-0.8,0.5-1.7,0.7-2.5c0.1-0.5,0.3-1,0.4-1.5c0.2-0.8,0.4-1.6,0.5-2.4c0.1-0.5,0.2-1,0.3-1.5
					c0.2-0.9,0.3-1.8,0.4-2.8c0-0.4,0.1-0.8,0.2-1.1c0.1-1.3,0.2-2.5,0.3-3.8c0-0.4,0-0.9,0-1.3c0-0.9,0-1.8,0-2.6
					C254.8,59.6,254.8,59.1,254.8,58.6z M226.5,74.7L226.5,74.7C226.5,74.7,226.4,74.6,226.5,74.7L226.5,74.7z"/>
				<path class="st0" d="M284.7,87.2L284.7,87.2c-9.1-0.5-18.4,0.9-27.4,4.7c-1.6,0.6-3.1,1.4-4.5,2.1c-0.2,0.1-0.4,0.2-0.5,0.3l0,0
					l0,0c0.2,0.2,0.4,0.5,0.7,0.7c0.4,0.5,0.9,1,1.3,1.5c0.6,0.6,1.1,1.3,1.6,1.9c0.2,0.2,0.4,0.5,0.6,0.7c0.2,0.3,0.4,0.5,0.6,0.8
					c0.5,0.7,1.1,1.4,1.6,2c0.4,0.5,0.8,1,1.1,1.5c0.6,0.9,1.3,1.8,1.9,2.6c0.4,0.5,0.8,1.1,1.1,1.6c0.6,1,1.3,1.9,1.9,2.9
					c0.3,0.5,0.6,1.1,0.9,1.6c0.4,0.8,0.9,1.5,1.3,2.3c0.2,0.3,0.4,0.7,0.5,1s0.3,0.5,0.4,0.8c0.4,0.7,0.8,1.5,1.2,2.3
					c0.3,0.6,0.6,1.2,0.9,1.8c0.1,0.3,0.3,0.6,0.4,0.9l0,0l0,0c0.1-0.1,0.2-0.2,0.3-0.3c1.2-1.1,2.5-2.2,3.7-3.3
					c0.9-0.9,1.7-1.7,2.5-2.6c-0.8,0.9-1.6,1.8-2.5,2.6c1.8-1.8,3.5-3.8,5.1-5.8c4.3-5.5,7.5-11.5,9.7-17.8c0.2-0.7,0.5-1.3,0.7-2
					c0.4-1.3,0.8-2.7,1.1-4C288.9,87.5,286.8,87.3,284.7,87.2z"/>
				<path class="st0" d="M305.4,133c-8.2-3.9-17.4-6.2-27.1-6.2c-1.1,0-2.3,0-3.4,0.1c-0.4,0-0.8,0-1.1,0.1c-0.3,0-0.7,0-1,0.1l0,0
					l0,0c0.1,0.2,0.1,0.3,0.2,0.5c0.3,0.7,0.5,1.4,0.7,2.1c0.3,0.7,0.5,1.4,0.7,2.2c0.1,0.4,0.3,0.9,0.4,1.3
					c0.1,0.3,0.2,0.5,0.2,0.7c0.2,0.7,0.4,1.5,0.6,2.2s0.4,1.4,0.6,2.1c0.2,0.8,0.4,1.7,0.6,2.6c0.2,1,0.4,2.1,0.6,3.1
					c0.2,0.9,0.4,1.9,0.5,2.8c0.1,0.7,0.2,1.5,0.3,2.2c0.1,0.8,0.2,1.5,0.3,2.3c0,0.4,0.1,0.8,0.1,1.2s0.1,0.7,0.1,1.1
					c0.1,0.8,0.1,1.5,0.2,2.3c0,0.8,0.1,1.5,0.1,2.3c0,0.2,0,0.4,0,0.6l0,0l0,0c0.3-0.1,0.6-0.2,0.9-0.3s0.7-0.2,1-0.3
					c1.1-0.4,2.1-0.8,3.2-1.2c9-3.7,16.7-9.4,22.7-16.2c1.4-1.6,2.7-3.2,4-4.9C309.2,134.8,307.3,133.9,305.4,133z"/>
				<path class="st0" d="M311,188c-1.2-1.7-2.6-3.3-3.9-4.8c-6.1-6.8-13.7-12.4-22.7-16.1c-1.7-0.7-3.4-1.3-5.2-1.9l0,0
					c-0.2,8.6-1.6,17.2-4.2,25.7c-0.6,2-1.3,4-2,6.1l0,0h0.1c1.7,0.1,3.5,0.2,5.3,0.2c7.7,0,15.2-1.4,22-4l0,0
					c1.3-0.5,2.6-1,3.9-1.6c0.1-0.1,0.3-0.1,0.4-0.2c1.2-0.5,2.3-1.1,3.4-1.7c0.2-0.1,0.4-0.2,0.6-0.4
					C309.5,188.9,310.2,188.5,311,188L311,188z"/>
			</g>
			<g>
				<path class="st0" d="M5.1,211.5l3.1-3.3c1,0.9,2,1.8,3.8,1.8c2.2,0,3.6-1.3,3.6-5v-40.5h5.5v40.4c0,6.5-3.6,9.8-8.8,9.8
					C8.9,214.7,6.6,213.1,5.1,211.5 M14.4,151.2c0-2.3,1.9-3.9,3.9-3.9c2.1,0,3.9,1.7,3.9,3.9c0,2.3-1.9,3.9-3.9,3.9
					C16.3,155,14.4,153.4,14.4,151.2"/>
				<path class="st0" d="M26.3,184.5v-20h5.5V184c0,5.7,2.7,8.8,8.1,8.8c6.2,0,10.2-3.9,10.2-10.3v-18h5.5v32.7h-5.5l0.2-6.6
					c-2.1,4.6-6.4,7.3-11.7,7.3C31.3,197.9,26.3,192.9,26.3,184.5"/>
				<path class="st0" d="M57.1,164.5h6.1l8.7,18.9c1,2.2,1.8,5.6,1.8,5.6s0.7-3.4,1.7-5.6l8.5-18.9h5.7L74,197.8h-1L57.1,164.5z"/>
				<path class="st0" d="M105.6,193.1c4.9,0,8.2-2,10.3-4.3l3.4,3.3c-3,3.4-7.3,5.7-13.7,5.7c-10.7,0-17.7-7.4-17.7-17
					c0-9.5,7.3-17.1,16.9-17.1c10.5,0,16.8,8.1,16.4,18.9H93.4C94.1,188.9,98.4,193.1,105.6,193.1 M115.7,178.5
					c-0.5-5.6-4-10-10.9-10c-6.2,0-10.4,4-11.3,10H115.7z"/>
				<path class="st0" d="M124.4,164.5h5.5l-0.2,6.7c2.1-4.7,6.5-7.4,11.8-7.4c7.3,0,12.2,5,12.2,13.5v19.9h-5.5v-19.3
					c0-5.8-2.7-9.1-8.1-9.1c-6.1,0-10.2,3.9-10.2,10.3v18h-5.5V164.5z"/>
				<path class="st0" d="M160.3,187.3v-18.1h-5.1v-4.7h5.1v-6.4h5.4v6.4h9.2v4.7h-9.2v18.2c0,4.3,1.5,5.7,3.9,5.7
					c2.2,0,3.4-1,4.4-1.9l3,3.5c-1.4,1.5-4,3.2-8,3.2C164.1,197.9,160.3,195,160.3,187.3"/>
				<path class="st0" d="M178.3,184.5v-20h5.5V184c0,5.7,2.7,8.8,8.1,8.8c6.2,0,10.2-3.9,10.2-10.3v-18h5.5v32.7h-5.5l0.2-6.6
					c-2.1,4.6-6.4,7.3-11.7,7.3C183.2,197.9,178.3,192.9,178.3,184.5"/>
				<path class="st0" d="M210.9,180.8c0-9.7,6.9-17,15.8-17c6.2,0,10.2,3.1,12.5,7.4v-31h5.4v57h-5.4l0.2-7
					c-2.2,4.5-6.8,7.6-12.6,7.6C217.8,197.8,210.9,190.5,210.9,180.8 M239.4,180.8c0-7-4.7-12.1-11.6-12.1s-11.3,5-11.3,12.1
					s4.4,12.2,11.3,12.2C234.8,193,239.4,187.9,239.4,180.8"/>
				<path class="st0" d="M31.3,138.8c0-9.5,7.3-17,17-17c5.8,0,9.9,2.2,12.9,5.8l-3.9,3.2c-2-2.6-4.8-4.2-8.9-4.2
					c-6.9,0-11.3,5.2-11.3,12.1c0,6.9,4.3,12.2,11.3,12.2c4.5,0,7.3-1.8,9.4-4.3l3.8,3.2c-3.1,3.7-7.1,5.8-13.2,5.8
					C38.6,155.7,31.3,148.3,31.3,138.8"/>
				<path class="st0" d="M65.2,142.5v-20h5.5V142c0,5.7,2.7,8.8,8.1,8.8c6.2,0,10.2-3.9,10.2-10.3v-18h5.5v32.7H89l0.2-6.6
					c-2.1,4.6-6.4,7.3-11.7,7.3C70.1,155.8,65.2,150.8,65.2,142.5"/>
				<rect x="101.8" y="105" class="st0" width="5.5" height="50.1"/>
				<path class="st0" d="M116.5,145.2v-18.1h-5.1v-4.7h5.1v-17h5.4v17h9.2v4.7h-9.2v18.2c0,4.3,1.5,5.7,3.9,5.7
					c2.2,0,3.4-0.9,4.4-1.9l3,3.5c-1.4,1.5-3.9,3.2-8,3.2C120.3,155.8,116.5,153,116.5,145.2"/>
				<path class="st0" d="M136.1,142.5v-20h5.5V142c0,5.7,2.7,8.8,8,8.8c6.2,0,10.2-3.9,10.2-10.3v-18h5.5v32.7h-5.5l0.2-6.6
					c-2.1,4.6-6.4,7.3-11.7,7.3C141.1,155.8,136.1,150.8,136.1,142.5"/>
				<path class="st0" d="M172.3,122.4h5.5l-0.2,6.4c2-5,5.7-7,9.5-7c2.4,0,4.2,0.5,5.7,1.6l-2.1,4.8c-1-0.7-2.4-1.3-4.5-1.3
					c-4.7,0-8.4,3.3-8.4,11v17.2h-5.5V122.4z"/>
				<path class="st0" d="M214.9,135.1c0-6.3-2.8-8.8-7.7-8.8c-4.6,0-7.5,2-9.5,4.7l-3.4-3.1c2.8-3.9,7.1-6.3,13.3-6.3
					c7.3,0,12.8,4.3,12.8,13.3v20h-5.5l0.2-4.9c-2.2,3.3-5.6,5.5-10.8,5.5c-6.9,0-12-3.2-12-9.9s5.5-9.9,12.4-9.9h10.2V135.1z
					 M205.1,140.1c-4.2,0-7.4,1.5-7.4,5.4c0,3.7,2.8,5.7,7.9,5.7c5.1,0,9.3-2.8,9.3-7v-4.1L205.1,140.1L205.1,140.1z"/>
				<path class="st0" d="M130.2,101.6h0.2l5.7,7.2l5.7-7.2h0.2v12.5h-1.3V106c0-0.6,0.1-1.4,0.1-1.4s-0.5,0.8-0.9,1.3l-3.7,4.7H136
					l-3.7-4.7c-0.4-0.5-0.9-1.3-0.9-1.3s0.1,0.9,0.1,1.4v8.1h-1.3L130.2,101.6L130.2,101.6z"/>
				<rect x="144.7" y="101.7" class="st0" width="1.3" height="12.3"/>
				<path class="st0" d="M150.7,105.5c-0.3-0.4-0.9-1.1-0.9-1.1s0.1,0.9,0.1,1.4v8.3h-1.2v-12.4h0.2l7.4,8.7
					c0.3,0.4,0.8,1.1,0.8,1.1s-0.1-0.9-0.1-1.4v-8.3h1.2v12.4H158L150.7,105.5z"/>
				<rect x="161" y="101.7" class="st0" width="1.3" height="12.3"/>
				<path class="st0" d="M163.8,111.7l1.1-0.6c0.6,1,1.4,1.9,3.2,1.9c1.4,0,2.6-0.8,2.6-2.1c0-1.2-0.8-1.9-2.3-2.6l-1-0.5
					c-1.8-0.8-2.7-1.6-2.7-3.4c0-1.8,1.4-3,3.2-3c1.6,0,2.7,0.8,3.3,1.8l-1.1,0.7c-0.5-0.8-1.1-1.3-2.3-1.3s-2,0.7-2,1.8
					s0.6,1.6,2,2.2l1,0.5c2,0.9,3.1,1.9,3.1,3.8c0,2-1.6,3.3-3.8,3.3C165.8,114.2,164.5,113,163.8,111.7"/>
				<polygon class="st0" points="176.3,102.9 172.5,102.9 172.5,101.7 181.4,101.7 181.4,102.9 177.6,102.9 177.6,114.1 
					176.3,114.1 				"/>
				<polygon class="st0" points="183,101.7 190.5,101.7 190.5,102.9 184.3,102.9 184.3,108.7 189.8,108.7 189.8,109.8 184.3,109.8 
					184.3,112.9 190.7,112.9 190.7,114.1 183,114.1 				"/>
				<path class="st0" d="M200.7,114.1h-1.5l-2.4-3.4c-0.4,0.1-0.9,0.1-1.3,0.1H194v3.3h-1.3v-12.3h2.8c3.4,0,5.1,1.9,5.1,4.5
					c0,1.8-0.9,3.3-2.6,4L200.7,114.1z M195.5,109.7c2.8,0,3.8-1.4,3.8-3.4c0-1.9-1-3.4-3.8-3.4h-1.4v6.8L195.5,109.7L195.5,109.7z"
					/>
				<rect x="202.9" y="101.7" class="st0" width="1.3" height="12.3"/>
				<path class="st0" d="M206.2,107.9c0-3.7,2.8-6.3,6.3-6.3s6.3,2.6,6.3,6.3s-2.8,6.3-6.3,6.3C209,114.2,206.2,111.6,206.2,107.9
					 M217.5,107.9c0-2.9-2.1-5.1-5-5.1s-5,2.2-5,5.1c0,2.9,2.1,5.1,5,5.1C215.4,113,217.5,110.8,217.5,107.9"/>
				<path class="st0" d="M224.4,101.7h3c4.1,0,6.7,2.4,6.7,6.2c0,3.7-2.5,6.2-6.7,6.2h-3V101.7z M227.3,112.9c3.6,0,5.4-2,5.4-5
					c0-2.9-1.7-5-5.4-5h-1.6v10H227.3z"/>
				<polygon class="st0" points="236,101.7 243.5,101.7 243.5,102.9 237.3,102.9 237.3,108.7 242.8,108.7 242.8,109.8 237.3,109.8 
					237.3,112.9 243.7,112.9 243.7,114.1 236,114.1 				"/>
				<path class="st0" d="M233.5,131.3l-4.7-8.5h1.5l3.4,6.1c0.3,0.5,0.5,1.2,0.5,1.2s0.3-0.8,0.5-1.2l3.3-6.1h1.4l-4.6,8.4v3.9h-1.3
					L233.5,131.3L233.5,131.3z"/>
			</g>
		</g>
	</g>
</g>
</svg>
